<svg width="278" height="191" viewBox="0 0 278 191" fill="none" xmlns="http://www.w3.org/2000/svg">
<path d="M86.1836 127.472C86.1836 133.909 91.0285 139.127 97.0053 139.127C102.982 139.127 107.827 133.909 107.827 127.472C107.827 121.036 102.982 115.818 97.0053 115.818C91.0285 115.818 86.1836 121.036 86.1836 127.472ZM88.9719 127.472C88.9719 122.694 92.5685 118.821 97.0053 118.821C101.442 118.821 105.039 122.694 105.039 127.472C105.039 132.25 101.442 136.124 97.0053 136.124C92.5685 136.123 88.9719 132.25 88.9719 127.472Z" fill="#5E8BEF"/>
<path d="M89.6484 127.473C89.6484 131.847 92.9414 135.394 97.0035 135.394C101.066 135.394 104.359 131.847 104.359 127.473C104.359 123.098 101.066 119.552 97.0035 119.552C92.9418 119.551 89.6484 123.098 89.6484 127.473ZM90.2677 127.473C90.2677 123.466 93.2834 120.218 97.0039 120.218C100.724 120.218 103.74 123.466 103.74 127.473C103.74 131.48 100.724 134.727 97.0039 134.727C93.2834 134.727 90.2677 131.479 90.2677 127.473Z" fill="#5E8BEF"/>
<path d="M94.3618 112.007H99.6563L100.924 118.512H93.0938L94.3618 112.007Z" fill="#5E8BEF"/>
<path d="M99.6563 142.938H94.3618L93.0938 136.433H100.924L99.6563 142.938Z" fill="#5E8BEF"/>
<path d="M82.6484 130.324V124.622L88.6887 123.256V131.689L82.6484 130.324Z" fill="#5E8BEF"/>
<path d="M111.365 124.622V130.324L105.324 131.689V123.256L111.365 124.622Z" fill="#5E8BEF"/>
<path d="M84.9805 118.552L88.7243 114.52L93.8918 118.155L88.3554 124.117L84.9805 118.552Z" fill="#5E8BEF"/>
<path d="M109.036 136.391L105.293 140.423L100.125 136.789L105.662 130.826L109.036 136.391Z" fill="#5E8BEF"/>
<path d="M88.7243 140.423L84.9805 136.391L88.3554 130.826L93.8918 136.789L88.7243 140.423Z" fill="#5E8BEF"/>
<path d="M105.293 114.52L109.036 118.552L105.662 124.117L100.125 118.155L105.293 114.52Z" fill="#5E8BEF"/>
<path d="M88.3867 127.472C88.3867 133.908 93.2316 139.126 99.2084 139.126C105.185 139.126 110.03 133.908 110.03 127.472C110.03 121.035 105.185 115.817 99.2084 115.817C93.2316 115.817 88.3867 121.035 88.3867 127.472ZM91.175 127.472C91.175 122.694 94.7716 118.82 99.2084 118.82C103.645 118.82 107.242 122.694 107.242 127.472C107.242 132.25 103.645 136.123 99.2084 136.123C94.7716 136.123 91.175 132.25 91.175 127.472Z" fill="#83A9FF"/>
<path d="M91.8516 127.472C91.8516 131.847 95.1445 135.393 99.2066 135.393C103.269 135.393 106.562 131.847 106.562 127.472C106.562 123.098 103.269 119.551 99.2066 119.551C95.1445 119.551 91.8516 123.098 91.8516 127.472ZM92.4708 127.472C92.4708 123.466 95.4865 120.218 99.207 120.218C102.927 120.218 105.943 123.465 105.943 127.472C105.943 131.479 102.928 134.727 99.207 134.727C95.4865 134.727 92.4708 131.479 92.4708 127.472Z" fill="#83A9FF"/>
<path d="M96.5606 112.007H101.855L103.123 118.512H95.293L96.5606 112.007Z" fill="#83A9FF"/>
<path d="M101.855 142.938H96.5606L95.293 136.433H103.123L101.855 142.938Z" fill="#83A9FF"/>
<path d="M84.8477 130.323V124.622L90.8879 123.256V131.689L84.8477 130.323Z" fill="#83A9FF"/>
<path d="M113.564 124.622V130.323L107.523 131.689V123.256L113.564 124.622Z" fill="#83A9FF"/>
<path d="M87.1875 118.553L90.9314 114.521L96.0989 118.156L90.5624 124.119L87.1875 118.553Z" fill="#83A9FF"/>
<path d="M111.243 136.392L107.5 140.424L102.332 136.79L107.869 130.827L111.243 136.392Z" fill="#83A9FF"/>
<path d="M90.9314 140.424L87.1875 136.392L90.5624 130.827L96.0989 136.79L90.9314 140.424Z" fill="#83A9FF"/>
<path d="M107.5 114.521L111.243 118.553L107.869 124.119L102.332 118.156L107.5 114.521Z" fill="#83A9FF"/>
<path d="M114.287 156.757C117.689 164.713 126.435 168.193 133.823 164.529C141.21 160.866 144.441 151.447 141.039 143.491C137.638 135.535 128.891 132.055 121.504 135.719C114.117 139.382 110.885 148.802 114.287 156.757ZM117.734 155.048C115.209 149.142 117.607 142.15 123.091 139.43C128.575 136.711 135.067 139.294 137.593 145.2C140.118 151.106 137.72 158.098 132.236 160.817C126.752 163.537 120.259 160.954 117.734 155.048Z" fill="#5E8BEF"/>
<path d="M118.572 154.632C120.884 160.04 126.829 162.405 131.85 159.915C136.871 157.425 139.067 151.023 136.755 145.615C134.442 140.208 128.498 137.843 123.477 140.333C118.456 142.823 116.26 149.225 118.572 154.632ZM119.338 154.253C117.22 149.3 119.232 143.438 123.83 141.157C128.428 138.876 133.872 141.042 135.99 145.995C138.107 150.947 136.096 156.81 131.498 159.09C126.899 161.371 121.455 159.205 119.338 154.253Z" fill="#5E8BEF"/>
<path d="M116.227 132.632L122.771 129.386L127.776 136.649L118.098 141.449L116.227 132.632Z" fill="#5E8BEF"/>
<path d="M139.116 167.616L132.571 170.862L127.566 163.598L137.245 158.799L139.116 167.616Z" fill="#5E8BEF"/>
<path d="M111.424 162.45L108.41 155.402L115.155 150.012L119.611 160.435L111.424 162.45Z" fill="#5E8BEF"/>
<path d="M143.906 137.797L146.92 144.845L140.175 150.235L135.719 139.812L143.906 137.797Z" fill="#5E8BEF"/>
<path d="M108.09 146.471L110.586 139.192L118.895 140.517L115.202 151.281L108.09 146.471Z" fill="#5E8BEF"/>
<path d="M147.246 153.777L144.75 161.056L136.441 159.731L140.134 148.967L147.246 153.777Z" fill="#5E8BEF"/>
<path d="M124.274 171.209L117.516 168.52L118.746 159.573L128.741 163.549L124.274 171.209Z" fill="#5E8BEF"/>
<path d="M131.06 129.039L137.819 131.728L136.589 140.675L126.594 136.699L131.06 129.039Z" fill="#5E8BEF"/>
<path d="M117.01 155.406C120.412 163.361 129.158 166.841 136.545 163.178C143.933 159.514 147.164 150.095 143.762 142.139C140.36 134.184 131.614 130.704 124.227 134.367C116.839 138.031 113.608 147.45 117.01 155.406ZM120.457 153.696C117.931 147.79 120.33 140.798 125.814 138.079C131.298 135.359 137.79 137.942 140.315 143.848C142.84 149.754 140.442 156.746 134.958 159.466C129.474 162.186 122.982 159.602 120.457 153.696Z" fill="#83A9FF"/>
<path d="M121.291 153.281C123.603 158.688 129.548 161.053 134.569 158.563C139.589 156.073 141.786 149.671 139.473 144.264C137.162 138.857 131.217 136.491 126.196 138.982C121.175 141.471 118.979 147.874 121.291 153.281ZM122.056 152.902C119.939 147.949 121.95 142.086 126.548 139.806C131.146 137.525 136.591 139.691 138.708 144.644C140.826 149.596 138.814 155.459 134.216 157.739C129.618 160.019 124.174 157.853 122.056 152.902Z" fill="#83A9FF"/>
<path d="M118.941 131.279L125.486 128.034L130.491 135.297L120.812 140.097L118.941 131.279Z" fill="#83A9FF"/>
<path d="M141.831 166.264L135.286 169.509L130.281 162.246L139.96 157.446L141.831 166.264Z" fill="#83A9FF"/>
<path d="M114.142 161.098L111.129 154.051L117.873 148.661L122.33 159.083L114.142 161.098Z" fill="#83A9FF"/>
<path d="M146.625 136.446L149.639 143.493L142.894 148.883L138.438 138.461L146.625 136.446Z" fill="#83A9FF"/>
<path d="M110.805 145.119L113.301 137.84L121.609 139.165L117.917 149.929L110.805 145.119Z" fill="#83A9FF"/>
<path d="M149.961 152.425L147.465 159.703L139.156 158.379L142.849 147.615L149.961 152.425Z" fill="#83A9FF"/>
<path d="M126.989 169.856L120.23 167.167L121.461 158.22L131.455 162.196L126.989 169.856Z" fill="#83A9FF"/>
<path d="M133.775 127.687L140.534 130.375L139.303 139.322L129.309 135.346L133.775 127.687Z" fill="#83A9FF"/>
<path d="M78.6523 169.69C90.9858 168.291 93.3444 155.659 92.5607 149.26" stroke="#1C77B5" stroke-miterlimit="10"/>
<path d="M92.695 151.422C94.1876 151.422 95.3977 150.119 95.3977 148.511C95.3977 146.904 94.1876 145.601 92.695 145.601C91.2023 145.601 89.9922 146.904 89.9922 148.511C89.9922 150.119 91.2023 151.422 92.695 151.422Z" fill="#EDCB3A"/>
<path d="M89.9922 162.349C97.8488 163.887 100.265 157.676 100.265 157.676" stroke="#1C77B5" stroke-miterlimit="10"/>
<path d="M101.703 158.613C103.082 157.997 103.737 156.295 103.165 154.809C102.594 153.324 101.013 152.619 99.6338 153.234C98.2547 153.849 97.5998 155.552 98.1711 157.037C98.7423 158.523 100.323 159.228 101.703 158.613Z" fill="#EDCB3A"/>
<path d="M86.4559 168.298C86.3241 168.298 86.1959 168.314 86.065 168.319C84.4557 160.546 78.0179 154.734 70.3156 154.734C62.6132 154.734 56.1754 160.546 54.5662 168.319C54.4352 168.314 54.307 168.298 54.1752 168.298C48.7388 168.298 44.332 173.044 44.332 178.898C44.332 184.753 48.7392 189.499 54.1752 189.499H86.4559C91.8923 189.499 96.2991 184.753 96.2991 178.898C96.2991 173.044 91.8923 168.298 86.4559 168.298Z" fill="#83A9FF"/>
<path d="M62.6569 180.29H13.207V189.499H62.6569V180.29Z" fill="#1C77B5"/>
<path d="M12.9994 85.355H62.4492V76.1457H12.9994V85.355Z" fill="#1C77B5"/>
<path d="M52.2607 116.275C56.2077 114.076 58.7518 109.767 58.7518 104.981V85.3672H16.6914V104.981C16.6914 109.767 19.2355 114.076 23.1825 116.275C26.4632 118.102 29.3541 120.626 31.6897 123.663C35.762 128.958 35.762 136.724 31.6897 142.019C29.3541 145.056 26.4632 147.58 23.1825 149.407C19.2355 151.606 16.6914 155.915 16.6914 160.701V180.315H58.7518V160.701C58.7518 155.916 56.2077 151.607 52.2607 149.408C48.9801 147.58 46.0891 145.057 43.7535 142.02C39.6813 136.724 39.6813 128.959 43.7535 123.663C46.0891 120.625 48.9801 118.102 52.2607 116.275Z" fill="#D0EFF4"/>
<path d="M37.7198 157.659C27.1415 157.659 18.5664 166.894 18.5664 178.286H56.8737C56.8733 166.894 48.2977 157.659 37.7198 157.659Z" fill="#ECB220"/>
<path d="M56.8737 178.286C56.8737 177.124 56.7798 175.986 56.6084 174.876C42.9879 177.862 30.9872 164.882 22.5963 165.637C20.0734 169.13 18.5664 173.517 18.5664 178.287L56.8737 178.286Z" fill="#FF8B0D"/>
<path d="M18.5742 97.9546V104.981C18.5742 108.956 20.6714 112.594 24.0476 114.474C27.5544 116.428 30.6133 119.084 33.1402 122.37C35.6666 125.656 36.8131 129.744 36.6033 133.767H36.6072L36.6187 149.323C36.6218 153.345 35.4969 157.275 33.3914 160.597L33.3306 160.693H42.2666C40.0364 157.313 38.8379 153.27 38.8379 149.124V133.767H38.841C38.6312 129.744 39.7776 125.655 42.3046 122.37C44.8315 119.084 47.8908 116.427 51.3966 114.474C52.5735 113.819 53.5903 112.946 54.4216 111.924C44.2109 111.156 31.6786 107.65 18.5742 97.9546Z" fill="#ECB220"/>
<path d="M261.67 139.649C259.393 157.885 243.82 170.68 226.887 168.228C229.164 149.992 244.737 137.197 261.67 139.649Z" fill="#165A7F"/>
<path d="M243.016 124.774C249.904 141.613 242.812 161.276 227.176 168.693C220.288 151.854 227.381 132.191 243.016 124.774Z" fill="#1C77B5"/>
<path d="M181.73 30.6309C190.857 47.6857 204.328 51.5695 218.209 42.0901" stroke="#A56F62" stroke-width="9" stroke-miterlimit="10"/>
<path d="M211.354 49.4267L218.629 47.1654C220.641 46.4234 221.714 44.0652 221.025 41.8978C220.336 39.7304 218.147 38.5751 216.134 39.317L208.859 41.5784L211.354 49.4267Z" fill="#C6711C"/>
<path d="M183.785 33.9633C186.709 32.806 184.406 28.6046 184.406 28.6046L184.828 25.2277C184.828 25.2277 182.019 24.9534 182.259 27.9866C182.259 27.9866 179.643 24.7407 177.914 24.68C177.102 24.6515 174.733 26.8948 174.118 28.5947C173.988 28.9549 174.158 29.3565 174.496 29.4875C175.307 29.8018 176.865 30.5997 177.71 32.3043C178.888 34.6801 181.644 37.1204 183.785 33.9633Z" fill="#A56F62"/>
<path d="M182.261 27.9873C182.261 27.9873 180.417 29.4992 181.461 32.1787C181.461 32.1787 180.925 29.6482 182.378 28.1354L182.261 27.9873Z" fill="#8C5C53"/>
<path d="M178.988 31.4982C178.988 31.4982 179.694 29.6232 181.181 28.3833C181.181 28.3833 179.158 28.5324 178.988 31.4982Z" fill="#8C5C53"/>
<path d="M179.269 30.7951L179.312 30.6365C179.312 30.6365 176.914 28.3766 174.272 28.2271C174.248 28.2778 174.225 28.3286 174.203 28.3789C175.194 28.5484 177.522 29.1076 179.269 30.7951Z" fill="#8C5C53"/>
<path d="M180.394 28.8619L180.606 28.7256C180.606 28.7256 178.941 25.7983 176.559 25.4209C176.086 25.8144 175.58 26.3299 175.141 26.8815C175.903 27.0339 178.135 27.6438 179.677 29.7604L179.814 29.618C179.814 29.618 178.148 26.6669 175.422 26.6337L176.365 25.5942C176.365 25.5942 178.9 26.0926 180.394 28.8619Z" fill="#8C5C53"/>
<path d="M227.43 76.8921V149.866" stroke="#284159" stroke-width="13" stroke-miterlimit="10"/>
<path d="M223.275 138.539L223.314 143.26C223.314 143.26 217.84 143.343 216.484 149.955L231.53 149.941L231.29 138.463L223.275 138.539Z" fill="#ECB220"/>
<path d="M227.266 143.517C227.248 144.542 227.831 145.384 228.567 145.399C229.304 145.414 229.916 144.597 229.934 143.572C229.952 142.548 229.37 141.705 228.633 141.69C227.896 141.675 227.284 142.493 227.266 143.517Z" fill="#19283B"/>
<path d="M219.456 74.5952C195.169 93.9551 214.263 128.425 214.263 128.425" stroke="#284159" stroke-width="13" stroke-miterlimit="10"/>
<path d="M210.111 127.046L210.15 131.767C210.15 131.767 204.676 131.85 203.32 138.462L218.366 138.448L218.125 126.97L210.111 127.046Z" fill="#FF8B0D"/>
<path d="M214.102 132.025C214.084 133.049 214.667 133.891 215.403 133.907C216.14 133.922 216.752 133.104 216.77 132.08C216.788 131.055 216.206 130.213 215.469 130.197C214.732 130.182 214.12 131 214.102 132.025Z" fill="#19283B"/>
<path d="M188.54 67.281L187.246 67.5752L211.382 190.671L212.676 190.377L188.54 67.281Z" fill="#165A7F"/>
<path d="M207.884 67.2815L206.59 67.5757L230.726 190.671L232.019 190.377L207.884 67.2815Z" fill="#165A7F"/>
<path d="M208.808 74.6851H189.461V76.1091H208.808V74.6851Z" fill="#165A7F"/>
<path d="M210.902 85.2739H191.555V86.698H210.902V85.2739Z" fill="#165A7F"/>
<path d="M212.992 95.8638H193.645V97.2878H212.992V95.8638Z" fill="#165A7F"/>
<path d="M215.078 106.453H195.73V107.877H215.078V106.453Z" fill="#165A7F"/>
<path d="M217.168 117.042H197.82V118.466H217.168V117.042Z" fill="#165A7F"/>
<path d="M219.258 127.631H199.91V129.055H219.258V127.631Z" fill="#165A7F"/>
<path d="M221.348 138.22H202V139.644H221.348V138.22Z" fill="#165A7F"/>
<path d="M223.438 148.811H204.09V150.235H223.438V148.811Z" fill="#165A7F"/>
<path d="M225.524 159.4H206.176V160.824H225.524V159.4Z" fill="#165A7F"/>
<path d="M227.617 169.989H208.27V171.413H227.617V169.989Z" fill="#165A7F"/>
<path d="M229.703 180.578H210.355V182.002H229.703V180.578Z" fill="#165A7F"/>
<path d="M206.776 67.2765L182.664 190.385L183.958 190.679L208.07 67.5704L206.776 67.2765Z" fill="#1C77B5"/>
<path d="M187.425 67.2755L163.312 190.384L164.606 190.678L188.719 67.5694L187.425 67.2755Z" fill="#1C77B5"/>
<path d="M205.86 74.6846H186.512V76.1086H205.86V74.6846Z" fill="#1C77B5"/>
<path d="M203.77 85.2739H184.422V86.698H203.77V85.2739Z" fill="#1C77B5"/>
<path d="M201.68 95.8633H182.332V97.2873H201.68V95.8633Z" fill="#1C77B5"/>
<path d="M199.594 106.453H180.246V107.877H199.594V106.453Z" fill="#1C77B5"/>
<path d="M197.5 117.042H178.152V118.466H197.5V117.042Z" fill="#1C77B5"/>
<path d="M195.414 127.63H176.066V129.054H195.414V127.63Z" fill="#1C77B5"/>
<path d="M193.324 138.221H173.977V139.645H193.324V138.221Z" fill="#1C77B5"/>
<path d="M191.227 148.811H171.879V150.235H191.227V148.811Z" fill="#1C77B5"/>
<path d="M189.14 159.399H169.793V160.823H189.14V159.399Z" fill="#1C77B5"/>
<path d="M187.051 169.989H167.703V171.413H187.051V169.989Z" fill="#1C77B5"/>
<path d="M184.965 180.578H165.617V182.002H184.965V180.578Z" fill="#1C77B5"/>
<path d="M221.168 64.5752H226.85C231.042 64.5752 234.471 68.2687 234.471 72.7824C234.471 77.2967 231.042 80.9897 226.85 80.9897H221.168C216.976 80.9897 213.547 77.2962 213.547 72.7824C213.547 68.2687 216.976 64.5752 221.168 64.5752Z" fill="#284159"/>
<path d="M214.344 68.1828C214.339 69.0823 214.81 69.912 215.563 70.3003C217.232 71.159 219.654 72.0989 222.661 72.3263C226.894 72.6462 230.294 71.4035 232.324 70.3976C233.089 70.0188 233.575 69.191 233.58 68.2844C233.62 60.1089 233.661 52.6175 233.702 44.491C233.725 39.7973 230.211 35.9709 225.853 35.9458L221.876 35.923C217.806 35.8997 214.49 39.4342 214.469 43.8169L214.344 68.1828Z" fill="#ECB220"/>
<path d="M229.022 36.5947C229.306 38.3861 227.282 40.253 224.501 40.7638C221.72 41.2745 219.236 40.2364 218.952 38.445C218.668 36.6535 220.693 34.7866 223.473 34.2758C226.254 33.7646 228.739 34.8027 229.022 36.5947Z" fill="#A56F62"/>
<path d="M224.142 9.79692L224.514 9.79929C226.896 9.81306 228.811 13.0722 228.791 17.0795L228.694 36.9458L219.695 36.8946L219.793 17.0282C219.813 13.0205 221.76 9.78315 224.142 9.79692Z" fill="#A56F62"/>
<path d="M224.147 11.1167L224.519 11.1191C226.901 11.1329 228.817 14.1552 228.799 17.8705L228.732 31.4435C228.719 34.1193 226.694 36.2772 224.21 36.263C221.725 36.2487 219.721 34.068 219.734 31.3923L219.801 17.8192C219.819 14.1039 221.765 11.103 224.147 11.1167Z" fill="#8C5C53"/>
<path d="M222.2 27.8009C222.27 28.2552 223.144 28.4759 224.152 28.2946C225.16 28.1133 225.919 27.5978 225.849 27.1435C225.778 26.6892 224.904 26.4685 223.897 26.6498C222.89 26.8312 222.129 27.3467 222.2 27.8009Z" fill="#D88D87"/>
<path d="M224.243 0.721191C224.955 0.721191 225.593 1.7204 226.278 1.8253C226.981 1.93305 227.853 1.16881 228.52 1.37957C229.198 1.59365 229.549 2.74618 230.184 3.05852C230.824 3.37418 231.863 2.90757 232.45 3.31485C233.041 3.72497 233.077 4.93683 233.606 5.43145C234.136 5.92654 235.255 5.79268 235.715 6.36372C236.174 6.93382 235.892 8.10723 236.273 8.74378C236.651 9.37653 237.76 9.58586 238.053 10.2765C238.343 10.9591 237.766 11.9991 237.965 12.7297C238.16 13.4479 239.169 13.9866 239.269 14.7428C239.367 15.4809 238.54 16.3021 238.54 17.0692C238.54 17.8363 239.367 18.658 239.269 19.3961C239.169 20.1527 238.161 20.6915 237.965 21.4097C237.766 22.1402 238.343 23.1803 238.053 23.8628C237.76 24.553 236.651 24.7624 236.272 25.3956C235.891 26.0321 236.173 27.206 235.714 27.7756C235.255 28.3467 234.135 28.2123 233.605 28.7074C233.076 29.2016 233.041 30.4139 232.45 30.8236C231.862 31.2313 230.824 30.7642 230.183 31.0799C229.549 31.3922 229.198 32.5448 228.52 32.7588C227.853 32.9691 226.981 32.2049 226.278 32.3126C225.593 32.418 224.955 33.4167 224.243 33.4167C223.53 33.4167 222.892 32.4175 222.206 32.3126C221.504 32.2049 220.631 32.9691 219.964 32.7584C219.286 32.5443 218.935 31.3918 218.301 31.0794C217.66 30.7638 216.622 31.2304 216.034 30.8231C215.443 30.413 215.408 29.2011 214.879 28.7065C214.349 28.2114 213.23 28.3457 212.77 27.7742C212.311 27.2041 212.593 26.0307 212.212 25.3942C211.833 24.7614 210.724 24.5521 210.431 23.8614C210.141 23.1788 210.719 22.1388 210.52 21.4083C210.324 20.6901 209.315 20.1513 209.215 19.3951C209.117 18.657 209.944 17.8358 209.944 17.0687C209.944 16.3016 209.118 15.48 209.215 14.7418C209.315 13.9852 210.324 13.4464 210.52 12.7287C210.719 11.9982 210.141 10.9582 210.431 10.2756C210.724 9.58539 211.834 9.37605 212.212 8.74283C212.593 8.10628 212.311 6.93239 212.77 6.3623C213.23 5.79126 214.349 5.92559 214.879 5.4305C215.409 4.93636 215.444 3.72402 216.035 3.31437C216.622 2.90662 217.661 3.37371 218.301 3.05805C218.935 2.74571 219.286 1.59318 219.964 1.3791C220.631 1.16834 221.504 1.93305 222.206 1.82482C222.892 1.72039 223.53 0.721191 224.243 0.721191Z" fill="#252538"/>
<path d="M215.363 21.5228H232.567V19.6169C232.567 14.5008 228.716 10.3535 223.965 10.3535C219.215 10.3535 215.364 14.5008 215.364 19.6169L215.363 21.5228Z" fill="#252538"/>
<path d="M215.11 23.6075H232.862C233.639 23.6075 234.268 22.9292 234.268 22.0928C234.268 21.2564 233.639 20.5781 232.862 20.5781H215.11C214.333 20.5781 213.703 21.2564 213.703 22.0928C213.703 22.9292 214.333 23.6075 215.11 23.6075Z" fill="#8C5C53"/>
<path d="M233.53 22.0931C233.53 21.6944 233.23 21.3716 232.86 21.3716H215.107C214.737 21.3716 214.438 21.6948 214.438 22.0931C214.438 22.4918 214.738 22.8146 215.107 22.8146H232.86C233.23 22.8146 233.53 22.4918 233.53 22.0931Z" fill="#AA635F"/>
<path d="M223.987 35.0646C228.323 35.0646 231.837 31.2795 231.837 26.6106V18.5847C231.837 14.1084 228.468 10.4795 224.311 10.4795H223.663C219.506 10.4795 216.137 14.1084 216.137 18.5847V26.6101C216.137 31.2795 219.651 35.0646 223.987 35.0646Z" fill="#A56F62"/>
<path d="M221.968 26.6364C222.811 26.4517 223.984 26.1308 225.083 25.6139C225.805 25.2736 226.488 26.2485 226.135 27.1324C225.76 28.0727 225.069 28.9708 223.793 29.1545C222.748 29.305 222.065 29.0401 221.62 28.6419C220.99 28.0789 221.217 26.8011 221.968 26.6364Z" fill="#252538"/>
<path d="M223.789 29.1543C225.065 28.9706 225.756 28.0725 226.131 27.1322C226.184 26.9998 226.211 26.8654 226.221 26.7335C225.757 26.535 225.147 26.4752 224.342 26.7059C223.099 27.0619 222.525 28.046 222.271 29.0285C222.27 29.0304 222.27 29.0323 222.27 29.0342C222.663 29.1828 223.159 29.245 223.789 29.1543Z" fill="#FF9292"/>
<path d="M223.137 28.0579C223.273 28.2848 223.756 28.2231 224.215 27.9207C224.675 27.6184 224.937 27.1892 224.802 26.9628C224.666 26.7364 224.183 26.7976 223.724 27.1C223.264 27.4024 223.002 27.831 223.137 28.0579Z" fill="#FFABAB"/>
<path d="M221.968 26.6362C222.81 26.4515 223.984 26.1307 225.082 25.6137C225.525 25.4049 225.953 25.6925 226.136 26.1501C225.506 26.8128 224.526 27.3719 223.366 27.6572C222.622 27.8405 221.899 27.8865 221.256 27.8172C221.229 27.286 221.494 26.7402 221.968 26.6362Z" fill="white"/>
<path d="M222.953 10.2183H224.976C229.168 10.2183 232.566 13.8781 232.566 18.3927V19.0113C232.566 19.0763 232.564 19.1404 232.559 19.2044C232.468 20.4291 230.748 20.3157 230.748 19.0872V18.7891C230.748 16.6184 229.114 14.8587 227.099 14.8587H220.831C218.815 14.8587 217.181 16.6184 217.181 18.7891V19.0872C217.181 20.3162 215.462 20.4296 215.37 19.2044C215.365 19.1408 215.363 19.0763 215.363 19.0113V18.3927C215.363 13.8781 218.761 10.2183 222.953 10.2183Z" fill="#252538"/>
<path d="M226.113 20.2876H227.848C228.243 20.2876 228.563 20.6322 228.563 21.0575C228.563 21.4828 228.243 21.8275 227.848 21.8275H226.113C225.718 21.8275 225.398 21.4828 225.398 21.0575C225.398 20.6322 225.718 20.2876 226.113 20.2876Z" fill="#8C5C53"/>
<path d="M218.32 20.2876H220.055C220.45 20.2876 220.77 20.6322 220.77 21.0575C220.77 21.4828 220.45 21.8275 220.055 21.8275H218.32C217.925 21.8275 217.605 21.4828 217.605 21.0575C217.606 20.6322 217.926 20.2876 218.32 20.2876Z" fill="#8C5C53"/>
<path d="M226.59 20.0679C227.098 20.0679 227.509 20.5107 227.509 21.0571C227.509 21.6035 227.098 22.0463 226.59 22.0463C226.083 22.0463 225.672 21.6035 225.672 21.0571C225.672 20.5107 226.083 20.0679 226.59 20.0679Z" fill="#252538"/>
<path d="M219.626 20.0679C220.133 20.0679 220.545 20.5107 220.545 21.0571C220.545 21.6035 220.133 22.0463 219.626 22.0463C219.118 22.0463 218.707 21.6035 218.707 21.0571C218.707 20.5107 219.118 20.0679 219.626 20.0679Z" fill="#252538"/>
<path d="M218.417 18.2486L220.009 17.7084C220.358 17.5902 220.73 17.7986 220.84 18.1745C220.95 18.5505 220.756 18.9511 220.407 19.0693L218.815 19.6095C218.466 19.7277 218.094 19.5193 217.984 19.1433C217.874 18.7674 218.068 18.3668 218.417 18.2486Z" fill="#252538"/>
<path d="M226.862 17.7086L228.454 18.2488C228.803 18.3669 228.997 18.7681 228.887 19.1435C228.777 19.5195 228.405 19.7279 228.056 19.6097L226.464 19.0695C226.115 18.9513 225.921 18.5506 226.031 18.1747C226.141 17.7988 226.513 17.5899 226.862 17.7086Z" fill="#252538"/>
<path d="M222.269 31.0685C222.397 31.4957 223.268 31.5759 224.215 31.2489C225.162 30.9214 225.826 30.31 225.699 29.8828C225.572 29.456 224.701 29.3753 223.754 29.7024C222.807 30.0299 222.143 30.6418 222.269 31.0685Z" fill="#8C5C53"/>
<path d="M222.94 25.1674C223.662 25.1674 224.247 24.537 224.247 23.7595V21.4763C224.247 20.6987 223.662 20.0684 222.94 20.0684C222.218 20.0684 221.633 20.6987 221.633 21.4763V23.7595C221.633 24.537 222.218 25.1674 222.94 25.1674Z" fill="#D88D87"/>
<path d="M222.248 24.3678C222.439 24.3678 222.593 24.2012 222.593 23.9956V21.3526C222.593 21.1471 222.439 20.9805 222.248 20.9805C222.057 20.9805 221.902 21.1471 221.902 21.3526V23.9956C221.902 24.2012 222.057 24.3678 222.248 24.3678Z" fill="#F79C97"/>
<path d="M139.236 113.461C165.157 113.461 186.17 90.8306 186.17 62.9146C186.17 34.9986 165.157 12.3682 139.236 12.3682C113.314 12.3682 92.3008 34.9986 92.3008 62.9146C92.3008 90.8306 113.314 113.461 139.236 113.461Z" stroke="#5E8BEF" stroke-width="12" stroke-miterlimit="10"/>
<path d="M139.238 80.054C148.028 80.054 155.153 72.3807 155.153 62.9152C155.153 53.4497 148.028 45.7764 139.238 45.7764C130.449 45.7764 123.324 53.4497 123.324 62.9152C123.324 72.3807 130.449 80.054 139.238 80.054Z" stroke="#5E8BEF" stroke-width="12" stroke-miterlimit="10"/>
<path d="M139.238 45.7757V12.3682" stroke="#5E8BEF" stroke-width="12" stroke-miterlimit="10"/>
<path d="M139.238 112.047V78.6396" stroke="#5E8BEF" stroke-width="12" stroke-miterlimit="10"/>
<path d="M154.492 62.207H185.513" stroke="#5E8BEF" stroke-width="12" stroke-miterlimit="10"/>
<path d="M92.957 62.207H123.978" stroke="#5E8BEF" stroke-width="12" stroke-miterlimit="10"/>
<path d="M134.121 0L131.672 12.5677H146.799L144.35 0H134.121Z" fill="#5E8BEF"/>
<path d="M134.121 125.829H144.35L146.799 113.262H131.672L134.121 125.829Z" fill="#5E8BEF"/>
<path d="M185.984 54.769V71.0601L197.654 68.4223V57.4064L185.984 54.769Z" fill="#5E8BEF"/>
<path d="M80.8164 68.4223L92.4861 71.0601V54.769L80.8164 57.4064V68.4223Z" fill="#5E8BEF"/>
<path d="M177.485 15.0396L167.422 21.9276L177.985 33.5887L184.628 22.925L177.485 15.0396Z" fill="#5E8BEF"/>
<path d="M93.8516 102.906L100.995 110.792L111.058 103.904L100.494 92.2427L93.8516 102.906Z" fill="#5E8BEF"/>
<path d="M177.3 93.2656L166.473 104.642L176.374 111.796L183.696 104.104L177.3 93.2656Z" fill="#5E8BEF"/>
<path d="M94.7891 21.7273L101.185 32.5648L112.013 21.1886L102.111 14.0347L94.7891 21.7273Z" fill="#5E8BEF"/>
<path d="M149.895 13.2205L163.901 19.3748L166.042 6.74209L156.571 2.58057L149.895 13.2205Z" fill="#5E8BEF"/>
<path d="M112.434 119.087L121.904 123.248L128.581 112.609L114.574 106.455L112.434 119.087Z" fill="#5E8BEF"/>
<path d="M179.664 89.476L191.394 91.7811L195.258 81.5816L185.379 74.3916L179.664 89.476Z" fill="#5E8BEF"/>
<path d="M83.2148 44.2478L93.0946 51.4373L98.8091 36.3534L87.079 34.0483L83.2148 44.2478Z" fill="#5E8BEF"/>
<path d="M195.292 44.3516L191.445 34.1445L179.711 36.4282L185.401 51.5231L195.292 44.3516Z" fill="#5E8BEF"/>
<path d="M83.1875 81.4776L87.0354 91.6842L98.769 89.401L93.0787 74.3062L83.1875 81.4776Z" fill="#5E8BEF"/>
<path d="M149.816 112.628L156.475 123.28L165.953 119.136L163.833 106.5L149.816 112.628Z" fill="#5E8BEF"/>
<path d="M112.523 6.69281L114.644 19.3298L128.66 13.2016L122.001 2.54932L112.523 6.69281Z" fill="#5E8BEF"/>
<path d="M143.485 116.309C116.147 116.309 93.9062 92.3566 93.9062 62.915C93.9062 33.4734 116.147 9.52051 143.485 9.52051C170.823 9.52051 193.065 33.4734 193.065 62.915C193.065 92.3566 170.824 116.309 143.485 116.309ZM143.485 15.2167C119.064 15.2167 99.1954 36.6139 99.1954 62.915C99.1954 89.2157 119.064 110.613 143.485 110.613C167.907 110.613 187.775 89.2157 187.775 62.915C187.775 36.6139 167.907 15.2167 143.485 15.2167Z" fill="#83A9FF"/>
<path d="M143.484 82.9011C133.251 82.9011 124.926 73.9349 124.926 62.9147C124.926 51.8945 133.251 42.9282 143.484 42.9282C153.718 42.9282 162.043 51.8945 162.043 62.9147C162.043 73.9349 153.718 82.9011 143.484 82.9011ZM143.484 48.6239C136.167 48.6239 130.215 55.0345 130.215 62.9142C130.215 70.7939 136.167 77.2045 143.484 77.2045C150.801 77.2045 156.754 70.7939 156.754 62.9142C156.754 55.0345 150.801 48.6239 143.484 48.6239Z" fill="#83A9FF"/>
<path d="M146.129 12.3687H140.84V45.7762H146.129V12.3687Z" fill="#83A9FF"/>
<path d="M146.129 78.6392H140.84V112.047H146.129V78.6392Z" fill="#83A9FF"/>
<path d="M189.767 59.3608H158.746V65.057H189.767V59.3608Z" fill="#83A9FF"/>
<path d="M128.228 59.3608H97.207V65.057H128.228V59.3608Z" fill="#83A9FF"/>
<path d="M138.375 0L135.926 12.5677H151.053L148.604 0H138.375Z" fill="#83A9FF"/>
<path d="M138.375 125.829H148.604L151.053 113.262H135.926L138.375 125.829Z" fill="#83A9FF"/>
<path d="M190.234 54.7695V71.0606L201.904 68.4228V57.4069L190.234 54.7695Z" fill="#83A9FF"/>
<path d="M85.0625 68.4228L96.7322 71.0606V54.7695L85.0625 57.4069V68.4228Z" fill="#83A9FF"/>
<path d="M181.727 15.0391L171.664 21.9272L182.227 33.5882L188.87 22.9245L181.727 15.0391Z" fill="#83A9FF"/>
<path d="M98.0938 102.905L105.236 110.791L115.3 103.903L104.737 92.2417L98.0938 102.905Z" fill="#83A9FF"/>
<path d="M181.547 93.2651L170.719 104.641L180.621 111.795L187.943 104.103L181.547 93.2651Z" fill="#83A9FF"/>
<path d="M99.0312 21.7273L105.427 32.5648L116.255 21.1886L106.353 14.0347L99.0312 21.7273Z" fill="#83A9FF"/>
<path d="M154.145 13.2201L168.151 19.3743L170.292 6.74161L160.82 2.58008L154.145 13.2201Z" fill="#83A9FF"/>
<path d="M116.68 119.087L126.151 123.248L132.827 112.608L118.82 106.454L116.68 119.087Z" fill="#83A9FF"/>
<path d="M183.914 89.4765L195.644 91.7816L199.508 81.5821L189.629 74.3921L183.914 89.4765Z" fill="#83A9FF"/>
<path d="M87.4609 44.2473L97.3407 51.4368L103.055 36.3529L91.3247 34.0479L87.4609 44.2473Z" fill="#83A9FF"/>
<path d="M199.538 44.3516L195.691 34.1445L183.957 36.4282L189.647 51.5231L199.538 44.3516Z" fill="#83A9FF"/>
<path d="M87.4297 81.4771L91.2776 91.6837L103.011 89.4005L97.3209 74.3057L87.4297 81.4771Z" fill="#83A9FF"/>
<path d="M154.062 112.628L160.721 123.28L170.199 119.136L168.078 106.5L154.062 112.628Z" fill="#83A9FF"/>
<path d="M116.773 6.69281L118.894 19.3298L132.91 13.2016L126.251 2.54932L116.773 6.69281Z" fill="#83A9FF"/>
<path d="M278 189.5H0V191H278V189.5Z" fill="#3E5C70"/>
<path d="M193.07 58.7814C209.633 67.105 222.735 61.9571 229.048 45.6143" stroke="#A56F62" stroke-width="9" stroke-miterlimit="10"/>
<path d="M227.223 54.3284L232.178 48.1622C233.49 46.3589 233.196 43.752 231.522 42.3393C229.848 40.9267 227.427 41.2433 226.115 43.0466L221.16 49.2127L227.223 54.3284Z" fill="#C6711C"/>
<path d="M196.101 60.2734C198.855 58.5987 195.91 54.7941 195.91 54.7941L195.82 51.3361C195.82 51.3361 192.964 51.5559 193.664 54.5535C193.664 54.5535 191.242 52.9177 190.457 50.7755C189.499 48.1609 186.025 53.6335 186.223 56.4797C186.331 58.0253 188.449 58.3618 189.556 59.9212C191.096 62.0938 194.435 63.814 196.101 60.2734Z" fill="#A56F62"/>
<path d="M191.239 56.9712L191.114 57.1834C191.114 57.1834 188.325 55.7598 186.895 53.4452C186.953 53.3071 187.014 53.1695 187.078 53.0337C187.572 54.0201 188.712 55.644 191.239 56.9712Z" fill="#8C5C53"/>
<path d="M190.211 58.4674C190.211 58.4674 187.684 57.2128 186.27 55.5766C186.291 55.4251 186.32 55.2704 186.354 55.1133C186.943 55.8239 188.237 57.1634 190.35 58.2438L190.211 58.4674Z" fill="#8C5C53"/>
<path d="M192.2 55.5981C192.2 55.5981 189.314 54.2405 188.176 51.2201C188.303 51.0568 188.431 50.9073 188.56 50.7734C188.972 51.9677 189.961 53.9172 192.277 55.4462L192.2 55.5981Z" fill="#8C5C53"/>
<path d="M259.147 189.5H165.078V162.525H259.147C265.508 162.525 270.664 168.079 270.664 174.929V177.096C270.664 183.947 265.508 189.5 259.147 189.5Z" fill="#ECB220"/>
<path d="M212.335 162.525H155.906V164.812H179.732C185.467 164.812 190.132 169.837 190.132 176.013C190.132 182.189 185.466 187.213 179.732 187.213H155.906V189.5H212.335C219.251 189.5 224.858 183.461 224.858 176.013C224.858 168.564 219.251 162.525 212.335 162.525Z" fill="#EDCB3A"/>
<path d="M158.027 187.213V164.812H212.332C218.067 164.812 222.732 169.837 222.732 176.012C222.732 182.188 218.067 187.212 212.332 187.212H158.027V187.213Z" fill="white"/>
<path d="M221.569 170.875C221.507 170.747 221.443 170.62 221.377 170.494H158.027V170.875H221.569Z" fill="#83A9FF"/>
<path d="M222.609 174.293C222.591 174.165 222.569 174.038 222.546 173.912H158.027V174.293H222.609Z" fill="#83A9FF"/>
<path d="M158.027 167.458H219.035C218.891 167.327 218.744 167.2 218.594 167.077H158.027V167.458Z" fill="#83A9FF"/>
<path d="M221.58 181.127C221.641 181.001 221.699 180.874 221.755 180.746H158.027V181.127H221.58Z" fill="#83A9FF"/>
<path d="M222.613 177.71C222.631 177.584 222.644 177.456 222.658 177.329H158.027V177.71H222.613Z" fill="#83A9FF"/>
<path d="M219.061 184.544C219.196 184.42 219.327 184.293 219.456 184.163H158.027V184.544H219.061Z" fill="#83A9FF"/>
<path d="M262.216 178.862C264.206 177.979 265.156 175.526 264.336 173.383C263.517 171.239 261.239 170.216 259.249 171.099C257.258 171.981 256.309 174.434 257.128 176.578C257.947 178.722 260.225 179.744 262.216 178.862Z" fill="#EDCB3A"/>
<path d="M73.5938 85.2788C76.0052 111.66 107.835 105.524 107.835 105.524" stroke="#FFB692" stroke-width="9" stroke-miterlimit="10"/>
<path d="M78.4489 90.9095L77.6498 82.8005C77.3223 80.5368 75.353 78.9879 73.2514 79.3406C71.1498 79.6933 69.7112 81.8137 70.0387 84.0774L70.8378 92.1864L78.4489 90.9095Z" fill="#C6711C"/>
<path d="M105.154 104.115C105.243 100.761 109.674 101.777 109.674 101.777L112.512 100.272C112.512 100.272 113.647 103.053 110.901 103.773C110.901 103.773 114.59 105.411 115.193 107.158C115.477 107.978 114.255 111.111 112.954 112.279C112.678 112.526 112.27 112.48 112.047 112.177C111.513 111.448 110.315 110.112 108.546 109.791C106.079 109.343 103.055 107.304 105.154 104.115Z" fill="#FFB692"/>
<path d="M110.9 103.772C110.9 103.772 110.156 106.136 107.465 105.922C107.465 105.922 109.863 105.664 110.733 103.7L110.9 103.772Z" fill="#D88D87"/>
<path d="M108.852 108.233C108.852 108.233 110.278 106.916 110.897 105.004C110.897 105.004 111.409 107.118 108.852 108.233Z" fill="#D88D87"/>
<path d="M109.375 107.716L109.501 107.622C109.501 107.622 112.253 109.351 113.224 112.001C113.187 112.043 113.15 112.082 113.112 112.121C112.649 111.163 111.416 108.963 109.375 107.716Z" fill="#D88D87"/>
<path d="M110.72 105.952L110.772 105.691C110.772 105.691 113.878 106.46 114.968 108.773C114.771 109.381 114.479 110.061 114.133 110.685C113.756 109.955 112.51 107.87 110.156 106.969L110.238 106.784C110.238 106.784 113.366 107.546 114.262 110.319L114.877 109.026C114.877 109.026 113.633 106.596 110.72 105.952Z" fill="#D88D87"/>
<path d="M70.8984 116.436V189.41" stroke="#284159" stroke-width="13" stroke-miterlimit="10"/>
<path d="M75.0554 178.083L75.0171 182.804C75.0171 182.804 80.4909 182.888 81.8463 189.499L66.8008 189.485L67.041 178.007L75.0554 178.083Z" fill="#FF8B0D"/>
<path d="M71.0672 183.062C71.0853 184.086 70.5026 184.929 69.7661 184.944C69.0291 184.959 68.4174 184.141 68.3988 183.117C68.3808 182.092 68.963 181.25 69.7 181.235C70.4369 181.219 71.0492 182.037 71.0672 183.062Z" fill="#19283B"/>
<path d="M68.8891 104.118H63.2068C59.0151 104.118 55.5859 107.811 55.5859 112.325C55.5859 116.84 59.0155 120.533 63.2068 120.533H68.8891C73.0808 120.533 76.5099 116.839 76.5099 112.325C76.5104 107.811 73.0808 104.118 68.8891 104.118Z" fill="#284159"/>
<path d="M75.714 107.726C75.7184 108.625 75.2481 109.455 74.4944 109.843C72.8261 110.702 70.4036 111.642 67.3959 111.869C63.1628 112.189 59.7631 110.946 57.733 109.941C56.9682 109.562 56.4821 108.734 56.4777 107.827C56.4371 99.6519 56.3961 92.1605 56.3556 84.0339C56.3322 79.3403 59.8464 75.5139 64.2047 75.4887L68.1809 75.4659C72.2509 75.4427 75.5676 78.9767 75.5888 83.3599L75.714 107.726Z" fill="#ECB220"/>
<path d="M61.0422 76.1381C60.7583 77.9295 62.7828 79.7964 65.5635 80.3072C68.3443 80.818 70.8285 79.7798 71.1123 77.9884C71.3962 76.1969 69.3717 74.33 66.591 73.8193C63.8102 73.308 61.326 74.3466 61.0422 76.1381Z" fill="#FFB692"/>
<path d="M65.915 49.3394L65.5434 49.3418C63.1611 49.3555 61.2459 52.6147 61.2658 56.622L61.3636 76.4883L70.3618 76.437L70.264 56.5707C70.2442 52.5634 68.2969 49.3261 65.915 49.3394Z" fill="#FFB692"/>
<path d="M65.9137 51.0269L65.5421 51.0293C63.1598 51.043 61.2438 54.0653 61.2618 57.7807L61.3288 71.3537C61.3421 74.0295 63.3669 76.1874 65.8515 76.1731C68.3361 76.1589 70.3398 73.9782 70.3266 71.3024L70.2596 57.7294C70.2415 54.0141 68.2956 51.0131 65.9137 51.0269Z" fill="#D88D87"/>
<path d="M67.8563 67.3434C67.7858 67.7977 66.9118 68.0184 65.9042 67.8371C64.8966 67.6558 64.1371 67.1403 64.2077 66.686C64.2782 66.2317 65.1522 66.011 66.1594 66.1923C67.1674 66.3737 67.9268 66.8892 67.8563 67.3434Z" fill="#D88D87"/>
<path d="M61.5859 116.436V189.41" stroke="#284159" stroke-width="13" stroke-miterlimit="10"/>
<path d="M65.7429 178.083L65.7046 182.804C65.7046 182.804 71.1784 182.888 72.5338 189.499L57.4883 189.485L57.7285 178.007L65.7429 178.083Z" fill="#ECB220"/>
<path d="M61.7547 183.062C61.7728 184.086 61.1901 184.929 60.4536 184.944C59.7166 184.959 59.1049 184.141 59.0863 183.117C59.0683 182.092 59.6505 181.25 60.3875 181.235C61.1249 181.219 61.7367 182.037 61.7547 183.062Z" fill="#19283B"/>
<path d="M66.3535 54.9628C70.3759 54.9628 73.6367 52.3072 73.6367 49.0312C73.6367 45.7553 70.3759 43.0996 66.3535 43.0996C62.3311 43.0996 59.0703 45.7553 59.0703 49.0312C59.0703 52.3072 62.3311 54.9628 66.3535 54.9628Z" fill="#ECB220"/>
<path d="M66.3569 64.8559C72.1631 64.8559 76.87 60.5217 76.87 55.1753C76.87 49.8288 72.1631 45.4946 66.3569 45.4946C60.5506 45.4946 55.8438 49.8288 55.8438 55.1753C55.8438 60.5217 60.5506 64.8559 66.3569 64.8559Z" fill="#FF8B0D"/>
<path d="M56.9252 62.6128H75.8049C76.6309 62.6128 77.3004 61.8917 77.3004 61.0022C77.3004 60.1126 76.6309 59.3916 75.8049 59.3916H56.9252C56.0992 59.3916 55.4297 60.1126 55.4297 61.0022C55.4297 61.8917 56.0992 62.6128 56.9252 62.6128Z" fill="#D88D87"/>
<path d="M76.5161 61.0019C76.5161 60.578 76.197 60.2344 75.8034 60.2344H56.9236C56.53 60.2344 56.2109 60.578 56.2109 61.0019C56.2109 61.4258 56.53 61.7695 56.9236 61.7695H75.8034C76.1974 61.769 76.5161 61.4258 76.5161 61.0019Z" fill="#AA635F"/>
<path d="M66.3641 74.7968C70.975 74.7968 74.7127 70.7715 74.7127 65.8059V57.2711C74.7127 52.5105 71.1293 48.6519 66.7088 48.6519H66.0195C61.599 48.6519 58.0156 52.511 58.0156 57.2711V65.8059C58.0156 70.7715 61.7533 74.7968 66.3641 74.7968Z" fill="#FFB692"/>
<path d="M70.1314 59.0474H71.976C72.3961 59.0474 72.7363 59.4138 72.7363 59.8662C72.7363 60.3181 72.3961 60.685 71.976 60.685H70.1314C69.7114 60.685 69.3711 60.3186 69.3711 59.8662C69.3711 59.4143 69.7114 59.0474 70.1314 59.0474Z" fill="#D88D87"/>
<path d="M61.8384 59.0474H63.683C64.1026 59.0474 64.4434 59.4138 64.4434 59.8662C64.4434 60.3181 64.1031 60.685 63.683 60.685H61.8384C61.4184 60.685 61.0781 60.3186 61.0781 59.8662C61.0781 59.4143 61.4188 59.0474 61.8384 59.0474Z" fill="#D88D87"/>
<path d="M70.61 58.8481C71.1495 58.8481 71.5872 59.3195 71.5872 59.9005C71.5872 60.4815 71.1499 60.9529 70.61 60.9529C70.0705 60.9529 69.6328 60.482 69.6328 59.9005C69.6328 59.3195 70.07 58.8481 70.61 58.8481Z" fill="#252538"/>
<path d="M63.2076 58.8481C63.7471 58.8481 64.1848 59.3195 64.1848 59.9005C64.1848 60.4815 63.7476 60.9529 63.2076 60.9529C62.6681 60.9529 62.2305 60.482 62.2305 59.9005C62.2305 59.3195 62.6681 58.8481 63.2076 58.8481Z" fill="#252538"/>
<path d="M61.5712 56.9011L63.2646 56.3267C63.6357 56.2009 64.0315 56.4226 64.1483 56.8223C64.2651 57.222 64.0593 57.6482 63.6882 57.774L61.9947 58.3484C61.6236 58.4742 61.2278 58.2525 61.111 57.8528C60.9938 57.4532 61.2 57.0269 61.5712 56.9011Z" fill="#54321A"/>
<path d="M70.5455 56.3267L72.2389 56.9011C72.6101 57.0269 72.8163 57.4532 72.6991 57.8528C72.5823 58.2525 72.1865 58.4747 71.8154 58.3484L70.1219 57.774C69.7508 57.6482 69.5445 57.222 69.6618 56.8223C69.779 56.4226 70.1744 56.2009 70.5455 56.3267Z" fill="#54321A"/>
<path d="M64.4531 69.9172C64.4531 70.3942 65.3109 70.7806 66.3682 70.7806C67.4256 70.7806 68.2834 70.3942 68.2834 69.9172C68.2834 69.4401 67.4256 69.0537 66.3682 69.0537C65.3109 69.0537 64.4531 69.4406 64.4531 69.9172Z" fill="#D88D87"/>
<path d="M64.3521 64.8286L64.1555 64.9953C64.2564 65.1253 65.6285 66.8171 68.46 66.5617L68.2198 66.3343L68.3921 66.1236L69.074 66.7696L68.7862 66.8081C68.4622 66.8513 68.1563 66.8707 67.8667 66.8707C65.2891 66.8707 64.0642 65.3209 63.9505 65.1695L63.6587 65.4168C63.6587 65.4168 63.579 64.6098 64.3521 64.8286Z" fill="#8C5C53"/>
<path d="M67.1406 64.2714C67.9084 64.2714 68.5312 63.6011 68.5312 62.7742V60.3463C68.5312 59.5194 67.9089 58.8486 67.1406 58.8486C66.3728 58.8486 65.75 59.5189 65.75 60.3463V62.7742C65.7504 63.6011 66.3728 64.2714 67.1406 64.2714Z" fill="#D88D87"/>
<path d="M66.4023 63.4207C66.6051 63.4207 66.7695 63.2437 66.7695 63.0253V60.2147C66.7695 59.9964 66.6051 59.8193 66.4023 59.8193C66.1996 59.8193 66.0352 59.9964 66.0352 60.2147V63.0253C66.0347 63.2437 66.1991 63.4207 66.4023 63.4207Z" fill="#F79C97"/>
<path d="M66.0212 48.6519H66.7105C70.0449 48.6519 72.9015 50.8477 74.1048 53.9697C74.0797 53.9483 71.4783 51.7577 67.6114 52.1773V55.7374C67.6114 55.7374 64.0448 54.3271 64.0448 51.5033V54.0822C64.0448 54.0822 61.6876 53.8947 61.6876 52.5205C61.6876 52.5205 60.1162 52.3895 58.6445 53.9227C59.8575 50.8259 62.7035 48.6519 66.0212 48.6519Z" fill="#54321A"/>
<path d="M132.986 96.8083L91.6094 109.479L93.1331 115.25L134.51 102.58L132.986 96.8083Z" fill="#F4F4F4"/>
<path d="M133.748 99.6941L92.3711 112.364L93.133 115.25L134.51 102.58L133.748 99.6941Z" fill="#C0D4FF"/>
<path d="M138.136 104.237L132.413 103.217L130.945 97.309L135.257 93.3345L138.136 104.237Z" fill="#C0D4FF"/>
<path d="M138.133 104.237L147.142 99.8677L145.05 91.9453L135.254 93.3342L138.133 104.237Z" fill="#F4F4F4"/>
<path d="M95.3617 119.512L52.3052 132.697C50.8322 133.148 49.2983 132.227 48.8791 130.641L46.454 121.457C46.0353 119.87 46.89 118.218 48.363 117.767L91.4195 104.582C92.8926 104.131 94.4264 105.051 94.8456 106.638L97.2707 115.822C97.6894 117.408 96.8348 119.06 95.3617 119.512Z" fill="#1C77B5"/>
<path d="M95.9973 111.018L47.5312 125.554L49.0021 131.124C49.3503 132.443 50.6263 133.209 51.8516 132.833L95.806 119.373C97.0313 118.998 97.7423 117.624 97.3936 116.305L95.9973 111.018Z" fill="#165A7F"/>
<path d="M57.2122 83.4536C48.4022 108.206 79.4148 118.065 79.4148 118.065" stroke="#FFB692" stroke-width="9" stroke-miterlimit="10"/>
<path d="M59.0788 91.7295L60.9688 83.8332C61.3986 81.5894 60.0582 79.3959 57.9752 78.933C55.8921 78.4702 53.8549 79.9137 53.4252 82.1571L51.5352 90.0534L59.0788 91.7295Z" fill="#C6711C"/>
<path d="M76.8621 116.55C76.8325 113.144 81.3645 113.99 81.3645 113.99L84.1907 112.346C84.1907 112.346 85.4411 115.12 82.6802 115.965C82.6802 115.965 85.2062 117.407 87.3214 117.069C89.9034 116.656 87.2377 122.632 84.8496 123.869C83.5524 124.541 82.2231 122.733 80.4159 122.48C77.8979 122.128 74.846 119.873 76.8621 116.55Z" fill="#FFB692"/>
<path d="M81.9483 119.437L81.8398 119.66C81.8398 119.66 84.3782 121.55 86.9549 121.728C87.0369 121.604 87.1171 121.479 87.1943 121.351C86.1541 121.383 84.2782 121.131 81.9483 119.437Z" fill="#D88D87"/>
<path d="M81.2617 121.144C81.2617 121.144 83.5339 122.876 85.5565 123.377C85.6676 123.281 85.7778 123.177 85.8871 123.066C85.021 122.872 83.2976 122.334 81.3728 120.903L81.2617 121.144Z" fill="#D88D87"/>
<path d="M82.5742 117.857C82.5742 117.857 85.1077 119.87 88.1058 119.423C88.1737 119.222 88.2297 119.028 88.2733 118.841C87.1066 119.053 85.0447 119.105 82.6571 117.708L82.5742 117.857Z" fill="#D88D87"/>
</svg>
