<svg width="269" height="192" viewBox="0 0 269 192" fill="none" xmlns="http://www.w3.org/2000/svg">
<path d="M35.1468 86.1846H21.4766V96.0921V98.1788L23.5633 96.0921H35.1468V86.1846Z" fill="#78C2FF"/>
<path d="M14.7829 90.0858C14.7829 90.0858 18.127 91.7214 17.2999 96.1714C16.4734 100.621 16.1074 101.221 17.0321 102.959C17.9567 104.698 19.0481 112.115 18.2158 113.521C17.3836 114.927 7.9135 107.343 6.59982 100.98C5.28686 94.6173 7.43206 91.7871 8.19068 90.7333C8.9493 89.6787 11.8315 88.5874 14.7829 90.0858Z" fill="#0E2D3D"/>
<path d="M15.7109 106.149C15.7109 106.149 17.4122 106.495 18.3686 107.902C19.0334 108.88 19.0875 111.055 19.1835 111.464C19.2795 111.874 20.5492 116.508 20.5492 116.508L17.0037 118.884L15.7109 106.149Z" fill="#285173"/>
<path d="M28.8074 185.392C28.8074 185.392 31.1215 188.506 30.8039 189C30.487 189.495 28.0538 189.564 26.5727 189C25.0915 188.436 25.0562 184.786 24.3863 183.217C24.1055 182.56 24.7061 180.621 25.5499 180.481C26.3944 180.341 27.3118 180.754 27.3118 180.754C27.3118 180.754 26.4363 182.962 28.8074 185.392Z" fill="#1D3B54"/>
<path d="M27.329 180.729C27.329 180.729 27.8155 182.056 27.9938 183.322C28.141 184.373 29.6424 186.604 29.5717 186.885C29.5009 187.168 27.5968 187.423 26.8209 186.696C26.0449 185.969 25.5462 183.854 25.3751 182.589C25.2156 181.41 25.0156 180.829 25.0156 180.829C25.0156 180.829 26.5884 179.953 27.329 180.729Z" fill="#EEA886"/>
<path d="M8.66846 185.443C8.66846 185.443 10.8988 188.507 10.5812 189C10.2644 189.495 7.83044 189.564 6.35002 189C4.86888 188.437 4.83351 184.786 4.16367 183.217C3.88289 182.561 4.48343 180.622 5.32722 180.482C6.17101 180.341 7.16132 180.783 7.16132 180.783C7.16132 180.783 6.29661 183.015 8.66846 185.443Z" fill="#1D3B54"/>
<path d="M7.16356 180.783C7.16356 180.783 7.33968 182.23 7.62191 183.252C7.90413 184.275 9.41992 186.603 9.3499 186.884C9.27917 187.167 7.37505 187.422 6.59911 186.695C5.82317 185.967 5.22407 183.861 5.15334 182.588C5.0826 181.312 5.33018 180.482 5.33018 180.482C5.33018 180.482 6.42299 180.008 7.16356 180.783Z" fill="#EEA886"/>
<path d="M18.3105 130.072C18.3105 130.072 20.2962 139.309 20.7516 141.634C21.2078 143.96 22.4847 155.222 22.6211 157.137C22.7575 159.052 24.6934 166.269 24.6017 166.953C24.5108 167.637 27.4709 181.377 27.4709 181.377C27.4709 181.377 26.4597 182.19 25.3943 181.45C24.8464 181.07 18.8995 168.587 18.8995 165.167C18.8995 160.439 15.4038 154.269 14.9526 153.211C10.7626 143.387 11.5876 140.383 11.0405 139.744C10.4933 139.106 10.4457 140.139 10.1267 141.552C9.80762 142.965 9.12407 155.186 8.71337 156.737C8.30338 158.287 8.6217 163.531 8.39361 166.176C8.16552 168.82 7.16437 180.783 7.16437 180.783C7.16437 180.783 6.38916 181.998 5.3014 180.815C5.06753 180.56 3.42326 167.489 3.37779 164.342C3.33231 161.197 3.28395 156.857 3.19589 155.496C2.35138 142.458 0.27475 140.596 3.54525 131.368C9.66831 114.091 18.3105 130.072 18.3105 130.072Z" fill="#EEA886"/>
<path d="M4.97415 127.491C4.97415 127.491 -0.681912 135.407 1.75346 152.247C1.75346 152.247 15.1696 154.072 22.3574 150.136C22.3574 150.136 19.385 132.773 18.308 130.072C17.2311 127.369 4.97415 127.491 4.97415 127.491Z" fill="#1D3B54"/>
<path d="M24.3242 182.943V186.205H24.7479V183.683L24.3242 182.943Z" fill="#1D3B54"/>
<path d="M4.09766 182.943V186.205H4.52136V183.683L4.09766 182.943Z" fill="#1D3B54"/>
<path d="M12.5622 104.994C12.5622 104.994 14.646 105.979 15.37 106.123C16.0932 106.268 18.9011 109.915 19.3933 111.247C19.8856 112.578 19.3933 114.575 18.3799 116.919C17.3672 119.263 18.3222 120.045 17.8588 122.389C17.3954 124.734 16.9904 129.697 17.0771 131C17.1637 132.303 5.37011 132.549 2.6785 130.175C2.6785 130.175 5.38382 126.123 5.73101 125.544C6.0782 124.965 5.78948 121.81 5.47044 121C5.15212 120.189 3.03363 113.298 3.03363 113.298C3.03363 113.298 1.29985 108.005 2.86617 106.789C4.22677 105.731 7.93396 105.356 8.59946 105.124C9.26569 104.893 11.2016 104.792 12.5622 104.994Z" fill="#EDDAD3"/>
<path d="M13.2249 109.64L14.4909 108.156L13.3916 104.253C13.3916 104.253 13.022 106.427 13.2249 109.64Z" fill="#D6C5BE"/>
<path d="M13.5621 102.59C13.5621 102.59 13.5051 103.113 13.438 103.835C13.4091 104.155 13.3766 104.515 13.347 104.886C13.2618 105.939 13.1933 107.078 13.2337 107.658C13.2337 107.658 11.0683 109.829 8.60547 105.125C8.60547 105.125 9.64126 103.187 8.86171 100.545C8.08 97.9043 13.5621 102.59 13.5621 102.59Z" fill="#EEA886"/>
<path d="M13.2268 107.657V109.64L10.7344 107.777L13.2268 107.657Z" fill="#EEA886"/>
<path d="M13.2302 109.64L12.1951 108.36L8.70949 104.886L7.58203 105.972L13.2302 109.64Z" fill="#D6C5BE"/>
<path d="M8.22195 105.218C8.22195 105.218 11.1467 109.657 11.2867 111.61C11.4268 113.563 10.1997 128.178 9.21732 132.876C8.23494 137.573 1.13672 132.346 1.13672 132.346C1.13672 132.346 5.9064 124.626 4.07591 118.443C2.24469 112.262 1.57991 109.79 1.57991 109.79C1.57991 109.79 2.21004 106.347 4.44258 105.864C6.39939 105.439 8.22195 105.218 8.22195 105.218Z" fill="#285173"/>
<path d="M19.5864 111.839C19.5864 111.839 20.1141 113.706 18.0591 117.832C18.0591 117.832 18.0916 123.113 18.1493 124.763C18.2071 126.412 19.3735 132.346 19.3735 132.346L16.5649 133.84C16.1557 134.081 15.6483 133.747 15.706 133.277C16.2813 128.529 18.1544 110.521 14.1094 105.681L15.7327 106.159C15.7327 106.159 18.6163 108.518 19.5864 111.839Z" fill="#285173"/>
<path d="M14.4977 108.157L16.0929 108.598L13.3984 104.253L14.4977 108.157Z" fill="#FAE6DE"/>
<path d="M12.1921 108.36L10.7348 110.27L7.74219 105.282L8.70652 104.886L12.1921 108.36Z" fill="#FAE6DE"/>
<path d="M14.7343 115.761L14.3203 116.088L18.1897 120.984L18.6037 120.657L14.7343 115.761Z" fill="#EB4747"/>
<path d="M14.0602 120.425C14.0602 120.425 14.4297 120.431 14.673 120.248C15.0931 119.932 15.2439 119.151 15.9852 119.209C16.7258 119.265 17.0701 121.59 16.8846 122.03C16.6991 122.469 15.6698 122.69 14.149 122.386C12.6281 122.083 14.0602 120.425 14.0602 120.425Z" fill="#EEA886"/>
<path d="M15.7361 119.224C15.7361 119.224 16.8015 118.861 18.0315 118.596C19.1106 118.363 20.3997 118.286 20.5253 118.473C20.6646 118.682 19.4743 118.861 18.4169 119.162C17.4439 119.438 17.6756 119.538 17.6756 119.538C17.6756 119.538 17.6114 119.507 18.723 119.403C19.9175 119.292 21.1482 119.294 21.2695 119.533C21.3287 119.649 21.2868 119.728 20.8566 119.837C21.115 119.824 21.1518 119.891 21.1612 119.996C21.2125 120.534 19.47 120.963 18.7778 121.132C19.3105 121.004 19.7118 120.966 19.5205 121.327C19.3011 121.739 16.8145 122.238 15.9375 122.499C14.9811 122.782 15.7361 119.224 15.7361 119.224Z" fill="#EEA886"/>
<path d="M4.85677 105.942C4.12342 105.705 1.97244 106.468 1.60865 108.674C1.24486 110.879 1.09978 113.328 0.759808 114.516C0.42056 115.703 -0.444161 120.966 0.282696 121.403C1.01028 121.839 2.38748 122.238 4.31903 122.238C6.31409 122.238 14.0482 122.584 14.0482 122.584L14.5333 119.836C14.5333 119.836 11.5955 119.685 10.0733 119.454C8.71843 119.249 6.84029 118.672 4.6294 118.429C4.6294 118.429 5.09786 115.169 5.43783 114.249C5.77852 113.328 8.15397 107.009 4.85677 105.942Z" fill="#285173"/>
<path d="M19.0042 120.048L19.3665 120.933L18.5898 120.376L19.0042 120.048Z" fill="#EEA886"/>
<path d="M14.7461 124.657L22.5373 123.112L28.316 110.748L20.0001 111.621L14.7461 124.657Z" fill="#E8734D"/>
<path d="M23.5066 121.015C23.5066 121.015 23.9339 120.618 24.3143 120.063C24.6947 119.507 25.9398 117.388 25.8258 117.255C25.7117 117.122 23.8639 117.077 23.5283 117.379C23.1933 117.68 23.8581 117.799 23.8581 117.799C23.8581 117.799 22.8476 117.903 22.9198 118.188C22.992 118.474 23.6004 118.394 23.6004 118.394C23.6004 118.394 22.787 118.55 22.9097 118.801C23.0331 119.052 23.4243 119.048 23.4243 119.048C23.4243 119.048 22.704 119.139 22.7927 119.413C22.8822 119.686 24.022 119.944 23.8697 120.172C23.7174 120.399 23.5066 121.015 23.5066 121.015Z" fill="#EEA886"/>
<path d="M14.3023 90.579C14.3023 90.579 19.1579 92.1049 16.5219 100.484C13.8858 108.864 7.25533 99.5127 7.94898 94.4074C8.64191 89.3021 14.3023 90.579 14.3023 90.579Z" fill="#EEA987"/>
<path d="M17.0146 95.4684C17.0146 95.4684 14.6024 97.8359 10.5646 98.1318C10.5646 98.1318 9.01343 99.9515 8.89361 100.665C8.89361 100.665 5.29108 94.525 9.71935 90.8445C14.1476 87.1633 18.6423 93.9519 17.0146 95.4684Z" fill="#0E2D3D"/>
<path d="M10.6143 98.2977C10.5833 97.6878 10.208 96.2997 9.30138 96.6881C8.39479 97.0771 9.35695 99.903 9.95821 99.729C9.95821 99.729 10.6887 99.7406 10.6143 98.2977Z" fill="#EEA987"/>
<path d="M13.435 103.835C13.4061 104.154 13.3736 104.515 13.344 104.886C10.5369 103.5 10.106 101.501 10.0938 101.439C12.0931 104.024 13.435 103.835 13.435 103.835Z" fill="#A77860"/>
<path d="M94.3525 117.644C94.3525 117.644 93.7231 122.495 97.2289 126.22C100.734 129.945 108.638 128.616 108.638 128.616C108.638 128.616 107.331 124.213 104.465 122.4C101.6 120.586 95.9708 119.961 94.3525 117.644Z" fill="#869135"/>
<path d="M98.4373 108.443C98.4373 108.443 95.5479 113.883 98.0302 119.826C100.512 125.769 110.417 127.703 110.417 127.703C110.417 127.703 110.826 121.935 108.252 118.528C105.676 115.121 99.3179 111.892 98.4373 108.443Z" fill="#48753A"/>
<path d="M228.074 38.5122C228.074 38.5122 232.986 45.9641 228.842 49.9218C224.698 53.8794 224.21 49.4598 224.21 49.4598C224.21 49.4598 221.993 49.6056 226.4 44.5631C228.477 42.1869 228.074 38.5122 228.074 38.5122Z" fill="#BBD070"/>
<path d="M241.226 34.709C241.226 34.709 244.73 41.4766 236.484 47.8191C228.239 54.1616 228.278 58.5307 228.278 58.5307C228.278 58.5307 222.474 42.8444 241.226 34.709Z" fill="#97A43C"/>
<path d="M227.22 55.6451C224.086 55.5577 228.676 47.5998 233.78 45.9851C238.883 44.3698 242.96 45.041 246.065 43.0669C246.065 43.0669 242.651 56.0753 227.22 55.6451Z" fill="#48753A"/>
<path d="M102.702 30.291H102.043V109.168H102.702V30.291Z" fill="#78C2FF"/>
<path d="M108.161 87.0459H53.707V87.7056H108.161V87.0459Z" fill="#78C2FF"/>
<path d="M237.893 149.369H130.985C126.022 149.369 121.984 145.151 121.984 139.966V64.694C121.984 59.51 126.022 55.2925 130.985 55.2925H237.893C242.856 55.2925 246.893 59.51 246.893 64.694V139.966C246.893 145.151 242.856 149.369 237.893 149.369ZM130.985 56.0836C126.458 56.0836 122.775 59.9467 122.775 64.694V139.966C122.775 144.714 126.458 148.578 130.985 148.578H237.893C242.42 148.578 246.102 144.714 246.102 139.966V64.694C246.102 59.946 242.42 56.0836 237.893 56.0836H130.985Z" fill="#4DA8F2"/>
<path d="M201.508 115.864C201.238 115.864 200.972 115.863 200.707 115.861L200.711 115.07C201.876 115.077 203.09 115.069 204.267 115.046L204.282 115.837C203.366 115.855 202.432 115.864 201.508 115.864ZM197.136 115.799C195.943 115.764 194.741 115.714 193.568 115.649L193.611 114.859C194.778 114.923 195.972 114.973 197.16 115.009L197.136 115.799ZM207.857 115.724L207.821 114.934C209.011 114.88 210.205 114.811 211.37 114.728L211.427 115.518C210.254 115.601 209.053 115.671 207.857 115.724ZM190.003 115.408C187.764 115.225 186.45 115.053 186.438 115.051L186.541 114.266C186.555 114.267 187.852 114.438 190.068 114.619L190.003 115.408ZM214.992 115.212L214.913 114.425C216.099 114.306 217.287 114.169 218.443 114.018L218.546 114.802C217.382 114.955 216.186 115.092 214.992 115.212ZM222.084 114.28L221.956 113.5C223.135 113.305 224.309 113.092 225.448 112.862L225.604 113.637C224.457 113.869 223.272 114.086 222.084 114.28ZM229.093 112.865L228.907 112.096C230.068 111.815 231.221 111.509 232.332 111.19L232.552 111.95C231.429 112.273 230.267 112.581 229.093 112.865ZM235.969 110.877L235.715 110.129C236.847 109.742 237.966 109.33 239.039 108.899L239.334 109.634C238.247 110.069 237.116 110.487 235.969 110.877ZM242.626 108.205L242.29 107.489C243.371 106.98 244.432 106.439 245.442 105.882L245.824 106.574C244.799 107.14 243.722 107.689 242.626 108.205ZM248.906 104.727L248.474 104.064C249.472 103.415 250.441 102.729 251.354 102.026L251.836 102.653C250.907 103.369 249.921 104.067 248.906 104.727ZM254.584 100.344L254.049 99.7606C254.919 98.963 255.753 98.1228 256.529 97.2653L257.116 97.7966C256.323 98.6729 255.472 99.5296 254.584 100.344ZM259.395 95.0212L258.759 94.5499C259.456 93.6116 260.112 92.6292 260.711 91.6295L261.39 92.0359C260.778 93.0579 260.107 94.0627 259.395 95.0212ZM263.08 88.8679L262.364 88.5301C262.859 87.4827 263.311 86.3906 263.708 85.2841L264.453 85.5519C264.047 86.6822 263.584 87.7981 263.08 88.8679ZM265.511 82.1255L264.746 81.9255C265.037 80.8111 265.287 79.654 265.488 78.4869L266.269 78.6211C266.062 79.8106 265.808 80.9894 265.511 82.1255ZM266.743 75.0713L265.955 74.9955C266.064 73.85 266.137 72.6648 266.168 71.4731L266.959 71.494C266.927 72.7045 266.854 73.9077 266.743 75.0713ZM266.15 67.9377C266.109 66.7864 266.034 65.5983 265.926 64.4059L266.714 64.3344C266.824 65.5406 266.9 66.7438 266.94 67.9095L266.15 67.9377ZM265.518 60.8893C265.358 59.7467 265.165 58.5701 264.946 57.3929L265.723 57.2478C265.945 58.4359 266.139 59.6239 266.302 60.7788L265.518 60.8893ZM264.227 53.9217C264.129 53.4951 264.028 53.0627 263.924 52.6354C263.75 51.9129 263.558 51.1947 263.354 50.5011L264.113 50.278C264.321 50.9839 264.516 51.7144 264.694 52.4485C264.798 52.8794 264.901 53.3161 264.998 53.7456L264.227 53.9217ZM262.229 47.1721C261.805 46.0706 261.333 44.9886 260.824 43.9565L261.534 43.6071C262.053 44.6609 262.535 45.7646 262.967 46.8877L262.229 47.1721ZM19.0946 42.2999L18.375 41.9715C18.873 40.8787 19.3891 39.7931 19.9081 38.7458L20.6169 39.0973C20.1023 40.1367 19.5898 41.2143 19.0946 42.2999ZM259.126 40.8873C258.513 39.8941 257.843 38.9226 257.138 38.0009L257.766 37.5201C258.488 38.4628 259.171 39.456 259.799 40.4716L259.126 40.8873ZM22.2446 35.9473L21.5481 35.572C22.1183 34.5138 22.708 33.4665 23.3013 32.4581L23.9834 32.8594C23.3951 33.8591 22.8105 34.8978 22.2446 35.9473ZM254.87 35.3266C254.08 34.4842 253.233 33.6635 252.352 32.889L252.874 32.295C253.775 33.0868 254.64 33.9248 255.447 34.7859L254.87 35.3266ZM249.608 30.6919C248.68 30.0148 247.695 29.3572 246.68 28.7387L247.091 28.063C248.125 28.6939 249.128 29.363 250.074 30.0523L249.608 30.6919ZM25.8406 29.843L25.1758 29.4143C25.8262 28.4045 26.5004 27.4076 27.1767 26.4513L27.8227 26.9089C27.1521 27.8559 26.4852 28.8433 25.8406 29.843ZM243.602 27.0193C242.582 26.4974 241.508 25.9922 240.407 25.5172L240.72 24.7911C241.836 25.2725 242.927 25.7857 243.962 26.3156L243.602 27.0193ZM237.121 24.2122C236.044 23.8188 234.915 23.4392 233.767 23.0833L234 22.3276C235.161 22.687 236.303 23.071 237.393 23.4688L237.121 24.2122ZM29.9354 24.0693L29.3118 23.5821C30.0509 22.6365 30.816 21.7068 31.5847 20.819L32.1831 21.3373C31.4216 22.215 30.6659 23.1338 29.9354 24.0693ZM230.359 22.1096C229.249 21.818 228.09 21.5365 226.912 21.2723L227.085 20.5C228.273 20.7656 229.441 21.0493 230.56 21.3438L230.359 22.1096ZM223.436 20.5548C222.308 20.3397 221.13 20.1326 219.937 19.9399L220.065 19.1589C221.263 19.3538 222.449 19.5616 223.583 19.7774L223.436 20.5548ZM216.423 19.4137C215.287 19.257 214.1 19.1055 212.896 18.9633L212.989 18.1772C214.198 18.3194 215.389 18.4717 216.531 18.6291L216.423 19.4137ZM34.5687 18.7265L33.9992 18.1772C34.8321 17.3147 35.6925 16.4723 36.558 15.6725L37.095 16.2543C36.2411 17.0433 35.3908 17.8755 34.5687 18.7265ZM209.361 18.5778C208.223 18.463 207.031 18.3519 205.818 18.2465L205.888 17.4583C207.104 17.5637 208.299 17.6756 209.44 17.7903L209.361 18.5778ZM202.27 17.9607C201.142 17.8762 199.947 17.7918 198.719 17.7109L198.771 16.9213C200.001 17.0021 201.198 17.0866 202.33 17.1717L202.27 17.9607ZM195.166 17.4893C193.986 17.4193 192.804 17.3529 191.619 17.2894L191.662 16.499C192.847 16.5633 194.031 16.6297 195.211 16.6997L195.166 17.4893ZM188.065 17.1032C186.937 17.0454 185.806 16.9884 184.676 16.9314L184.507 16.9227L184.547 16.1323L184.716 16.141C185.846 16.198 186.977 16.255 188.106 16.3128L188.065 17.1032ZM180.941 16.743C179.75 16.6816 178.559 16.6195 177.371 16.5553L177.414 15.7649C178.603 15.8292 179.791 15.8913 180.982 15.9526L180.941 16.743ZM173.811 16.3546C172.556 16.2803 171.392 16.2081 170.251 16.1331L170.303 15.3434C171.442 15.4185 172.605 15.4914 173.857 15.565L173.811 16.3546ZM166.694 15.8826C165.472 15.7902 164.275 15.6942 163.137 15.596L163.205 14.8078C164.34 14.906 165.534 15.002 166.753 15.0937L166.694 15.8826ZM159.584 15.2647C158.372 15.1427 157.178 15.0135 156.035 14.88L156.127 14.094C157.267 14.2275 158.456 14.3567 159.662 14.4772L159.584 15.2647ZM152.492 14.431C151.287 14.2665 150.099 14.0896 148.96 13.907L149.085 13.126C150.218 13.3079 151.401 13.4826 152.6 13.6472L152.492 14.431ZM39.7606 13.9344L39.2597 13.3223C40.1836 12.5659 41.1393 11.8318 42.1 11.1403L42.5627 11.7827C41.6142 12.4634 40.6723 13.1881 39.7606 13.9344ZM145.439 13.2971C144.246 13.0733 143.068 12.8337 141.936 12.5854L142.106 11.8123C143.229 12.0592 144.399 12.2967 145.584 12.519L145.439 13.2971ZM138.459 11.7582C137.941 11.6254 137.422 11.4868 136.915 11.3468L135.018 10.8235L135.228 10.0605L137.125 10.5838C137.627 10.7224 138.143 10.8596 138.656 10.9916L138.459 11.7582ZM131.585 9.88151C130.442 9.56969 129.297 9.25859 128.15 8.95038L128.356 8.18599C129.504 8.49492 130.65 8.80602 131.794 9.11784L131.585 9.88151ZM45.4925 9.81077L45.0724 9.14021C46.0807 8.50791 47.1223 7.90087 48.1675 7.3357L48.5435 8.03152C47.5135 8.58876 46.4871 9.18713 45.4925 9.81077ZM124.711 8.03513C123.525 7.72331 122.366 7.42376 121.266 7.14298L121.461 6.37643C122.563 6.65721 123.725 6.9582 124.911 7.27002L124.711 8.03513ZM51.7036 6.45221L51.373 5.73329C52.4485 5.23741 53.5586 4.76896 54.6731 4.33805L54.9582 5.07645C53.8589 5.50088 52.7647 5.96355 51.7036 6.45221ZM117.814 6.28042C116.638 5.99242 115.474 5.71381 114.356 5.45323L114.535 4.68235C115.657 4.94364 116.823 5.22298 118.003 5.5117L117.814 6.28042ZM110.887 4.66719C109.709 4.40878 108.539 4.16048 107.409 3.93023L107.567 3.15501C108.701 3.38599 109.875 3.63501 111.057 3.89414L110.887 4.66719ZM58.2901 3.90641L58.0512 3.15212C59.1743 2.79555 60.3335 2.46497 61.4949 2.16975L61.6898 2.93702C60.5428 3.22791 59.3988 3.55417 58.2901 3.90641ZM103.92 3.24957C102.739 3.02942 101.561 2.82226 100.42 2.63314L100.55 1.85215C101.696 2.04271 102.878 2.25059 104.065 2.47146L103.92 3.24957ZM65.1422 2.16036L64.9899 1.3837C66.1426 1.15777 67.3314 0.956394 68.5224 0.786048L68.6343 1.56921C67.4563 1.73811 66.2819 1.9366 65.1422 2.16036ZM96.9095 2.08818C95.7214 1.91784 94.5362 1.76193 93.3885 1.62551L93.4817 0.83946C94.6365 0.976603 95.8275 1.13324 97.0221 1.30503L96.9095 2.08818ZM89.8582 1.2545C88.6658 1.14623 87.4748 1.05528 86.3192 0.985267L86.3668 0.195612C87.5304 0.266349 88.7293 0.358017 89.9296 0.46701L89.8582 1.2545ZM72.1531 1.15345L72.0787 0.365958C73.2437 0.256243 74.4441 0.169624 75.6466 0.109715L75.6863 0.900091C74.496 0.959279 73.3072 1.04446 72.1531 1.15345ZM82.7751 0.827912C81.883 0.803371 80.9879 0.791098 80.1167 0.791098C79.8208 0.791098 79.5248 0.792545 79.2296 0.795432L79.2224 0.00433396C79.5198 0.00144674 79.8186 0 80.1167 0C80.9959 0 81.8974 0.0122725 82.7968 0.0368138L82.7751 0.827912Z" fill="#C2BEBC"/>
<path d="M259.143 38.0745C258.599 35.9711 257.766 33.9847 256.689 32.1593L259.187 28.4023L255.722 24.9369L252.257 21.4715L248.5 23.969C246.673 22.8921 244.688 22.0591 242.584 21.5156L241.695 17.0967H236.794H231.894L231.004 21.5156C228.902 22.0591 226.915 22.8928 225.089 23.969L221.333 21.4715L217.868 24.9369L214.402 28.4023L216.9 32.1593C215.823 33.9855 214.99 35.9719 214.446 38.0745L210.027 38.9638V43.8648V48.7659L214.446 49.6551C214.99 51.7585 215.823 53.7449 216.9 55.5703L214.402 59.3273L217.868 62.7927L221.333 66.2581L225.089 63.7599C226.915 64.8361 228.902 65.6698 231.004 66.2133L231.894 70.6322H236.794H241.695L242.584 66.2133C244.688 65.6705 246.673 64.8361 248.5 63.7599L252.257 66.2581L255.722 62.7927L259.187 59.3273L256.689 55.5703C257.766 53.7449 258.6 51.7585 259.143 49.6551L263.561 48.7659V43.8648V38.9638L259.143 38.0745ZM236.793 61.0373C227.31 61.0373 219.622 53.3493 219.622 43.8648C219.622 34.3803 227.31 26.6924 236.793 26.6924C246.279 26.6924 253.966 34.3803 253.966 43.8648C253.966 53.3493 246.279 61.0373 236.793 61.0373Z" fill="#73C0FF"/>
<path d="M236.792 54.9945V130.266C236.792 135.24 232.76 139.273 227.786 139.273H115.871C110.896 139.273 106.863 135.24 106.863 130.266V54.9945C106.863 50.0198 110.896 45.9878 115.871 45.9878H227.786C232.76 45.9885 236.792 50.0198 236.792 54.9945Z" fill="#DAE8F5"/>
<path d="M167.124 69.545C163.134 58.3874 152.47 51.5338 141.231 51.8723C138.51 51.9539 135.756 52.4577 133.052 53.4235C124.866 56.3519 118.996 62.8726 116.584 70.5757C114.913 75.9142 114.902 81.8215 116.932 87.4956C117.133 88.0593 117.353 88.6151 117.588 89.1572C118.655 91.6149 120.056 93.8381 121.719 95.792C128.693 103.992 140.267 107.457 151.003 103.618C164.864 98.6597 172.081 83.4051 167.124 69.545ZM148.757 97.3352C140.709 100.214 132.032 97.616 126.802 91.4691C125.555 90.0038 124.504 88.3372 123.705 86.4937C123.528 86.0866 123.364 85.6708 123.212 85.2479C121.691 80.9943 121.699 76.5653 122.952 72.5636C124.76 66.787 129.161 61.8982 135.299 59.7039C137.325 58.9792 139.39 58.6024 141.43 58.5396C149.855 58.2849 157.851 63.4241 160.843 71.7898C164.56 82.1824 159.149 93.6186 148.757 97.3352Z" fill="#78C2FF"/>
<path d="M122.954 72.5645L116.586 70.576C118.997 62.8729 124.868 56.3514 133.054 53.4237C135.757 52.4572 138.511 51.9541 141.233 51.8726L141.431 58.5406C139.391 58.6027 137.326 58.9802 135.3 59.7049C129.163 61.8984 124.762 66.7879 122.954 72.5645Z" fill="#1A598C"/>
<path d="M123.705 86.4946L117.588 89.1566C117.352 88.6145 117.133 88.0595 116.932 87.495C114.902 81.8209 114.913 75.9144 116.584 70.5752L122.952 72.5638C121.699 76.5654 121.691 80.9944 123.212 85.248C123.364 85.6717 123.529 86.0875 123.705 86.4946Z" fill="#2273B5"/>
<path d="M121.721 95.7915C120.058 93.8376 118.657 91.6144 117.59 89.1566L123.707 86.4946C124.506 88.3374 125.557 90.0048 126.804 91.47L121.721 95.7915Z" fill="#4DA8F2"/>
<path d="M123.375 134.118C128.803 136.686 135.08 135.321 138.986 131.173C139.931 130.168 140.738 129.001 141.361 127.686C143.244 123.703 143.012 119.263 141.115 115.639C139.801 113.127 137.689 111.006 134.928 109.7C134.653 109.57 134.376 109.449 134.098 109.339C132.835 108.841 131.536 108.547 130.24 108.443C124.802 108.004 119.413 110.909 116.942 116.132C113.751 122.875 116.631 130.928 123.375 134.118ZM119.997 117.578C121.85 113.662 125.89 111.484 129.967 111.813C130.938 111.891 131.913 112.111 132.859 112.486C133.068 112.568 133.276 112.658 133.482 112.756C135.551 113.735 137.136 115.325 138.12 117.209C139.542 119.926 139.718 123.255 138.304 126.24C137.838 127.226 137.233 128.102 136.524 128.856C133.596 131.966 128.889 132.99 124.82 131.064C119.765 128.671 117.605 122.634 119.997 117.578Z" fill="#6EB2EB"/>
<path d="M138.123 117.209L141.117 115.639C143.014 119.263 143.247 123.705 141.363 127.687C140.741 129.001 139.934 130.168 138.988 131.173L136.527 128.855C137.236 128.102 137.841 127.226 138.307 126.24C139.721 123.256 139.545 119.926 138.123 117.209Z" fill="#1A598C"/>
<path d="M132.859 112.487L134.097 109.34C134.376 109.45 134.653 109.571 134.927 109.701C137.688 111.007 139.8 113.128 141.115 115.64L138.121 117.209C137.135 115.326 135.552 113.735 133.482 112.757C133.277 112.658 133.069 112.568 132.859 112.487Z" fill="#2273B5"/>
<path d="M130.241 108.443C131.537 108.548 132.836 108.843 134.099 109.34L132.861 112.486C131.915 112.111 130.94 111.891 129.969 111.813L130.241 108.443Z" fill="#4DA8F2"/>
<path d="M236.794 54.9942V130.265C236.794 135.24 232.761 139.273 227.787 139.273H178.238V45.9883H227.787C232.762 45.9883 236.794 50.0196 236.794 54.9942Z" fill="#4DA8F2"/>
<path d="M228.098 60.4078H186.941C186.293 60.4078 185.766 59.8816 185.766 59.2327V56.8421C185.766 56.1932 186.292 55.667 186.941 55.667H228.098C228.747 55.667 229.273 56.1932 229.273 56.8421V59.2327C229.273 59.8823 228.747 60.4078 228.098 60.4078Z" fill="#E3F2FF"/>
<path d="M228.098 70.5758H186.941C186.293 70.5758 185.766 70.0496 185.766 69.4007V67.0101C185.766 66.3611 186.292 65.835 186.941 65.835H228.098C228.747 65.835 229.273 66.3611 229.273 67.0101V69.4007C229.273 70.0496 228.747 70.5758 228.098 70.5758Z" fill="#73C0FF"/>
<path d="M225.322 131.097H189.717C187.535 131.097 185.766 129.328 185.766 127.145V81.4458C185.766 79.2638 187.534 77.4946 189.717 77.4946H225.322C227.503 77.4946 229.273 79.2638 229.273 81.4458V127.145C229.273 129.328 227.503 131.097 225.322 131.097Z" fill="#73C0FF"/>
<g opacity="0.58">
<path d="M193.522 114.942H187.787C185.104 114.942 182.93 112.768 182.93 110.086V80.0728C182.93 77.3906 185.104 75.2158 187.787 75.2158H193.522C196.204 75.2158 198.378 77.3899 198.378 80.0728V110.086C198.379 112.768 196.204 114.942 193.522 114.942Z" fill="#E0F1FF"/>
</g>
<path d="M181.612 41.6782H82.3203V42.338H181.612V41.6782Z" fill="#78C2FF"/>
<path d="M92.264 36.2255C89.3291 36.2255 86.9414 33.8378 86.9414 30.9036C86.9414 27.9688 89.3291 25.5811 92.264 25.5811C95.1981 25.5811 97.5859 27.9688 97.5859 30.9036C97.5859 33.8378 95.1981 36.2255 92.264 36.2255ZM92.264 26.3729C89.7651 26.3729 87.7332 28.4048 87.7332 30.9036C87.7332 33.4018 89.7658 35.4344 92.264 35.4344C94.7622 35.4344 96.7948 33.4018 96.7948 30.9036C96.794 28.4048 94.7622 26.3729 92.264 26.3729Z" fill="#4DA8F2"/>
<path d="M78.0059 96.8707C78.0059 96.8707 82.977 97.7585 83.021 101.969C83.065 106.179 79.2135 112.276 76.7095 111.825C74.2063 111.374 71.3588 109.151 71.4555 106.591C71.5522 104.03 72.2618 100.665 73.4159 98.8181C74.5701 96.9718 76.6164 96.7798 78.0059 96.8707Z" fill="#EEA886"/>
<path d="M71.6256 104.641C71.6256 104.641 71.635 105.5 73.345 106.181C75.0549 106.862 78.1962 105.909 78.9844 106.067C79.7734 106.225 80.0065 105.844 80.0065 105.844L80.0621 106.684L80.7305 107.138C80.7305 107.138 81.1989 104.901 82.6036 104.707C84.0075 104.512 85.1782 98.0918 79.1216 96.877C79.1216 96.877 74.6384 95.6586 73.4814 97.9345C72.3251 100.21 71.4091 103.039 71.6256 104.641Z" fill="#E8734D"/>
<g opacity="0.82">
<path d="M108.669 177.84H69.7165C66.5059 177.84 63.9023 175.236 63.9023 172.026V133.073C63.9023 129.863 66.5052 127.259 69.7165 127.259H108.669C111.879 127.259 114.482 129.862 114.482 133.073V172.026C114.482 175.236 111.879 177.84 108.669 177.84Z" fill="#87C9FF"/>
</g>
<path d="M110.569 51.0554V79.3371C110.569 82.1355 108.301 84.4042 105.502 84.4042H65.0554C62.2569 84.4042 59.9883 82.1355 59.9883 79.3371V51.0554C59.9883 48.2562 62.2569 45.9883 65.0554 45.9883H105.502C108.301 45.9883 110.569 48.2562 110.569 51.0554Z" fill="#E3F2FF"/>
<path d="M109.431 140.135H92.1607C91.5046 140.135 90.9727 139.603 90.9727 138.946V135.882C90.9727 135.226 91.5046 134.693 92.1607 134.693H109.431C110.087 134.693 110.619 135.225 110.619 135.882V138.946C110.62 139.603 110.087 140.135 109.431 140.135Z" fill="#E3F2FF"/>
<path d="M107.884 171.736H93.7083C92.1976 171.736 90.9727 170.512 90.9727 169.001V145.636C90.9727 144.125 92.1976 142.9 93.7083 142.9H107.884C109.395 142.9 110.619 144.125 110.619 145.636V169.001C110.62 170.511 109.395 171.736 107.884 171.736Z" fill="#E3F2FF"/>
<path d="M75.2725 150.035C76.1459 150.331 77.0814 150.497 78.0551 150.509C81.0037 150.547 83.6404 149.169 85.3186 147.007C86.4814 145.508 87.1838 143.632 87.209 141.588C87.2119 141.385 87.2076 141.182 87.1975 140.983C87.1491 140.075 86.9665 139.203 86.6691 138.384C85.4226 134.953 82.1549 132.483 78.289 132.433C76.2051 132.406 74.2786 133.085 72.7347 134.25C70.5779 135.877 69.1704 138.446 69.1336 141.355C69.0816 145.373 71.6606 148.813 75.2725 150.035ZM71.3943 141.385C71.4217 139.219 72.4633 137.304 74.0606 136.084C75.2242 135.195 76.6815 134.676 78.2586 134.695C81.1574 134.732 83.6072 136.584 84.5427 139.158L84.5441 139.162C84.7664 139.774 84.9028 140.426 84.9389 141.105C84.9469 141.255 84.949 141.406 84.9476 141.559C84.9281 143.091 84.4005 144.496 83.53 145.621C82.2719 147.243 80.2956 148.277 78.0847 148.248C77.3542 148.238 76.6533 148.114 75.9972 147.892C73.2905 146.977 71.356 144.399 71.3943 141.385Z" fill="#E3F2FF"/>
<path d="M83.5302 145.621L85.3188 147.006C83.6413 149.169 81.0046 150.547 78.056 150.509C77.0823 150.496 76.1475 150.33 75.2734 150.035L75.9988 147.891C76.6542 148.114 77.3551 148.237 78.0856 148.247C80.2958 148.276 82.2728 147.243 83.5302 145.621Z" fill="#1A598C"/>
<path d="M84.9356 141.105L87.1948 140.982C87.2057 141.182 87.2093 141.385 87.2071 141.589C87.1804 143.631 86.4788 145.508 85.316 147.007L83.5273 145.621C84.3993 144.498 84.9255 143.091 84.945 141.56C84.9464 141.407 84.9435 141.255 84.9356 141.105Z" fill="#2273B5"/>
<path d="M84.9353 141.105C84.8985 140.426 84.7621 139.773 84.5405 139.161L84.5391 139.158L86.6655 138.385C86.9629 139.203 87.1455 140.075 87.1939 140.983L84.9353 141.105Z" fill="#2273B5"/>
<path d="M72.7344 134.251C74.2783 133.086 76.2048 132.406 78.2887 132.433C82.1547 132.484 85.4223 134.954 86.6688 138.385L84.5438 139.161L84.5424 139.158C83.6076 136.584 81.1578 134.732 78.2583 134.695C76.6812 134.675 75.2239 135.195 74.0603 136.084L72.7344 134.251Z" fill="#4DA8F2"/>
<path d="M11.5742 63.1051L22.4699 46.082L16.9358 48.591L11.5742 63.1051Z" fill="#D6D6D6"/>
<path d="M11.5742 63.1055L12.2397 52.8457L16.1974 50.5894L11.5742 63.1055Z" fill="#E8E8E8"/>
<path d="M19.9638 49.9971L21.3244 51.79L11.5742 63.105L19.9638 49.9971Z" fill="#C2C2C2"/>
<path d="M87.2669 129.856C87.2669 129.856 87.7541 129.793 88.0378 129.504C88.5272 129.005 88.5727 127.951 89.5579 127.879C90.5432 127.808 91.4527 130.796 91.2953 131.411C91.1379 132.025 89.8286 132.518 87.7693 132.419C85.7107 132.318 87.2669 129.856 87.2669 129.856Z" fill="#EEA886"/>
<path d="M89.2307 127.95C89.2307 127.95 90.5596 127.264 92.1237 126.672C93.4959 126.153 95.1928 125.784 95.3769 126.02C95.7862 126.545 94.1859 126.914 92.8556 127.516C91.6307 128.072 91.8415 127.983 91.8415 127.983C91.8415 127.983 91.7513 127.952 93.1913 127.598C94.7403 127.216 96.3578 126.977 96.5643 127.267C96.6646 127.407 96.8458 127.9 96.1954 127.88C96.5332 127.813 96.4805 127.762 96.5137 127.896C96.687 128.593 94.4804 129.5 93.6041 129.859C94.279 129.587 94.7995 129.457 94.6183 129.968C94.4111 130.554 91.241 131.699 90.1388 132.215C88.9377 132.776 89.2307 127.95 89.2307 127.95Z" fill="#EEA886"/>
<path d="M65.6857 109.269C65.6857 109.269 62.579 109.043 60.3869 109.269C58.1948 109.492 55.1654 111.287 53.332 111.805C51.4986 112.323 47.0747 115.296 47.1938 115.703C47.3136 116.109 49.0271 120.948 52.1959 124.878C54.9084 128.242 65.6857 109.269 65.6857 109.269Z" fill="#D4D8E8"/>
<path d="M58.9807 111.218C58.9807 111.218 55.6315 113.698 54.4658 115.97C53.3001 118.241 52.9023 120.948 52.9023 120.948L58.9807 111.218Z" fill="#A9ADBA"/>
<path d="M61.5169 185.053C61.5169 185.053 62.474 186.069 63.0269 186.338C63.5798 186.607 70.1865 187.744 70.6347 188.281C71.083 188.819 71.0829 190.941 69.3788 190.941C67.6753 190.941 61.9954 190.911 61.0383 190.941C60.0819 190.971 56.0413 191.778 55.6248 190.941C55.209 190.105 55.2473 186.198 55.9864 185.262C56.7255 184.326 61.5169 185.053 61.5169 185.053Z" fill="#1C4154"/>
<path d="M61.3152 183.866L61.5187 185.052C61.5187 185.052 59.7554 185.859 55.9883 185.262V184.036L61.3152 183.866Z" fill="#2A617D"/>
<path d="M21.1965 181.765C21.1965 181.765 20.4567 182.624 20.0907 183.737C19.8569 184.45 18.7453 187.774 19.2238 188.58C19.7024 189.388 23.4688 189.507 25.352 189.208C27.2352 188.909 31.3307 189.536 31.7493 188.73C32.168 187.923 32.4069 186.745 31.1813 186.287C29.9556 185.83 27.1456 184.634 26.6375 183.379C26.1286 182.123 21.1965 181.765 21.1965 181.765Z" fill="#1C4154"/>
<path d="M27.1589 182.034L26.6363 183.379C26.6363 183.379 21.2401 182.974 21.1953 181.765L22.8995 179.283L27.1589 182.034Z" fill="#2A617D"/>
<path d="M71.458 106.978C71.458 106.978 68.4503 109.532 67.5942 109.323C66.7381 109.115 70.5435 114.727 70.5435 114.727C70.5435 114.727 74.167 111.16 74.9833 111.052C75.7997 110.944 71.458 106.978 71.458 106.978Z" fill="#EEA886"/>
<path d="M71.6679 117.065C70.6437 117.684 70.4719 117.883 70.5917 120.812C70.7108 123.742 71.927 126.103 72.0165 126.91C72.106 127.717 73.733 135.723 74.182 136.172C74.6302 136.62 79.9896 135.575 81.0738 135.24C82.6964 134.737 89.5636 132.411 89.5636 132.411L88.0529 129.261C88.0529 129.261 79.384 131.195 79.1047 130.517C78.826 129.84 78.1468 124.149 77.9079 122.913C77.669 121.678 78.0855 119.736 76.6094 116.805C75.287 114.181 71.6679 117.065 71.6679 117.065Z" fill="#D4D8E8"/>
<path d="M61.5033 139.107C61.5033 139.107 63.3403 141.062 63.855 141.698C67.3745 146.047 72.1651 154.034 72.7628 155.429C73.3611 156.823 69.8012 166.689 68.3388 170.135C67.5715 171.943 62.4994 184.395 62.6589 184.674C62.8185 184.953 57.293 185.137 54.8223 183.862C54.8223 183.862 58.375 173.335 59.1235 171.271C60.2539 168.155 64.1733 159.522 64.2931 158.685C64.4122 157.847 57.9571 150.945 55.8047 149.63C53.6523 148.314 48.391 143.651 47.7934 143.053C47.1957 142.456 43.8076 140.861 44.1266 137.832C44.4456 134.803 46.6977 132.412 46.6977 132.412L61.5033 139.107Z" fill="#326EA0"/>
<path d="M51.8408 146.601C51.8408 146.601 51.5044 147.486 51.0323 148.726C50.0182 151.388 48.3804 155.686 48.1076 156.365C47.7091 157.362 45.7162 161.667 44.7591 162.504C43.8027 163.341 28.0595 182.233 28.019 182.393C27.9801 182.552 22.1205 179.522 21.7617 178.367C21.7617 178.367 30.2906 167.246 31.6064 165.613C32.9215 163.978 35.6716 161.548 36.589 157.681C37.5064 153.814 44.0799 138.948 44.1008 138.389C44.1008 138.389 45.159 133.806 46.6928 132.411C48.2267 131.015 53.8077 132.65 54.684 135.559C55.5617 138.47 51.8408 146.601 51.8408 146.601Z" fill="#326EA0"/>
<path d="M67.3281 109.297L68.5985 108.796C68.5985 108.796 71.8069 109.533 73.6605 112.104L73.501 112.873C73.501 112.873 68.6086 111.811 67.3281 109.297Z" fill="#D4D8E8"/>
<path d="M72.2214 128.012C71.9637 128.371 71.7551 128.627 71.6223 128.745C71.5313 128.823 71.4216 128.915 71.2946 129.018C71.2939 129.02 71.2924 129.02 71.2924 129.02L71.1719 124.198C71.1719 124.198 71.7768 126.056 71.8663 126.331C71.9572 126.608 72.2214 128.012 72.2214 128.012Z" fill="#A9ADBA"/>
<path d="M51.8407 146.601C51.8407 146.601 51.5043 147.486 51.0323 148.726C49.9611 147.492 47.5156 142.832 47.5156 142.832C47.6751 142.946 48.1869 143.426 48.3053 143.532C48.4222 143.641 51.8407 146.601 51.8407 146.601Z" fill="#215B8A"/>
<path d="M79.2209 105.688C79.3343 105.323 79.0607 103.927 78.17 104.721C77.2793 105.516 77.2829 107.297 77.7853 107.442C78.2891 107.588 78.9351 106.614 79.2209 105.688Z" fill="#EEA886"/>
<path d="M75.892 97.8505C75.892 97.8505 71.5778 94.7828 71.5547 105.242L75.892 97.8505Z" fill="#E8734D"/>
<path d="M72.2255 128.012C71.9679 128.371 71.7593 128.627 71.6264 128.745C71.5355 128.823 71.4258 128.915 71.2987 129.018C71.298 129.02 71.2966 129.02 71.2966 129.02C70.0789 129.994 67.3483 131.886 66.0866 132.571C64.6913 133.33 62.0459 139.711 62.0459 139.711C62.0459 139.711 49.5652 138.869 46.6953 132.413C46.6953 132.413 48.7279 127.869 50.5815 125.178C52.4344 122.488 56.5003 112.802 58.6527 111.427C60.8051 110.052 62.6587 109.155 66.9037 109.275C71.1486 109.395 73.5002 112.763 73.5002 112.763C73.5002 112.763 76.7289 116.231 77.0472 118.064C77.3222 119.64 73.8171 125.794 72.2255 128.012Z" fill="#D4D8E8"/>
<path d="M110.567 51.0554L110.479 53.8682H59.8984L59.9865 51.0554C59.9865 48.2562 62.2551 45.9883 65.0536 45.9883H105.501C108.298 45.9883 110.567 48.2562 110.567 51.0554Z" fill="#4DA8F2"/>
<path d="M75.8545 81.1678H65.6778C64.3627 81.1678 63.293 80.0981 63.293 78.783V58.4952C63.293 57.1801 64.3627 56.1104 65.6778 56.1104H75.8545C77.1697 56.1104 78.2394 57.1801 78.2394 58.4952V78.783C78.2401 80.0981 77.1697 81.1678 75.8545 81.1678ZM65.6778 56.9015C64.7987 56.9015 64.0841 57.616 64.0841 58.4952V78.783C64.0841 79.6614 64.7987 80.3767 65.6778 80.3767H75.8545C76.733 80.3767 77.4483 79.6621 77.4483 78.783V58.4952C77.4483 57.6168 76.733 56.9015 75.8545 56.9015H65.6778Z" fill="#78C2FF"/>
<path d="M105.976 58.6154H81.73C81.2919 58.6154 80.9375 58.261 80.9375 57.8229V57.2974C80.9375 56.86 81.2919 56.5049 81.73 56.5049H105.976C106.414 56.5049 106.769 56.86 106.769 57.2974V57.8229C106.769 58.261 106.414 58.6154 105.976 58.6154Z" fill="#78C2FF"/>
<path d="M105.976 62.9021H81.73C81.2919 62.9021 80.9375 62.5477 80.9375 62.1095V61.5841C80.9375 61.1466 81.2919 60.7915 81.73 60.7915H105.976C106.414 60.7915 106.769 61.1466 106.769 61.5841V62.1095C106.769 62.5477 106.414 62.9021 105.976 62.9021Z" fill="#78C2FF"/>
<path d="M164.847 116.345H148.834C148.156 116.345 147.609 115.796 147.609 115.12V112.647C147.609 111.97 148.157 111.422 148.834 111.422H164.847C165.524 111.422 166.072 111.97 166.072 112.647V115.12C166.072 115.797 165.523 116.345 164.847 116.345Z" fill="#6EB2EB"/>
<path d="M164.847 124.371H148.834C148.156 124.371 147.609 123.823 147.609 123.147V120.674C147.609 119.997 148.157 119.449 148.834 119.449H164.847C165.524 119.449 166.072 119.997 166.072 120.674V123.147C166.072 123.823 165.523 124.371 164.847 124.371Z" fill="#4DA8F2"/>
<path d="M164.847 132.397H148.834C148.156 132.397 147.609 131.849 147.609 131.172V128.7C147.609 128.022 148.157 127.475 148.834 127.475H164.847C165.524 127.475 166.072 128.023 166.072 128.7V131.172C166.072 131.849 165.523 132.397 164.847 132.397Z" fill="#2273B5"/>
<path d="M68.0833 50.2638C68.0833 51.4779 67.0988 52.4617 65.8854 52.4617C64.6713 52.4617 63.6875 51.4779 63.6875 50.2638C63.6875 49.0497 64.6713 48.0659 65.8854 48.0659C67.0988 48.0659 68.0833 49.0497 68.0833 50.2638Z" fill="#E3F2FF"/>
<path d="M233.422 126.246C233.422 126.246 242.358 129.13 244.42 128.623C245.511 128.353 247.216 126.807 248.8 125.14C249.061 124.863 249.32 124.583 249.573 124.307C251.32 122.385 252.747 120.554 252.747 120.554C252.747 120.554 257.075 115.481 253.603 113.221C253.603 113.221 252.07 113.365 250.912 114.606C249.753 115.847 248.668 117.824 248.365 118.486C248.062 119.148 243.811 125.279 243.59 125.417C243.37 125.554 241.513 125.067 240.024 124.943C237.595 124.741 233.962 123.503 233.962 123.503L233.422 126.246Z" fill="#2273B5"/>
<path d="M245.705 181.298C245.705 181.298 244.568 183.332 243.891 183.745C243.05 184.258 241.416 185.905 240.845 185.982C240.275 186.058 238.224 186.422 238.621 187.58C238.945 188.529 243.837 188.392 244.388 187.917C244.94 187.442 246.589 185.735 247.256 185.773C247.922 185.811 247.674 188.234 247.674 188.234H248.397C248.397 188.234 248.65 185.876 248.68 185.471C248.77 184.271 247.915 183.387 247.877 182.703C247.838 182.019 247.8 181.508 247.8 181.508L245.705 181.298Z" fill="#16202E"/>
<path d="M241.012 185.926C241.012 185.926 242.624 186.482 243.865 185.769C245.106 185.056 247.487 183.973 248.33 183.966C248.33 183.966 247.87 182.561 247.862 182.404C247.852 182.246 247.802 181.507 247.802 181.507L245.719 181.173C245.719 181.173 244.369 183.156 243.773 183.623C243.178 184.09 241.653 185.254 241.012 185.926Z" fill="#EEA886"/>
<path d="M265.367 183.211C265.367 183.211 265.166 184.619 264.946 185.002C264.727 185.386 264.123 187.343 263.849 187.708C263.575 188.074 262.971 190.817 263.849 191.145C264.727 191.474 266.793 192.023 267.487 190.926C268.182 189.828 268.273 188.732 268.164 187.891C268.054 187.05 267.22 183.19 267.231 182.808C267.243 182.427 265.367 183.211 265.367 183.211Z" fill="#EEA886"/>
<path d="M264.196 186.949C264.196 186.949 264.101 189.079 265.71 189.079C267.32 189.079 268.032 187.141 268.032 187.141C268.032 187.141 268.581 188.092 268.032 190.121C267.484 192.151 265.198 191.73 264.687 191.657C264.175 191.585 261.749 190.942 264.196 186.949Z" fill="#16202E"/>
<path d="M262.713 134.674C262.713 134.674 264.793 137.324 265.527 139.077C266.26 140.829 267.484 144.674 267.32 147.65C267.157 150.626 266.179 156.213 266.464 157.477C266.75 158.741 267.035 161.35 267.341 162.247C267.647 163.144 268.87 165.754 268.993 168.445C269.115 171.136 268.122 182.941 268.203 184.042C268.285 185.142 264.64 184.47 264.64 184.47C264.64 184.47 264.547 173.828 264.14 171.993C263.732 170.158 263.243 163.918 262.876 163.47C262.509 163.022 261.479 158.291 261.413 157.519C261.349 156.772 256.986 143.84 256.742 141.638C256.497 139.436 251.035 134.673 251.035 134.673C251.035 134.673 256.393 132.624 262.713 134.674Z" fill="#1A598C"/>
<path d="M249.162 181.881C249.938 181.759 252.013 169.832 251.768 167.711C251.523 165.591 251.279 161.071 251.972 159.233C252.427 158.027 255.269 151.891 257.182 147.582C257.451 146.974 257.703 146.403 257.926 145.886C258.533 144.485 258.933 143.491 258.944 143.286C258.986 142.47 261.644 128.423 251.14 134.672C251.14 134.672 251.034 135.783 250.912 136.19C250.789 136.597 247.976 146.996 247.691 150.992C247.405 154.988 246.671 158.377 246.549 159.231C246.426 160.085 246.671 162.94 246.915 163.673C247.16 164.408 245.324 180.979 245.202 181.387C245.081 181.797 248.389 182.003 249.162 181.881Z" fill="#1A598C"/>
<path d="M255.262 112.478C255.262 112.478 253.274 113.416 252.584 113.554C251.894 113.691 249.216 117.17 248.746 118.439C248.277 119.708 248.745 121.612 249.711 123.849C250.677 126.085 249.765 126.83 250.206 129.066C250.647 131.301 251.034 136.035 250.95 137.277C250.867 138.519 262.114 138.757 264.681 136.494C264.681 136.494 262.102 132.629 261.771 132.077C261.44 131.524 261.717 128.516 262.021 127.743C262.325 126.97 264.476 120.586 264.476 120.586C264.476 120.586 266.001 115.351 264.507 114.191C263.21 113.183 259.675 112.823 259.041 112.603C258.405 112.382 256.558 112.285 255.262 112.478Z" fill="#EDDAD3"/>
<path d="M254.625 116.909L253.418 115.495L254.467 111.771C254.467 111.771 254.819 113.845 254.625 116.909Z" fill="#D6C5BE"/>
<path d="M254.312 110.184C254.312 110.184 254.708 113.831 254.626 115.018C254.626 115.018 256.689 117.088 259.04 112.603C259.04 112.603 258.052 110.755 258.796 108.235C259.541 105.717 254.312 110.184 254.312 110.184Z" fill="#EEA886"/>
<path d="M254.626 115.019L254.625 116.909L257.003 115.134L254.626 115.019Z" fill="#EEA886"/>
<path d="M254.625 116.908L255.612 115.687L258.936 112.375L260.013 113.411L254.625 116.908Z" fill="#D6C5BE"/>
<path d="M258.439 139.069C259.375 143.549 266.145 138.565 266.145 138.565C266.145 138.565 261.756 131.188 263.503 125.293C263.516 125.246 263.53 125.2 263.545 125.153C263.656 124.781 263.768 124.427 263.879 124.089C263.898 124.029 263.919 123.967 263.938 123.908C264.319 122.75 264.631 121.791 264.884 121.002V121.002C265.664 118.576 265.89 117.776 265.89 117.776C265.89 117.776 265.556 113.999 263.691 113.584C261.818 113.169 259.84 112.777 259.84 112.777C259.84 112.777 256.606 116.924 256.472 118.788C256.337 120.65 257.503 134.588 258.439 139.069Z" fill="#2273B5"/>
<path d="M248.469 119.297C248.469 119.297 248.259 121.865 250.023 125.238C250.023 125.238 249.985 129.755 249.93 131.329C249.874 132.903 249.499 138.851 249.499 138.851L251.438 139.987C251.829 140.215 252.312 139.899 252.257 139.449C251.71 134.922 249.928 117.747 253.787 113.131L252.068 113.724C252.068 113.724 248.469 117.5 248.469 119.297Z" fill="#2273B5"/>
<path d="M253.421 115.495L251.898 115.914L254.47 111.771L253.421 115.495Z" fill="#FAE6DE"/>
<path d="M255.609 115.687L256.999 117.509L259.839 112.777L258.933 112.375L255.609 115.687Z" fill="#FAE6DE"/>
<path d="M255.749 98.417C254.295 98.277 251.027 98.8566 250.346 102.696C250.346 102.696 250.413 103.743 250.628 104.573C250.841 105.403 249.993 107.781 250.179 107.909C250.364 108.037 251.148 108.227 251.148 108.227C251.148 108.227 251.873 110.903 252.799 110.924C253.726 110.945 257.263 110.389 259.068 107.188C260.874 103.988 261.623 98.9814 255.749 98.417Z" fill="#EEA886"/>
<path d="M250.345 102.696C250.345 102.696 252.635 104.422 254.967 104.859C257.3 105.297 258.561 109.356 258.561 109.356C258.561 109.356 262.474 103.475 259.764 99.7093C257.054 95.9437 250.048 98.169 250.345 102.696Z" fill="#344052"/>
<path d="M255.952 104.798C255.987 104.343 256.526 103.685 257.241 104.342C257.956 104.998 256.852 107.112 256.251 106.872C255.651 106.631 255.917 105.267 255.952 104.798Z" fill="#EEA886"/>
<path d="M254.309 110.712C254.361 110.996 254.415 111.327 254.459 111.678C256.417 110.561 257.443 109.14 257.443 109.14C256.311 110.071 254.309 110.712 254.309 110.712Z" fill="#A77860"/>
<g opacity="0.86">
<path d="M212.68 135.351L241.699 135.493C243.288 135.501 244.583 134.219 244.591 132.631L244.687 113.268C244.695 111.678 243.412 110.383 241.823 110.375L212.804 110.232C211.215 110.225 209.92 111.506 209.912 113.096L209.816 132.459C209.809 134.048 211.09 135.342 212.68 135.351Z" fill="#E0F1FF"/>
</g>
<path d="M225.599 133.406L240.389 133.48C241.431 133.484 242.28 132.644 242.285 131.602L242.366 115.152C242.371 114.112 241.531 113.263 240.489 113.257L225.699 113.184C224.658 113.178 223.809 114.019 223.804 115.062L223.723 131.51C223.716 132.552 224.557 133.401 225.599 133.406Z" fill="#A1D4FF"/>
<path d="M213.539 133.399L222.088 133.442C222.38 133.443 222.619 133.207 222.62 132.915L222.631 130.889C222.632 130.596 222.396 130.358 222.104 130.356L213.555 130.313C213.262 130.312 213.024 130.548 213.023 130.842L213.012 132.867C213.01 133.16 213.246 133.398 213.539 133.399Z" fill="#A1D4FF"/>
<path d="M213.306 129.381L222.338 129.425C222.498 129.426 222.627 129.298 222.628 129.139L222.629 128.802C222.63 128.642 222.501 128.513 222.342 128.512L213.31 128.468C213.151 128.467 213.022 128.596 213.021 128.755L213.02 129.092C213.017 129.251 213.147 129.381 213.306 129.381Z" fill="#A1D4FF"/>
<path d="M245.759 127.366C245.759 127.366 245.416 127.446 245.154 127.324C244.701 127.112 244.406 126.416 243.728 126.616C243.05 126.815 243.188 129.044 243.448 129.417C243.707 129.79 244.708 129.791 246.062 129.209C247.417 128.626 245.759 127.366 245.759 127.366Z" fill="#EEA886"/>
<path d="M243.967 126.58C243.967 126.58 242.904 126.452 241.709 126.447C240.659 126.443 239.445 126.626 239.366 126.825C239.277 127.046 240.42 126.979 241.462 127.049C242.42 127.115 242.226 127.255 242.226 127.255C242.226 127.255 242.279 127.212 241.225 127.334C240.092 127.467 238.949 127.711 238.883 127.957C238.85 128.076 238.904 128.141 239.326 128.158C239.083 128.198 239.063 128.267 239.073 128.366C239.132 128.876 240.837 128.931 241.514 128.953C240.993 128.94 240.612 128.982 240.862 129.28C241.148 129.62 243.558 129.594 244.426 129.663C245.371 129.739 243.967 126.58 243.967 126.58Z" fill="#EEA886"/>
<path d="M258.134 103.982C257.419 105.61 257.851 107.374 259.1 107.922C260.348 108.472 261.941 107.597 262.656 105.969C263.371 104.342 262.939 102.577 261.69 102.028C260.441 101.48 258.849 102.355 258.134 103.982Z" fill="#344052"/>
<path d="M264.074 113.725C264.074 113.725 262.223 114.067 261.306 115.495C260.39 116.923 259.454 118.956 259.274 119.661C259.095 120.367 255.622 126.842 255.429 127.017C255.237 127.193 253.321 127.046 251.835 127.192C249.409 127.429 245.612 126.865 245.612 126.865L245.574 129.662C245.574 129.662 254.884 130.892 256.821 130.021C259.19 128.957 264.924 120.951 264.924 120.951C264.924 120.951 267.897 115.324 264.074 113.725Z" fill="#2273B5"/>
<path d="M260.312 126.814L263.941 123.908C264.322 122.75 264.634 121.791 264.887 121.002C264.887 121.002 261.208 125.82 260.312 126.814Z" fill="#1A598C"/>
<path d="M248.8 125.14C249.061 124.864 249.32 124.584 249.573 124.307C249.573 124.307 248.59 121.693 248.525 120.587C248.525 120.587 248.294 123.058 248.8 125.14Z" fill="#1A598C"/>
<path d="M221.264 115.564C220.628 113.786 218.929 112.694 217.139 112.749C216.706 112.761 216.267 112.842 215.836 112.996C214.532 113.462 213.597 114.501 213.213 115.727C212.947 116.578 212.946 117.519 213.268 118.423C213.301 118.512 213.335 118.601 213.374 118.687C213.543 119.078 213.767 119.432 214.032 119.743C215.142 121.049 216.986 121.601 218.696 120.99C220.904 120.201 222.053 117.771 221.264 115.564ZM218.338 119.99C217.056 120.449 215.675 120.034 214.841 119.055C214.643 118.822 214.474 118.557 214.347 118.263C214.319 118.197 214.293 118.131 214.269 118.065C214.027 117.387 214.028 116.682 214.228 116.044C214.516 115.124 215.216 114.345 216.194 113.996C216.516 113.88 216.846 113.82 217.171 113.81C218.513 113.77 219.786 114.588 220.263 115.921C220.854 117.576 219.993 119.398 218.338 119.99Z" fill="#73C0FF"/>
<path d="M214.229 116.045L213.215 115.727C213.599 114.501 214.534 113.461 215.838 112.996C216.269 112.841 216.708 112.762 217.141 112.748L217.172 113.811C216.848 113.821 216.519 113.881 216.196 113.996C215.218 114.346 214.517 115.125 214.229 116.045Z" fill="#73C0FF"/>
<path d="M214.348 118.264L213.374 118.688C213.335 118.602 213.301 118.513 213.268 118.424C212.946 117.52 212.947 116.579 213.213 115.729L214.228 116.046C214.028 116.683 214.027 117.389 214.269 118.066C214.294 118.132 214.32 118.199 214.348 118.264Z" fill="#73C0FF"/>
<path d="M214.033 119.744C213.768 119.433 213.545 119.078 213.375 118.687L214.349 118.263C214.476 118.556 214.644 118.821 214.843 119.055L214.033 119.744Z" fill="#73C0FF"/>
<path d="M216.48 123.015C216.219 122.285 215.521 121.836 214.785 121.858C214.607 121.863 214.427 121.896 214.251 121.96C213.715 122.152 213.331 122.577 213.174 123.082C213.064 123.431 213.063 123.819 213.196 124.189C213.209 124.226 213.223 124.263 213.239 124.297C213.309 124.458 213.401 124.604 213.509 124.732C213.966 125.268 214.723 125.495 215.425 125.243C216.332 124.919 216.804 123.92 216.48 123.015ZM215.278 124.832C214.752 125.02 214.184 124.85 213.842 124.449C213.761 124.353 213.692 124.244 213.639 124.123C213.628 124.097 213.618 124.069 213.607 124.042C213.507 123.763 213.508 123.474 213.591 123.212C213.709 122.834 213.997 122.514 214.398 122.37C214.531 122.324 214.666 122.298 214.799 122.295C215.351 122.278 215.873 122.614 216.07 123.161C216.312 123.841 215.958 124.589 215.278 124.832Z" fill="#73C0FF"/>
<path d="M213.596 123.212L213.18 123.082C213.337 122.577 213.721 122.151 214.257 121.959C214.433 121.896 214.613 121.862 214.791 121.857L214.804 122.294C214.671 122.298 214.536 122.323 214.403 122.369C214.002 122.514 213.714 122.834 213.596 123.212Z" fill="#73C0FF"/>
<path d="M213.639 124.123L213.239 124.297C213.223 124.262 213.209 124.225 213.196 124.189C213.063 123.818 213.064 123.431 213.174 123.083L213.59 123.212C213.508 123.474 213.507 123.764 213.607 124.043C213.618 124.069 213.628 124.097 213.639 124.123Z" fill="#73C0FF"/>
<path d="M213.513 124.732C213.405 124.604 213.313 124.458 213.242 124.298L213.643 124.124C213.695 124.244 213.764 124.353 213.846 124.449L213.513 124.732Z" fill="#73C0FF"/>
<path d="M84.6197 69.4399H81.5391V80.7723H84.6197V69.4399Z" fill="#78C2FF"/>
<path d="M89.0072 68.2969H85.9258V80.7725H89.0072V68.2969Z" fill="#78C2FF"/>
<path d="M93.4479 70.6709H90.3672V80.7726H93.4479V70.6709Z" fill="#78C2FF"/>
<path d="M97.8932 65.9888H94.8125V80.7721H97.8932V65.9888Z" fill="#78C2FF"/>
<path d="M102.549 67.4609H99.4688V80.7717H102.549V67.4609Z" fill="#78C2FF"/>
</svg>
