<svg width="24" height="24" viewBox="0 0 24 24" fill="none" xmlns="http://www.w3.org/2000/svg">
<path d="M13.5016 21V13.5C13.5016 13.3011 13.5806 13.1103 13.7212 12.9697C13.8619 12.829 14.0527 12.75 14.2516 12.75H17.2516C17.4505 12.75 17.6413 12.829 17.7819 12.9697C17.9226 13.1103 18.0016 13.3011 18.0016 13.5V21M13.5016 21H2.36158M13.5016 21H18.0016M18.0016 21H21.6416M20.2516 21V9.349M20.2516 9.349C19.6517 9.6951 18.9505 9.82304 18.267 9.71113C17.5835 9.59922 16.9598 9.25435 16.5016 8.735C15.9516 9.357 15.1476 9.75 14.2516 9.75C13.8259 9.75041 13.4049 9.66 13.0169 9.48479C12.6289 9.30959 12.2828 9.05363 12.0016 8.734C11.4516 9.357 10.6476 9.75 9.75158 9.75C9.32585 9.75041 8.90494 9.66 8.51694 9.48479C8.12894 9.30959 7.78278 9.05363 7.50158 8.734C7.0435 9.25351 6.41982 9.59858 5.73632 9.71067C5.05283 9.82276 4.3516 9.69498 3.75158 9.349M20.2516 9.349C20.6502 9.11891 20.9905 8.80019 21.2462 8.41751C21.5019 8.03484 21.6661 7.59846 21.7261 7.14215C21.7862 6.68584 21.7404 6.22184 21.5924 5.78605C21.4444 5.35026 21.1981 4.95436 20.8726 4.629L19.6826 3.44C19.4015 3.15862 19.0203 3.00035 18.6226 3H5.37958C4.98203 3.00008 4.60078 3.15798 4.31958 3.439L3.13058 4.629C2.80581 4.95474 2.56019 5.3507 2.41265 5.78637C2.2651 6.22204 2.21957 6.68577 2.27957 7.14182C2.33957 7.59786 2.5035 8.03403 2.75871 8.41671C3.01393 8.79939 3.35361 9.11835 3.75158 9.349M3.75158 21V9.349M6.75158 18H10.5016C10.7005 18 10.8913 17.921 11.0319 17.7803C11.1726 17.6397 11.2516 17.4489 11.2516 17.25V13.5C11.2516 13.3011 11.1726 13.1103 11.0319 12.9697C10.8913 12.829 10.7005 12.75 10.5016 12.75H6.75158C6.55267 12.75 6.3619 12.829 6.22125 12.9697C6.0806 13.1103 6.00158 13.3011 6.00158 13.5V17.25C6.00158 17.664 6.33758 18 6.75158 18Z" stroke="white" stroke-width="1.5" stroke-linecap="round" stroke-linejoin="round"/>
</svg>
