<svg width="154" height="150" viewBox="0 0 154 150" fill="none" xmlns="http://www.w3.org/2000/svg">
<path d="M144.888 35.7979V52.4673L141.087 52.4771V56.5206L137.146 52.4771H117.031V35.7979H144.888Z" stroke="#EBEBEB" stroke-miterlimit="10"/>
<path d="M125.694 44.1373C125.694 44.8853 125.103 45.4914 124.374 45.4914C123.646 45.4914 123.055 44.8853 123.055 44.1373C123.055 43.3893 123.646 42.7832 124.374 42.7832C125.103 42.7832 125.694 43.3897 125.694 44.1373Z" fill="#EBEBEB"/>
<path d="M132.28 44.1373C132.28 44.8853 131.689 45.4914 130.96 45.4914C130.232 45.4914 129.641 44.8853 129.641 44.1373C129.641 43.3893 130.232 42.7832 130.96 42.7832C131.689 42.7832 132.28 43.3897 132.28 44.1373Z" fill="#EBEBEB"/>
<path d="M138.866 44.1373C138.866 44.8853 138.275 45.4914 137.546 45.4914C136.817 45.4914 136.227 44.8853 136.227 44.1373C136.227 43.3893 136.818 42.7832 137.546 42.7832C138.275 42.7832 138.866 43.3897 138.866 44.1373Z" fill="#EBEBEB"/>
<path d="M7.125 59.8545V76.5239L10.9256 76.5338V80.5772L14.8666 76.5338H34.9815V59.8545H7.125Z" stroke="#EBEBEB" stroke-miterlimit="10"/>
<path d="M26.3203 68.1935C26.3203 68.9415 26.9114 69.5476 27.64 69.5476C28.3686 69.5476 28.9597 68.9411 28.9597 68.1935C28.9597 67.4455 28.3686 66.8394 27.64 66.8394C26.9114 66.8394 26.3203 67.4455 26.3203 68.1935Z" fill="#EBEBEB"/>
<path d="M19.7344 68.1935C19.7344 68.9415 20.3255 69.5476 21.0541 69.5476C21.7827 69.5476 22.3738 68.9411 22.3738 68.1935C22.3738 67.4455 21.7827 66.8394 21.0541 66.8394C20.3255 66.8394 19.7344 67.4455 19.7344 68.1935Z" fill="#EBEBEB"/>
<path d="M13.1484 68.1935C13.1484 68.9415 13.7395 69.5476 14.4681 69.5476C15.1968 69.5476 15.7879 68.9411 15.7879 68.1935C15.7879 67.4455 15.1968 66.8394 14.4681 66.8394C13.7395 66.8394 13.1484 67.4455 13.1484 68.1935Z" fill="#EBEBEB"/>
<path d="M107.248 4.56348H44.7407C41.2502 4.56348 38.418 7.51916 38.418 11.1725V143.206C38.418 146.852 41.2502 149.816 44.7407 149.816H107.248C110.742 149.816 113.578 146.852 113.578 143.206V11.1725C113.578 7.51916 110.741 4.56348 107.248 4.56348ZM109.625 139.124C109.625 142.6 107.088 145.411 103.96 145.411H48.0387C44.9033 145.411 42.3668 142.6 42.3668 139.124V16.177C42.3668 9.09727 44.9033 8.75221 48.0387 8.75221H59.2386C59.8895 8.75221 60.4219 9.51119 60.4219 10.4518V10.8577C60.4219 13.062 61.5978 13.0696 63.0436 13.0696H88.9488C90.4057 13.0696 91.5701 13.062 91.5701 10.8577V10.4518C91.5701 9.51081 92.0952 8.75221 92.7571 8.75221H103.961C107.089 8.75221 109.625 9.69317 109.625 16.177L109.625 139.124Z" fill="#37474F"/>
<path d="M79.53 10.3159H72.4639C72.2228 10.3159 72.0273 10.1153 72.0273 9.86789C72.0273 9.62045 72.2228 9.41992 72.4639 9.41992H79.53C79.7712 9.41992 79.9666 9.62045 79.9666 9.86789C79.9662 10.1157 79.7712 10.3159 79.53 10.3159Z" fill="#263238"/>
<path d="M109.625 16.1767V139.124C109.625 142.599 107.089 145.411 103.961 145.411H48.0391C44.9037 145.411 42.3672 142.6 42.3672 139.124V16.1767C42.3672 9.09701 44.9037 8.75195 48.0391 8.75195H59.2391C59.8899 8.75195 60.4223 9.51093 60.4223 10.4515V10.8575C60.4223 13.0618 61.5979 13.0693 63.0437 13.0693H88.9489C90.4057 13.0693 91.5702 13.0618 91.5702 10.8575V10.4515C91.5702 9.51055 92.0953 8.75195 92.7572 8.75195H103.961C107.089 8.75195 109.625 9.69292 109.625 16.1767Z" fill="white"/>
<path d="M109.625 16.1758V28.4529H42.3672V16.1758C42.3672 9.09603 44.9037 8.75098 48.0391 8.75098H59.2391C59.8899 8.75098 60.4223 9.50995 60.4223 10.4505V10.8565C60.4223 13.0608 61.5982 13.0684 63.0441 13.0684H88.9492C90.4061 13.0684 91.5706 13.0608 91.5706 10.8565V10.4505C91.5706 9.50957 92.0956 8.75098 92.7575 8.75098H103.961C107.089 8.75098 109.625 9.69194 109.625 16.1758Z" fill="#FFC727"/>
<path d="M49.1742 24.3846L47.1875 22.4743L49.1742 20.564L49.4829 20.9011L47.8464 22.4743L49.4829 24.0478L49.1742 24.3846Z" fill="white"/>
<path d="M104.415 21.2844C104.415 21.5061 104.239 21.6854 104.024 21.6854C103.808 21.6854 103.633 21.5057 103.633 21.2844C103.633 21.063 103.808 20.8833 104.024 20.8833C104.24 20.8833 104.415 21.063 104.415 21.2844Z" fill="white"/>
<path d="M104.415 22.7111C104.415 22.9328 104.239 23.1122 104.024 23.1122C103.808 23.1122 103.633 22.9324 103.633 22.7111C103.633 22.4898 103.808 22.3101 104.024 22.3101C104.24 22.3101 104.415 22.4894 104.415 22.7111Z" fill="white"/>
<path d="M104.415 24.1374C104.415 24.3591 104.239 24.5384 104.024 24.5384C103.808 24.5384 103.633 24.3587 103.633 24.1374C103.633 23.916 103.808 23.7363 104.024 23.7363C104.24 23.7363 104.415 23.916 104.415 24.1374Z" fill="white"/>
<path d="M57.3033 11.5128C57.2672 11.5495 57.2311 11.5862 57.1953 11.6229C57.1747 11.6437 57.1544 11.6649 57.1341 11.6861C56.8432 11.3967 56.4973 11.2423 56.0921 11.2419C55.6868 11.2419 55.3406 11.3959 55.0478 11.6872C55.0286 11.6664 55.0091 11.6452 54.9892 11.6248C54.9538 11.5877 54.918 11.5514 54.8822 11.5147C54.8815 11.5139 54.88 11.5136 54.8789 11.5128C54.8789 11.5121 54.8789 11.5109 54.8789 11.5102C54.8815 11.5079 54.8844 11.506 54.887 11.5037C54.9324 11.4621 54.977 11.419 55.0238 11.3793C55.1208 11.2972 55.2274 11.229 55.3402 11.1723C55.4737 11.105 55.6134 11.055 55.7598 11.0278C55.8291 11.0145 55.8996 11.0081 55.9693 10.999C55.9932 10.996 56.1481 10.9956 56.1529 10.9956C56.2005 10.9994 56.2484 11.0013 56.2956 11.0066C56.4276 11.0213 56.5559 11.0539 56.6806 11.1008C56.7709 11.1348 56.8575 11.1765 56.9409 11.2256C57.029 11.2775 57.112 11.3365 57.1894 11.4042C57.2285 11.4383 57.2657 11.4746 57.3037 11.5098C57.3033 11.5113 57.3033 11.5121 57.3033 11.5128Z" fill="white"/>
<path d="M55.3898 12.0347C55.3327 11.9765 55.2766 11.9193 55.2188 11.8607C55.4134 11.6643 55.6439 11.5398 55.9146 11.5024C56.3191 11.446 56.6668 11.5724 56.961 11.8584C56.9028 11.9178 56.8464 11.9753 56.7892 12.034C56.5956 11.8414 56.3626 11.737 56.0897 11.7373C55.8172 11.7373 55.5845 11.841 55.3898 12.0347Z" fill="white"/>
<path d="M56.6161 12.2103C56.5597 12.2682 56.5033 12.3261 56.4458 12.3848C56.3473 12.2868 56.2279 12.2323 56.0874 12.2323C55.9472 12.2327 55.8281 12.2864 55.7286 12.3859C55.6718 12.3273 55.6154 12.2694 55.5586 12.2115C55.8296 11.9205 56.3167 11.8974 56.6161 12.2103Z" fill="white"/>
<path d="M56.2411 12.5435C56.2411 12.6305 56.1722 12.7013 56.0874 12.7013C56.0026 12.7013 55.9336 12.6305 55.9336 12.5435C55.9336 12.4565 56.0026 12.3857 56.0874 12.3857C56.1725 12.3857 56.2411 12.4565 56.2411 12.5435Z" fill="white"/>
<path d="M46.7461 11.8495C46.7461 11.5968 46.9456 11.3921 47.1919 11.3921C47.4382 11.3921 47.6377 11.5968 47.6377 11.8495C47.6377 12.1023 47.4382 12.3069 47.1919 12.3069C46.9456 12.3066 46.7461 12.1019 46.7461 11.8495Z" fill="white"/>
<path d="M48.1523 11.8495C48.1523 11.5968 48.3518 11.3921 48.5981 11.3921C48.8445 11.3921 49.0439 11.5968 49.0439 11.8495C49.0439 12.1023 48.8445 12.3069 48.5981 12.3069C48.3522 12.3066 48.1523 12.1019 48.1523 11.8495Z" fill="white"/>
<path d="M49.5508 11.8495C49.5508 11.5968 49.7503 11.3921 49.9966 11.3921C50.2429 11.3921 50.4424 11.5968 50.4424 11.8495C50.4424 12.1023 50.2429 12.3069 49.9966 12.3069C49.7503 12.3066 49.5508 12.1019 49.5508 11.8495Z" fill="white"/>
<path d="M50.957 11.8495C50.957 11.5968 51.1565 11.3921 51.4028 11.3921C51.6492 11.3921 51.8486 11.5968 51.8486 11.8495C51.8486 12.1023 51.6492 12.3069 51.4028 12.3069C51.1569 12.3066 50.957 12.1019 50.957 11.8495Z" fill="white"/>
<path d="M52.3633 11.8495C52.3633 11.5968 52.5628 11.3921 52.8091 11.3921C53.055 11.3921 53.2549 11.5968 53.2549 11.8495C53.2549 12.1023 53.0554 12.3069 52.8091 12.3069C52.5628 12.3066 52.3633 12.1019 52.3633 11.8495Z" fill="white"/>
<path d="M104.575 12.8493H100.941V11.1191H104.575V12.8493ZM101.131 12.6545H104.385V11.3144H101.131V12.6545Z" fill="white"/>
<path d="M103.581 11.4146H101.242V12.5534H103.581V11.4146Z" fill="white"/>
<path d="M104.897 11.5229H104.574V12.4454H104.897V11.5229Z" fill="white"/>
<path d="M50.9344 138.768H50.6055V140.317H49.9916V139.528H48.9038V140.317H48.2898V138.768H47.9609L49.4477 137.192L50.9344 138.768Z" fill="#EBEBEB"/>
<path d="M104.174 137.193H100.59V137.718H104.174V137.193Z" fill="#EBEBEB"/>
<path d="M104.174 138.493H100.59V139.018H104.174V138.493Z" fill="#EBEBEB"/>
<path d="M104.174 139.792H100.59V140.318H104.174V139.792Z" fill="#EBEBEB"/>
<path d="M77.1158 138.809L76.0969 139.925L75.0781 138.809L75.2577 138.636L76.0969 139.555L76.9362 138.636L77.1158 138.809Z" fill="#EBEBEB"/>
<path d="M76.0971 141.077C75.0765 141.077 74.2461 140.225 74.2461 139.178C74.2461 138.13 75.0765 137.278 76.0971 137.278C77.1178 137.278 77.9482 138.13 77.9482 139.178C77.9478 140.225 77.1178 141.077 76.0971 141.077ZM76.0971 137.53C75.2114 137.53 74.4906 138.269 74.4906 139.178C74.4906 140.087 75.2114 140.827 76.0971 140.827C76.9832 140.827 77.7037 140.087 77.7037 139.178C77.7037 138.269 76.9832 137.53 76.0971 137.53Z" fill="#EBEBEB"/>
<path d="M69.5139 21.591V23.5652C69.5139 23.6655 69.4291 23.7491 69.3314 23.7491C69.2304 23.7491 69.1518 23.6655 69.1518 23.5652V22.1563L68.6824 22.8256C68.6463 22.8759 68.5947 22.9024 68.5357 22.9024H68.5324H68.529C68.4704 22.9024 68.4151 22.8755 68.379 22.8256L67.9125 22.1563V23.5652C67.9125 23.6655 67.831 23.7491 67.73 23.7491C67.6323 23.7491 67.5508 23.6655 67.5508 23.5652V21.591C67.5508 21.4907 67.6323 21.4067 67.73 21.4067C67.7333 21.4067 67.7333 21.4067 67.7396 21.4067C67.7916 21.4067 67.8506 21.4336 67.883 21.4839L68.532 22.4075L69.181 21.4839C69.2167 21.4336 69.2687 21.4067 69.3277 21.4067C69.3277 21.4067 69.3277 21.4067 69.331 21.4067C69.4291 21.4101 69.5139 21.4907 69.5139 21.591Z" fill="white"/>
<path d="M70.1406 23.5652V21.591C70.1406 21.4873 70.2188 21.4067 70.3202 21.4067H70.3235C70.3235 21.4067 70.3235 21.4067 70.3302 21.4067H71.3866C71.4813 21.4067 71.5662 21.4873 71.5662 21.591C71.5662 21.6947 71.4813 21.7783 71.3866 21.7783H70.5027V22.3908H71.2627C71.3604 22.3908 71.4419 22.4779 71.4419 22.5747C71.4419 22.6784 71.3604 22.762 71.2627 22.762H70.5027V23.3776H71.3866C71.4813 23.3776 71.5662 23.4612 71.5662 23.5649C71.5662 23.6651 71.4813 23.7487 71.3866 23.7487H70.3302C70.3235 23.7487 70.3235 23.7453 70.3235 23.7453L70.3202 23.7487C70.2192 23.7495 70.1406 23.6655 70.1406 23.5652Z" fill="white"/>
<path d="M72.0082 23.1669C72.0668 23.0935 72.1745 23.0833 72.2464 23.1434C72.3899 23.2638 72.6376 23.4045 72.8692 23.4011C73.0322 23.4011 73.179 23.3512 73.2767 23.2774C73.3744 23.204 73.4172 23.12 73.4172 23.0364C73.4172 22.9929 73.4072 22.9626 73.388 22.9293C73.3685 22.8956 73.339 22.8623 73.2903 22.829C73.1955 22.7655 73.0359 22.7087 72.8434 22.6716H72.8368C72.6834 22.6414 72.5399 22.6013 72.416 22.5411C72.2921 22.481 72.1845 22.3973 72.1126 22.2804C72.0635 22.1998 72.0377 22.1064 72.0377 22.0057C72.0377 21.8052 72.1487 21.6308 72.2984 21.5173C72.4518 21.4034 72.6506 21.3398 72.8626 21.3398C73.1756 21.3398 73.4072 21.4972 73.5735 21.6077C73.6487 21.6614 73.6712 21.7685 73.6192 21.8453C73.5702 21.9259 73.4658 21.949 73.3877 21.8956C73.221 21.7818 73.0613 21.6815 72.8626 21.6815C72.7158 21.6815 72.5853 21.7284 72.4975 21.7954C72.4094 21.8623 72.3736 21.9361 72.3736 22.0061C72.3736 22.0462 72.3803 22.0731 72.3965 22.1C72.4127 22.1268 72.4418 22.1567 72.4843 22.187C72.5691 22.2471 72.7158 22.3009 72.8921 22.3342H72.8987C73.065 22.3674 73.2184 22.411 73.3489 22.4745C73.4824 22.5415 73.6 22.6285 73.6749 22.7522C73.7239 22.8328 73.7531 22.9331 73.7531 23.0368C73.7531 23.2509 73.6354 23.4348 73.4725 23.5551C73.3128 23.6758 73.1008 23.7458 72.8692 23.7458C72.5171 23.7424 72.2202 23.5619 72.0344 23.4113C71.9625 23.3508 71.9529 23.2407 72.0082 23.1669Z" fill="white"/>
<path d="M74.1529 23.1669C74.2115 23.0935 74.3192 23.0833 74.3911 23.1434C74.5345 23.2638 74.7823 23.4045 75.0139 23.4011C75.1769 23.4011 75.3236 23.3512 75.4213 23.2774C75.519 23.204 75.5614 23.12 75.5614 23.0364C75.5614 22.9929 75.5519 22.9626 75.5323 22.9293C75.5128 22.8956 75.4833 22.8623 75.4346 22.829C75.3398 22.7655 75.1802 22.7087 74.9877 22.6716H74.9811C74.8277 22.6414 74.6842 22.6013 74.5603 22.5411C74.4364 22.481 74.3288 22.3973 74.2569 22.2804C74.2078 22.1998 74.182 22.1064 74.182 22.0057C74.182 21.8052 74.293 21.6308 74.4431 21.5173C74.5965 21.4034 74.7952 21.3398 75.0072 21.3398C75.3203 21.3398 75.5519 21.4972 75.7182 21.6077C75.7934 21.6614 75.8159 21.7685 75.7639 21.8453C75.7148 21.9259 75.6105 21.949 75.5323 21.8956C75.366 21.7818 75.206 21.6815 75.0072 21.6815C74.8605 21.6815 74.7299 21.7284 74.6418 21.7954C74.5541 21.8623 74.5179 21.9361 74.5179 22.0061C74.5179 22.0462 74.5246 22.0731 74.5408 22.1C74.557 22.1268 74.5861 22.1567 74.6289 22.187C74.7137 22.2471 74.8605 22.3009 75.0367 22.3342H75.0434C75.2097 22.3674 75.3631 22.411 75.4936 22.4745C75.6271 22.5415 75.7447 22.6285 75.8196 22.7522C75.8686 22.8328 75.8981 22.9331 75.8981 23.0368C75.8981 23.2509 75.7805 23.4348 75.6175 23.5551C75.4578 23.6758 75.2458 23.7458 75.0142 23.7458C74.6621 23.7424 74.3653 23.5619 74.1794 23.4113C74.1071 23.3508 74.0972 23.2407 74.1529 23.1669Z" fill="white"/>
<path d="M77.5169 23.1968H76.7245L76.5645 23.6319C76.5354 23.7053 76.4668 23.7492 76.3953 23.7492C76.372 23.7492 76.3525 23.7458 76.3329 23.739C76.2382 23.7023 76.1928 23.5952 76.2253 23.498L76.9461 21.5271C76.9753 21.4534 77.0472 21.4064 77.1191 21.4098C77.1939 21.4064 77.2625 21.4534 77.2917 21.5271L78.0125 23.498C78.045 23.5952 77.9996 23.7023 77.9049 23.739C77.8886 23.7458 77.8658 23.7492 77.8433 23.7492C77.7714 23.7492 77.7028 23.7057 77.6766 23.6319L77.5169 23.1968ZM77.3835 22.829L77.1195 22.1094L76.8551 22.829H77.3835Z" fill="white"/>
<path d="M78.25 22.5479C78.25 21.8752 78.7913 21.3398 79.4536 21.3398C79.7305 21.3398 79.9949 21.4371 80.1969 21.6009C80.2817 21.6645 80.2946 21.7882 80.2327 21.8718C80.1711 21.952 80.0502 21.969 79.9687 21.9017C79.8282 21.7912 79.649 21.7212 79.4536 21.7212C79.219 21.7212 79.0133 21.8116 78.8665 21.9656C78.7135 22.1162 78.6221 22.3202 78.6221 22.5479C78.6221 22.7689 78.7135 22.9728 78.8665 23.1234C79.0137 23.2774 79.219 23.3678 79.4536 23.3678C79.6165 23.3678 79.7699 23.3175 79.9001 23.2407V22.7821H79.434C79.333 22.7821 79.2482 22.6951 79.2482 22.5914C79.2482 22.4844 79.333 22.4041 79.434 22.4041H80.0764C80.0797 22.4041 80.0797 22.4041 80.0797 22.4041C80.083 22.4041 80.083 22.4041 80.083 22.4041C80.1873 22.4041 80.2721 22.4844 80.2721 22.5914V23.3311C80.2721 23.3546 80.2655 23.3678 80.2626 23.3879C80.2592 23.3947 80.2592 23.3977 80.2559 23.4049V23.4083C80.246 23.4382 80.2264 23.465 80.194 23.4885C79.9886 23.6523 79.7308 23.7496 79.4536 23.7496C78.7913 23.7492 78.25 23.2168 78.25 22.5479Z" fill="white"/>
<path d="M81.0117 23.5652V21.591C81.0117 21.4873 81.0903 21.4067 81.1913 21.4067H81.1946C81.1946 21.4067 81.1946 21.4067 81.2013 21.4067H82.2577C82.3524 21.4067 82.4373 21.4873 82.4373 21.591C82.4373 21.6947 82.3524 21.7783 82.2577 21.7783H81.3742V22.3908H82.1338C82.2315 22.3908 82.3134 22.4779 82.3134 22.5747C82.3134 22.6784 82.2319 22.762 82.1338 22.762H81.3742V23.3776H82.2577C82.3524 23.3776 82.4373 23.4612 82.4373 23.5649C82.4373 23.6651 82.3524 23.7487 82.2577 23.7487H81.2013C81.1946 23.7487 81.1946 23.7453 81.1946 23.7453L81.1913 23.7487C81.0903 23.7495 81.0117 23.6655 81.0117 23.5652Z" fill="white"/>
<path d="M82.8717 23.1669C82.9303 23.0935 83.0376 23.0833 83.1095 23.1434C83.2529 23.2638 83.5007 23.4045 83.7323 23.4011C83.8953 23.4011 84.042 23.3512 84.1401 23.2774C84.2378 23.204 84.2802 23.12 84.2802 23.0364C84.2802 22.9929 84.2706 22.9626 84.2511 22.9293C84.2315 22.8956 84.202 22.8623 84.1534 22.829C84.0586 22.7655 83.8989 22.7087 83.7068 22.6716H83.7002C83.5468 22.6414 83.4034 22.6013 83.2791 22.5411C83.1552 22.481 83.0475 22.3973 82.976 22.2804C82.927 22.1998 82.9008 22.1064 82.9008 22.0057C82.9008 21.8052 83.0118 21.6308 83.1615 21.5173C83.3149 21.4034 83.514 21.3398 83.726 21.3398C84.0391 21.3398 84.2706 21.4972 84.4369 21.6077C84.5118 21.6614 84.5347 21.7685 84.4823 21.8453C84.4336 21.9259 84.3293 21.949 84.2507 21.8956C84.0844 21.7818 83.9248 21.6815 83.7256 21.6815C83.5785 21.6815 83.4483 21.7284 83.3602 21.7954C83.2721 21.8623 83.2363 21.9361 83.2363 22.0061C83.2363 22.0462 83.243 22.0731 83.2592 22.1C83.2754 22.1268 83.3049 22.1567 83.3473 22.187C83.4321 22.2471 83.5789 22.3009 83.7551 22.3342H83.7618C83.9284 22.3674 84.0815 22.411 84.2116 22.4745C84.3455 22.5415 84.4631 22.6285 84.538 22.7522C84.5866 22.8328 84.6161 22.9331 84.6161 23.0368C84.6161 23.2509 84.4989 23.4348 84.3359 23.5551C84.1759 23.6758 83.9638 23.7458 83.7326 23.7458C83.3801 23.7424 83.0837 23.5619 82.8978 23.4113C82.8259 23.3508 82.816 23.2407 82.8717 23.1669Z" fill="white"/>
<path d="M151.506 119.977C147.532 125.5 143.388 131.908 142.38 138.834C142.367 138.938 142.531 138.972 142.555 138.868C143.016 136.969 143.6 135.125 144.312 133.324C146.925 132.586 149.489 131.98 150.861 129.319C152.26 126.584 152.082 123.018 151.817 120.039C151.798 119.879 151.587 119.871 151.506 119.977Z" fill="#FFC727"/>
<path d="M144.351 133.271C146.136 129.161 148.428 125.033 151.341 121.654C151.361 121.631 151.391 121.664 151.373 121.687C149.466 124.094 148.017 126.716 146.602 129.383C147.917 128.012 149.359 126.785 150.606 125.331C150.63 125.303 150.669 125.344 150.646 125.372C149.408 126.896 148.056 128.552 146.445 129.68C146.012 130.498 145.576 131.319 145.134 132.14C145.242 132.078 145.354 132.023 145.465 131.966C145.484 131.957 145.502 131.986 145.482 131.997C145.359 132.061 145.238 132.128 145.111 132.183C144.901 132.572 144.694 132.96 144.479 133.348C144.43 133.434 144.313 133.358 144.351 133.271Z" fill="#263238"/>
<path d="M145.681 131.837C146.746 131.21 147.774 130.537 148.732 129.748C148.758 129.726 148.796 129.763 148.769 129.786C147.828 130.604 146.825 131.336 145.725 131.914C145.676 131.94 145.633 131.866 145.681 131.837Z" fill="#263238"/>
<path d="M141.915 137.804C141.923 137.888 142.062 137.887 142.061 137.797C142.081 135.517 142.063 133.226 142.096 130.935C142.665 129.756 143.888 129.103 144.737 128.158C145.35 127.477 145.874 126.707 146.322 125.894C147.373 123.964 147.942 121.795 148.161 119.602C148.396 117.163 147.494 109.113 146.492 109.393C145.972 109.538 144.29 113.525 143.844 114.843C143.113 117.011 142.599 119.258 142.262 121.526C141.45 126.892 141.518 132.403 141.915 137.804Z" fill="#FFC727"/>
<path d="M141.895 127.966C141.898 127.963 141.902 127.96 141.905 127.957C142.027 125.071 142.66 122.157 143.253 119.359C143.892 116.344 144.639 113.504 146.151 110.815C146.179 110.765 146.252 110.809 146.226 110.86C145.197 112.941 144.461 115.15 143.898 117.418C143.999 117.255 144.122 117.101 144.228 116.948C144.27 116.887 144.367 116.944 144.326 117.006C144.177 117.234 144.044 117.499 143.853 117.691C143.847 117.698 143.84 117.698 143.834 117.7C143.313 119.855 142.94 122.06 142.62 124.259C142.644 124.231 142.667 124.201 142.691 124.174C142.707 124.156 142.735 124.179 142.724 124.2C142.684 124.273 142.64 124.345 142.596 124.418C142.435 125.534 142.286 126.648 142.136 127.752C144.072 126.053 145.726 124.051 146.659 121.584C146.664 121.573 146.682 121.578 146.678 121.589C145.764 124.148 144.323 126.423 142.105 127.975C142.065 128.273 142.024 128.57 141.983 128.866C141.974 128.928 141.879 128.912 141.879 128.852C141.88 128.589 141.892 128.326 141.902 128.062C141.875 128.037 141.861 127.995 141.895 127.966Z" fill="#263238"/>
<path d="M142.804 123.784C144.284 121.518 145.667 119.317 146.75 116.811C146.761 116.783 146.809 116.803 146.798 116.832C145.885 119.321 144.607 121.843 142.878 123.843C142.843 123.883 142.774 123.83 142.804 123.784Z" fill="#263238"/>
<path d="M144.774 116.252C145.387 115.139 146.033 114.055 146.61 112.92C146.627 112.888 146.669 112.916 146.656 112.948C146.172 114.108 145.593 115.285 144.869 116.308C144.828 116.366 144.738 116.316 144.774 116.252Z" fill="#263238"/>
<path d="M144.536 116.736C144.548 116.736 144.548 116.756 144.536 116.756C144.524 116.755 144.524 116.736 144.536 116.736Z" fill="#263238"/>
<path d="M140.413 131.209C140.375 132.72 140.217 134.231 139.894 135.702C139.917 135.864 139.94 136.026 139.963 136.194C140.427 134.556 140.67 132.879 140.746 131.185C140.772 131.138 140.782 131.088 140.753 131.03C140.753 131.03 140.753 131.03 140.753 131.025C140.837 128.764 140.632 126.477 140.262 124.24C139.574 120.048 138.07 116.026 135.222 112.885C135.131 112.788 134.951 112.838 134.907 112.951C133.758 115.951 134.159 119.529 135.138 122.521C135.671 124.133 136.431 125.68 137.397 127.066C138.374 128.476 139.62 129.669 140.413 131.209Z" fill="#FFC727"/>
<path d="M135.555 114.288C138.254 118.784 140.133 124.114 140.363 129.425C140.367 129.519 140.212 129.544 140.199 129.448C140.135 128.97 140.064 128.498 139.99 128.026C139.988 128.025 139.986 128.026 139.985 128.025C138.868 126.927 137.722 125.769 136.921 124.397C136.907 124.373 136.941 124.345 136.96 124.367C137.931 125.506 138.838 126.674 139.936 127.69C139.742 126.515 139.513 125.36 139.242 124.221C139.17 124.136 139.099 124.049 139.028 123.964C138.982 123.908 139.06 123.826 139.108 123.882C139.13 123.907 139.152 123.931 139.173 123.956C138.791 122.392 138.324 120.862 137.762 119.357C137.075 118.516 136.306 117.789 135.805 116.776C135.793 116.751 135.826 116.732 135.841 116.754C136.243 117.334 136.633 117.917 137.09 118.455C137.271 118.669 137.471 118.869 137.66 119.078C137.046 117.473 136.317 115.898 135.45 114.351C135.412 114.281 135.514 114.22 135.555 114.288Z" fill="#263238"/>
<path d="M136.1 119.834C136.973 121.039 137.967 122.189 138.778 123.435C138.801 123.47 138.751 123.507 138.721 123.479C137.679 122.476 136.797 121.106 136.041 119.87C136.017 119.83 136.074 119.799 136.1 119.834Z" fill="#263238"/>
<path d="M138.9 123.713L138.937 123.751C138.963 123.777 138.923 123.819 138.897 123.792L138.86 123.754C138.834 123.727 138.874 123.686 138.9 123.713Z" fill="#263238"/>
<path d="M131.329 122.931C131.546 125.245 132.732 128.007 134.178 129.79C134.819 130.578 135.596 131.181 136.488 131.64C137.489 132.147 138.537 132.733 139.572 133.15C140.055 134.417 140.426 135.745 140.663 137.128C140.697 137.013 140.73 136.892 140.763 136.776C140.099 130.92 136.405 125.914 131.681 122.701C131.512 122.585 131.311 122.734 131.329 122.931Z" fill="#FFC727"/>
<path d="M132.961 124.661C132.928 124.631 132.973 124.57 133.009 124.597C135.512 126.5 137.768 129.275 139.028 132.209C139.063 132.29 138.955 132.36 138.911 132.28C138.692 131.885 138.468 131.501 138.24 131.123C138.239 131.123 138.238 131.124 138.237 131.124C137.159 130.916 136.137 130.137 135.337 129.398C135.315 129.378 135.347 129.346 135.369 129.365C135.787 129.743 136.236 130.089 136.733 130.349C137.173 130.578 137.646 130.722 138.104 130.906C137.704 130.255 137.287 129.63 136.852 129.025C135.692 128.62 134.587 127.888 133.612 127.156C133.581 127.133 133.608 127.082 133.643 127.102C134.637 127.716 135.617 128.257 136.654 128.755C136.001 127.866 135.293 127.024 134.528 126.211C134.161 126.012 133.79 125.813 133.435 125.6C133.406 125.583 133.425 125.532 133.458 125.544C133.741 125.64 134.029 125.792 134.297 125.967C133.87 125.524 133.431 125.087 132.961 124.661Z" fill="#263238"/>
<path d="M133.056 126.683C133.121 126.725 133.18 126.764 133.238 126.816C133.255 126.832 133.233 126.855 133.215 126.847C133.146 126.816 133.089 126.778 133.026 126.736C132.993 126.715 133.023 126.661 133.056 126.683Z" fill="#263238"/>
<path d="M148.133 149.811H135.188L136.232 137.715L136.462 135.047H146.858L147.087 137.715L148.133 149.811Z" fill="#455A64"/>
<path d="M147.085 137.715H136.23L136.46 135.047H146.856L147.085 137.715Z" fill="#263238"/>
<path d="M147.478 133.182H135.844V135.822H147.478V133.182Z" fill="#455A64"/>
<path opacity="0.8" d="M125.266 121.284H9.1875V144.689H125.266V121.284Z" fill="#FFC727"/>
<path opacity="0.8" d="M0 144.688L9.18853 135.26V144.688H0Z" fill="#FFC727"/>
<path d="M93.7695 126.823H14.2266V127.578H93.7695V126.823Z" fill="white"/>
<path d="M112.633 131.101H14.2266V131.856H112.633V131.101Z" fill="white"/>
<path d="M74.2217 135.379H14.2266V136.134H74.2217V135.379Z" fill="white"/>
<path d="M119.519 139.656H14.2266V140.411H119.519V139.656Z" fill="white"/>
<path opacity="0.9" d="M152 79.9051H65.1016V61.1426H142.811V73.8817L152 79.9051Z" fill="white" stroke="#FFC727" stroke-miterlimit="10"/>
<path d="M133.286 65.561H70.9922V66.3158H133.286V65.561Z" fill="#FFC727"/>
<path d="M118.052 69.8389H70.9922V70.5937H118.052V69.8389Z" fill="#FFC727"/>
<path d="M129.212 74.1167H70.9922V74.8715H129.212V74.1167Z" fill="#FFC727"/>
<path opacity="0.9" d="M152 19.7625H65.1016V1H142.811V13.7391L152 19.7625Z" fill="white" stroke="#FFC727" stroke-miterlimit="10"/>
<path d="M133.286 5.41895H70.9922V6.17376H133.286V5.41895Z" fill="#FFC727"/>
<path d="M118.052 9.69678H70.9922V10.4516H118.052V9.69678Z" fill="#FFC727"/>
<path d="M129.212 13.9746H70.9922V14.7294H129.212V13.9746Z" fill="#FFC727"/>
<path opacity="0.8" d="M9.1875 113.57H77.4236V87.6187H9.1875V113.57Z" fill="#FFC727"/>
<path opacity="0.8" d="M0 113.57L9.18853 104.142V113.57H0Z" fill="#FFC727"/>
<path d="M73.0837 91.6611H13.5273V92.4159H73.0837V91.6611Z" fill="white"/>
<path d="M58.519 95.939H13.5273V96.6938H58.519V95.939Z" fill="white"/>
<path d="M69.1888 100.217H13.5273V100.972H69.1888V100.217Z" fill="white"/>
<path d="M47.4625 104.494H13.5273V105.249H47.4625V104.494Z" fill="white"/>
<path d="M73.0837 108.772H13.5273V109.527H73.0837V108.772Z" fill="white"/>
<path opacity="0.8" d="M9.1875 53.4287H88.3927V27.4775H9.1875V53.4287Z" fill="#FFC727"/>
<path opacity="0.8" d="M0 53.428L9.18853 43.9995V53.428H0Z" fill="#FFC727"/>
<path d="M83.3568 31.519H14.2266V32.2739H83.3568V31.519Z" fill="white"/>
<path d="M66.451 35.7969H14.2266V36.5517H66.451V35.7969Z" fill="white"/>
<path d="M78.8357 40.0747H14.2266V40.8295H78.8357V40.0747Z" fill="white"/>
<path d="M53.6168 44.3525H14.2266V45.1073H53.6168V44.3525Z" fill="white"/>
<path d="M83.3568 48.6309H14.2266V49.3857H83.3568V48.6309Z" fill="white"/>
<path d="M0 149.811L19.0002 149.719L38.0001 149.685L76.0002 149.622L114 149.685L133 149.718L152 149.811L133 149.903L114 149.936L76.0002 150L38.0001 149.936L19.0002 149.903L0 149.811Z" fill="#263238"/>
<path d="M132.279 121.561C131.23 121.975 100.771 122.543 99.579 121.844C99.4492 121.766 99.4849 120.386 99.0369 116.818C99.0144 116.648 98.3197 115.986 97.2353 115.053C93.1619 111.549 83.5898 104.164 83.5898 104.164L98.7903 90.6138L113.52 105.471L117.352 109.333C117.352 109.333 129.796 116.228 131.028 117.139C132.252 118.053 133.328 121.148 132.279 121.561Z" fill="#F7A9A0"/>
<path d="M132.276 121.56C131.226 121.977 100.767 122.542 99.5765 121.845C99.4478 121.767 99.484 120.388 99.0334 116.818C99.0131 116.649 98.3173 115.988 97.2314 115.051C95.8154 113.834 95.1429 113.278 93.0352 111.594L112.36 104.303L113.519 105.471L117.348 109.335C117.348 109.335 129.794 116.227 131.025 117.14C132.248 118.052 133.326 121.147 132.276 121.56Z" fill="#EBEBEB"/>
<path d="M134.369 121.991C133.31 122.369 100.857 122.733 99.6889 121.995C99.4142 121.822 99.1628 119.888 98.9614 117.238C98.936 116.906 95.6491 114.21 95.1992 113.711L115.086 106.838L117.597 109.263C117.597 109.263 132.232 116.251 133.429 117.201C134.619 118.152 135.426 121.614 134.369 121.991Z" fill="#FFC727"/>
<path opacity="0.4" d="M134.369 121.991C133.31 122.369 100.857 122.733 99.6889 121.995C99.4142 121.822 99.1628 119.888 98.9614 117.238C98.936 116.906 95.6491 114.21 95.1992 113.711L115.086 106.838L117.597 109.263C117.597 109.263 132.232 116.251 133.429 117.201C134.619 118.152 135.426 121.614 134.369 121.991Z" fill="black"/>
<path d="M133.92 120.749C128.821 120.682 106.205 120.904 101.16 121.235C101.118 121.238 101.119 121.266 101.16 121.268C106.212 121.448 128.826 121.055 133.921 120.835C134.028 120.83 134.027 120.75 133.92 120.749Z" fill="#263238"/>
<path d="M119.223 109.482C117.212 109.123 114.763 109.468 113.247 110.952C113.188 111.01 113.269 111.095 113.334 111.073C115.305 110.409 117.149 109.976 119.218 109.743C119.363 109.726 119.367 109.508 119.223 109.482Z" fill="#263238"/>
<path d="M120.68 110.361C118.67 110.001 116.22 110.346 114.704 111.831C114.645 111.888 114.726 111.973 114.791 111.952C116.762 111.288 118.606 110.855 120.674 110.621C120.821 110.604 120.824 110.386 120.68 110.361Z" fill="#263238"/>
<path d="M122.141 111.238C120.13 110.878 117.681 111.224 116.165 112.708C116.106 112.766 116.187 112.851 116.252 112.829C118.223 112.165 120.066 111.732 122.136 111.499C122.281 111.482 122.284 111.264 122.141 111.238Z" fill="#263238"/>
<path d="M123.598 112.117C121.587 111.757 119.138 112.102 117.622 113.587C117.563 113.644 117.644 113.729 117.709 113.707C119.68 113.044 121.524 112.611 123.593 112.377C123.739 112.36 123.742 112.143 123.598 112.117Z" fill="#263238"/>
<path d="M122.873 104.679C122.072 103.574 120.61 104.093 119.781 104.825C118.438 106.01 117.272 107.851 116.745 109.576C116.733 109.619 116.76 109.644 116.793 109.65C116.801 109.807 116.94 109.971 117.111 109.903C118.76 109.254 120.602 108.77 122.007 107.621C122.828 106.95 123.63 105.724 122.873 104.679ZM119.415 108.394C118.612 108.734 117.797 109.031 117.005 109.401C117.6 108.476 118.153 107.529 118.838 106.666C119.165 106.254 119.508 105.837 119.887 105.474C120.477 104.91 122.826 103.696 122.498 105.958C122.318 107.206 120.373 107.99 119.415 108.394Z" fill="#263238"/>
<path d="M111.64 109.1C113.301 109.804 115.201 109.744 116.961 109.898C117.144 109.914 117.233 109.717 117.198 109.564C117.228 109.549 117.248 109.517 117.224 109.48C116.251 107.972 114.632 106.536 113.022 105.78C112.027 105.314 110.482 105.232 110.012 106.521C109.567 107.74 110.67 108.69 111.64 109.1ZM110.717 107.644C109.79 105.564 112.375 106.06 113.095 106.435C113.557 106.675 114 106.977 114.426 107.28C115.318 107.914 116.104 108.666 116.926 109.385C116.066 109.255 115.203 109.202 114.339 109.105C113.31 108.989 111.229 108.79 110.717 107.644Z" fill="#263238"/>
<path d="M113.732 104.641L94.9421 114.631C94.9421 114.631 75.3681 96.4496 73.5753 96.3157C71.8341 96.1856 45.4477 114.514 32.1913 114.572C18.46 114.631 17.7656 99.8696 17.7656 99.8696L37.7957 95.15C52.2343 87.8482 67.2743 74.7341 77.1107 75.9574C87.7937 77.2857 113.732 104.641 113.732 104.641Z" fill="#263238"/>
<path d="M109.136 102.097C105.964 103.705 106.854 103.2 103.699 104.843C102.155 105.647 94.3858 109.67 93.0672 110.665C93.038 110.687 93.0646 110.74 93.0989 110.728C94.6516 110.194 102.334 106.001 103.864 105.168C106.989 103.466 106.074 103.922 109.182 102.186C109.24 102.153 109.196 102.067 109.136 102.097Z" fill="#37474F"/>
<path d="M91.6148 110.025C87.9414 106.702 75.9059 95.8823 75.4173 95.4801C75.0242 95.1563 74.6267 94.7348 74.1643 94.5157C73.7698 94.3288 73.3819 94.4317 73.005 94.6118C72.4486 94.8778 71.9036 95.1706 71.352 95.4468C70.2664 95.9905 69.1809 96.5342 68.0953 97.0779C63.8858 99.1861 59.7003 101.349 55.4584 103.388C51.379 105.349 48.4671 107.194 44.2064 108.702C39.9692 110.201 35.5905 111.342 31.1365 111.899C30.5875 111.968 30.0373 112.027 29.4864 112.08C29.4466 112.083 29.4474 112.146 29.4879 112.144C33.8637 111.926 38.1705 111.008 42.3513 109.689C46.5722 108.357 49.4362 106.629 53.4447 104.736C57.5992 102.774 61.6937 100.676 65.7889 98.5879C67.9508 97.4858 70.1082 96.3723 72.276 95.2826C72.7676 95.0356 73.4678 94.5002 74.0294 94.7651C74.2716 94.8793 74.4748 95.0817 74.6776 95.255C74.918 95.4601 75.1584 95.6655 75.3985 95.8706C76.3281 96.664 91.0805 109.702 91.5642 110.078C91.6011 110.107 91.6505 110.057 91.6148 110.025Z" fill="#37474F"/>
<path d="M17.7155 99.8697C17.7155 99.8697 15.4688 113.198 21.9648 118.435C28.4604 123.673 76.0473 123.04 83.2675 120.646C90.4881 118.252 90.7137 106.296 82.8206 103.526C75.3135 100.891 43.3736 99.6106 42.5852 99.2878C42.388 99.2073 45.4179 97.3431 45.4046 97.2296L38.1368 94.9512L17.7155 99.8697Z" fill="#263238"/>
<path d="M27.5767 99.5349C27.5675 99.4778 27.4812 99.4963 27.4812 99.5508C27.4874 101.057 26.9436 102.642 25.9793 103.785C24.8738 105.094 23.2433 105.828 21.7658 106.595C21.6238 106.668 21.7315 106.896 21.8786 106.851C22.779 106.574 23.6666 106.171 24.4874 105.698C25.2348 105.267 25.9258 104.727 26.4498 104.024C27.4155 102.729 27.8381 101.149 27.5767 99.5349Z" fill="#37474F"/>
<path d="M42.0623 97.8828C41.7326 97.4507 41.3735 97.0398 41.0295 96.6195C40.216 95.6263 39.3989 94.629 38.5464 93.6706C38.4656 93.5798 38.3075 93.7081 38.3819 93.8076C38.9561 94.5775 39.5641 95.3236 40.1618 96.0743C40.4682 96.4591 40.7758 96.8431 41.0855 97.2252C41.375 97.582 41.733 97.9361 41.9476 98.3474C42.1703 98.7742 41.8776 99.1393 41.4461 99.1866C41.0601 99.229 40.7039 99.0269 40.4074 98.7942C39.7345 98.2653 39.2053 97.5078 38.6452 96.8616C38.3027 96.4662 37.9605 96.0712 37.6124 95.6808C37.2425 95.2653 36.8484 94.8715 36.4796 94.4572C36.4557 94.4303 36.4099 94.4678 36.4313 94.4977C36.754 94.9506 37.0515 95.425 37.3742 95.8794C37.6968 96.3334 38.0243 96.7829 38.3572 97.229C38.6725 97.6512 38.9988 98.0644 39.3347 98.47C39.6202 98.8143 39.9443 99.1499 40.3267 99.3807C40.9443 99.7537 42.0166 99.834 42.3455 99.0152C42.5077 98.6107 42.3049 98.2006 42.0623 97.8828Z" fill="#37474F"/>
<path d="M82.2797 120.691C79.7937 120.738 77.3091 120.887 74.8227 120.941C72.3566 120.995 69.8898 121.009 67.4233 120.986C62.4697 120.937 57.5172 120.743 52.5747 120.393C47.5805 120.039 42.194 119.528 37.233 118.823C34.8591 118.486 32.4528 118.205 30.1069 117.687C27.9903 117.22 26.0707 116.318 24.4862 114.741C21.273 111.543 20.0238 106.842 19.5109 102.35C19.4423 101.747 19.3859 101.144 19.3383 100.539C19.335 100.497 19.2745 100.499 19.2774 100.54C19.5676 105.146 20.2653 109.947 23.0887 113.65C24.3103 115.252 25.8645 116.564 27.6876 117.314C29.9092 118.227 32.3753 118.441 34.7212 118.768C39.7021 119.461 45.1103 119.997 50.12 120.395C55.1613 120.796 60.2149 121.046 65.2702 121.123C70.3249 121.199 75.385 121.126 80.4349 120.872C81.0518 120.841 81.6665 120.803 82.2819 120.748C82.3158 120.746 82.3154 120.69 82.2797 120.691Z" fill="#37474F"/>
<path d="M66.6081 101.097C65.0432 100.862 63.4816 100.631 61.9082 100.463C60.3193 100.293 58.7279 100.148 57.1364 100.009C53.9881 99.7358 50.8318 99.4902 47.6758 99.3385C45.8822 99.2522 44.0898 99.2432 42.2952 99.2662C42.2373 99.267 42.2424 99.3514 42.2974 99.3567C45.4534 99.6503 48.6109 99.8542 51.7728 100.07C54.9273 100.285 58.0778 100.569 61.225 100.877C63.01 101.052 64.7965 101.187 66.5834 101.336C66.7136 101.346 66.7394 101.117 66.6081 101.097Z" fill="#37474F"/>
<path d="M45.7756 97.0679C44.5057 97.606 43.3154 98.3101 42.1531 99.0581C41.0056 99.7966 39.8345 100.567 38.7995 101.465C38.77 101.491 38.8094 101.529 38.8389 101.515C40.0687 100.931 41.2497 100.201 42.4205 99.5015C43.5964 98.7993 44.7656 98.0831 45.8512 97.2397C45.9279 97.1803 45.8803 97.0233 45.7756 97.0679Z" fill="#37474F"/>
<path d="M35.4165 70.905C35.8391 78.4948 38.0072 90.5744 41.741 91.2248C45.1496 91.8188 53.8522 87.0834 57.3939 85.6642C60.9577 84.2359 55.2622 74.9004 53.2073 75.8448C50.0236 77.3079 45.153 80.0748 44.4822 79.704C43.6459 79.242 42.9225 76.7823 39.0526 69.1975C37.4692 66.095 35.2365 67.6743 35.4165 70.905Z" fill="#F7A9A0"/>
<path d="M57.1774 73.4209C58.773 73.1636 60.5823 72.7376 62.2402 73.0872C63.8976 73.4372 64.87 75.954 64.7527 76.5991C64.6359 77.2442 63.2782 81.1488 61.6148 80.8309C59.9514 80.5131 61.5163 77.6138 61.5178 77.2476C61.5193 76.8813 61.5388 76.4163 61.2188 76.3898C60.8987 76.3634 54.9219 77.9872 54.9219 77.9872L57.1774 73.4209Z" fill="#F7A9A0"/>
<path d="M57.2399 73.6774C57.3339 73.6955 62.1175 72.7432 63.7753 73.0928C65.4328 73.4428 66.4052 75.9596 66.2879 76.6047C66.1706 77.2498 64.8133 81.1544 63.15 80.8365C61.4866 80.5187 63.0515 77.619 63.053 77.2532C63.0545 76.8869 63.074 76.4219 62.7539 76.3954C62.4339 76.369 56.457 77.9928 56.457 77.9928L57.2399 73.6774Z" fill="#F7A9A0"/>
<path d="M62.624 80.5127C62.4676 80.2036 62.506 79.7912 62.53 79.4514C62.5561 79.0806 62.6524 78.7166 62.7881 78.3731C62.9061 78.0742 63.0915 77.79 63.1601 77.473C63.2239 77.1798 63.183 76.809 63.0919 76.5264C63.0067 76.2626 62.7479 76.2978 62.5241 76.3338C62.1944 76.3867 61.864 76.4874 61.5436 76.5805C61.1962 76.6815 60.8511 76.7904 60.5056 76.8975C60.1505 77.0076 59.7799 77.1014 59.4411 77.2577C59.416 77.2694 59.423 77.3129 59.4532 77.308C59.763 77.26 60.0653 77.1605 60.3677 77.0799C60.7114 76.9883 61.0554 76.899 61.4005 76.8143C61.7228 76.7352 62.0414 76.6383 62.3651 76.5649C62.4794 76.5392 62.7125 76.4632 62.8279 76.5139C62.9499 76.5676 62.9544 76.8994 62.9636 77.0087C62.9931 77.353 62.8843 77.6187 62.7387 77.9202C62.5985 78.21 62.4787 78.51 62.3968 78.8229C62.3213 79.1113 62.2741 79.4264 62.305 79.7253C62.3345 80.0129 62.475 80.2671 62.5683 80.535C62.5812 80.5728 62.6413 80.5471 62.624 80.5127Z" fill="#263238"/>
<path d="M51.1602 77.1493C51.1602 77.1493 56.5514 73.7192 57.6665 73.0461C59.9029 71.6961 68.6268 69.8463 69.7791 69.9394C70.9314 70.0325 70.9082 72.4872 64.9575 73.9053C61.821 74.6529 60.9958 76.2586 60.88 77.2136C60.7639 78.1689 61.3233 80.097 62.8797 80.3498C64.4358 80.6025 65.8605 78.4758 67.33 78.4898C68.7994 78.5038 67.3746 80.9998 66.0899 82.3539C64.8052 83.7076 62.7517 84.6346 61.3192 84.8942C59.8867 85.1537 55.4102 86.1946 55.4102 86.1946L51.1602 77.1493Z" fill="#F7A9A0"/>
<path d="M65.0056 79.6002C64.339 79.9525 63.569 80.4262 62.7965 80.3093C61.9979 80.1886 61.5782 79.5616 61.3305 78.828C61.0805 78.0883 61.0034 77.2847 61.3227 76.5534C61.6103 75.8947 62.121 75.3619 62.7066 74.9741C63.4311 74.494 64.2409 74.1894 65.0639 73.9424C65.1008 73.9314 65.0801 73.8754 65.0421 73.8849C64.2704 74.0755 61.8854 74.5833 61.0779 76.5068C60.7479 77.2927 60.8555 78.0706 61.1033 78.828C61.3316 79.5257 61.7206 80.2313 62.4595 80.4368C63.3607 80.6876 64.2866 80.0747 65.0469 79.6305C65.0809 79.6112 65.0407 79.5817 65.0056 79.6002Z" fill="#263238"/>
<path d="M51.2594 76.5461L56.1632 88.8455C56.1632 88.8455 44.0827 93.0456 41.1715 91.4406C38.2603 89.8361 35.2359 79.8388 34.7599 71.4826C34.2835 63.1259 38.5077 67.0986 39.9152 69.9219C41.3227 72.7451 44.3128 79.221 44.5458 79.1877C44.7788 79.1544 51.2594 76.5461 51.2594 76.5461Z" fill="#37474F"/>
<path d="M52.7158 89.9335C51.9739 90.1563 51.1587 90.3837 50.308 90.6043L46.3164 78.5152C47.0214 78.2432 47.8419 77.914 48.6122 77.6079C49.8751 81.3911 51.4094 85.9876 52.7158 89.9335Z" fill="#FFC727"/>
<path d="M49.3869 90.8392C49.1295 90.9024 48.8677 90.9644 48.607 91.0219L44.6719 79.1489C44.8179 79.0974 45.072 79.0009 45.3998 78.8765C46.6435 82.5911 48.121 87.0228 49.3869 90.8392Z" fill="#FFC727"/>
<path d="M47.7586 91.2088C45.0779 91.7763 42.4931 92.0676 41.2766 91.494C41.2386 91.4774 41.2058 91.4573 41.1723 91.4415C38.2622 89.8342 35.2386 79.8412 34.7596 71.4834C34.6744 69.995 34.7415 68.8958 34.9104 68.1149C34.9178 68.0744 34.9288 68.0389 34.9362 67.9984C34.9521 67.936 34.9679 67.8735 34.9882 67.8119C34.993 67.7846 35.0015 67.7631 35.0111 67.7366C35.0262 67.6787 35.0457 67.6215 35.0642 67.5693L47.7586 91.2088Z" fill="#263238"/>
<path d="M52.5089 87.0297C52.3618 86.598 52.211 86.1682 52.0591 85.7384C51.7548 84.878 49.9185 79.7688 49.1173 78.1706C49.0959 78.1278 49.0332 78.1596 49.0443 78.2039C49.4882 79.9519 51.4374 84.9961 51.7633 85.8281C51.93 86.2537 52.0978 86.679 52.2692 87.1027C52.4422 87.5291 52.6627 87.9332 52.8334 88.3596C52.85 88.4016 52.9156 88.3838 52.9005 88.3396C52.7523 87.9094 52.6557 87.461 52.5089 87.0297Z" fill="#263238"/>
<path d="M45.2264 98.6558L17.1445 100.329C17.1792 99.7406 21.9543 78.2297 29.6856 68.2507C31.7527 65.5826 36.2333 63.6019 38.3679 68.3203C40.6231 73.3047 45.6095 98.29 45.2264 98.6558Z" fill="#455A64"/>
<path d="M36.6046 72.2605C34.9615 72.2938 32.7934 69.248 32.151 67.0267C32.1079 66.8743 32.613 65.4838 33.1492 63.7642C33.4707 62.7192 33.8044 61.5482 34.0338 60.457C34.0799 60.2327 40.3547 63.5962 40.3547 63.5962C40.3547 63.5962 39.2182 65.7385 38.8296 67.6435C38.799 67.8031 38.7831 67.9545 38.7813 68.1013C38.779 68.1225 38.7798 68.1486 38.7754 68.1777C38.7315 69.0585 38.1927 72.2272 36.6046 72.2605Z" fill="#F7A9A0"/>
<path d="M34.4346 60.5762C34.356 62.4895 34.5374 67.1947 38.0792 68.0653C38.3258 68.1262 38.5559 68.164 38.7694 68.1784C38.7775 68.1481 38.775 68.1243 38.7768 68.1016C38.7805 67.9537 38.7938 67.8042 38.8233 67.6449C39.2134 65.7365 40.3513 63.595 40.3513 63.595C40.3513 63.595 35.8254 61.1679 34.4346 60.5762Z" fill="#263238"/>
<path d="M34.9858 52.0286C33.6746 54.248 33.1915 61.5222 34.4758 63.5067C36.3376 66.3836 40.2432 67.6307 42.8421 65.1332C45.3613 62.7125 45.827 53.2215 44.3126 51.3275C42.0821 48.5379 36.9231 48.7502 34.9858 52.0286Z" fill="#F7A9A0"/>
<path d="M40.5822 58.0034C40.5788 57.9845 40.5438 58.0254 40.5438 58.0454C40.542 58.5369 40.4597 59.0991 40.0213 59.2463C40.0077 59.2508 40.0084 59.2754 40.0246 59.2739C40.5552 59.2168 40.6574 58.4688 40.5822 58.0034Z" fill="#263238"/>
<path d="M40.1682 57.4752C39.4012 57.3878 39.2865 58.9685 39.9974 59.0499C40.6969 59.1297 40.8112 57.5486 40.1682 57.4752Z" fill="#263238"/>
<path d="M43.2425 58.2222C43.2477 58.2036 43.2783 58.2483 43.2761 58.268C43.2256 58.7564 43.2477 59.3247 43.6677 59.5203C43.6806 59.5264 43.6776 59.551 43.6618 59.5476C43.1404 59.4314 43.1183 58.6766 43.2425 58.2222Z" fill="#263238"/>
<path d="M43.7048 57.7432C44.4769 57.742 44.4227 59.3262 43.7073 59.3273C43.0034 59.3288 43.0576 57.7443 43.7048 57.7432Z" fill="#263238"/>
<path d="M39.6808 56.4396C39.8946 56.4026 40.086 56.3314 40.294 56.2724C40.5285 56.2054 40.7221 56.1771 40.8876 55.9796C40.9765 55.8736 40.9584 55.6689 40.8663 55.5709C40.6513 55.3424 40.3445 55.3507 40.0587 55.4196C39.749 55.4941 39.5288 55.6326 39.3345 55.8906C39.1465 56.1404 39.3987 56.4884 39.6808 56.4396Z" fill="#263238"/>
<path d="M44.4811 57.0073C44.2669 56.9721 44.0751 56.9029 43.8668 56.8454C43.6316 56.7807 43.438 56.7538 43.2706 56.5578C43.181 56.4526 43.1968 56.248 43.2883 56.1488C43.501 55.9184 43.8082 55.9245 44.0943 55.9903C44.4048 56.0618 44.626 56.1988 44.8226 56.4549C45.0128 56.7035 44.7636 57.0538 44.4811 57.0073Z" fill="#263238"/>
<path d="M39.2987 62.3114C39.3569 62.4647 39.3975 62.6573 39.5498 62.7443C39.6958 62.8279 39.9045 62.8404 40.0682 62.8495C40.0844 62.8502 40.0918 62.8718 40.0771 62.8812C39.8883 63.0004 39.6025 62.9974 39.4163 62.8672C39.2345 62.7401 39.2142 62.5199 39.2478 62.3122C39.2526 62.2831 39.2902 62.2891 39.2987 62.3114Z" fill="#263238"/>
<path d="M40.0512 61.065C40.2876 61.5103 40.6637 61.7725 41.0822 61.8894C41.2688 61.9428 41.4679 61.9647 41.6648 61.9613C41.7031 61.9632 41.7419 61.9621 41.7773 61.9568C41.8123 61.9549 41.844 61.9534 41.8831 61.9484C41.9395 61.9443 41.9734 61.8993 41.9867 61.8463V61.8425C41.9878 61.8247 41.9885 61.81 41.9856 61.7922C41.9856 61.7922 41.9856 61.7922 41.986 61.7884L41.9882 61.7453C42.0254 61.3692 42.0313 60.793 42.0313 60.793C42.1607 60.8724 42.8222 61.2402 42.8259 61.0427C42.8488 59.4048 42.8746 57.583 42.5604 55.9482C42.5527 55.8937 42.4716 55.8997 42.4723 55.9538C42.3894 57.527 42.5767 59.1047 42.518 60.6866C42.3057 60.5849 41.9609 60.3999 41.7684 60.3893C41.7149 60.401 41.7765 61.5031 41.7466 61.6707C41.7466 61.6707 41.7463 61.6779 41.7422 61.6885C41.1191 61.7222 40.6674 61.4956 40.0988 61.0245C40.0656 60.9939 40.0254 61.0238 40.0512 61.065Z" fill="#263238"/>
<path d="M41.2744 61.8939C41.2744 61.8939 40.8884 62.2386 40.4488 62.2953C40.287 62.3169 40.1203 62.3017 39.9606 62.2174C39.6328 62.0448 39.6944 61.7149 39.8187 61.4489C39.9201 61.2299 40.0668 61.0547 40.0668 61.0547C40.0668 61.0547 40.4706 61.6578 41.2744 61.8939Z" fill="#263238"/>
<path d="M40.4488 62.2951C40.287 62.3167 40.1203 62.3015 39.9606 62.2172C39.6328 62.0446 39.6944 61.7147 39.8187 61.4487C40.1833 61.5721 40.4971 61.9156 40.4488 62.2951Z" fill="#FF9BBC"/>
<path d="M33.2711 57.3403C35.0278 57.9355 36.5031 55.9907 36.5208 54.1209C36.5208 54.1209 41.116 56.0081 42.314 52.1501C42.314 52.1501 42.8273 54.094 44.97 54.7145L45.1441 56.2972C45.6677 56.2798 46.5394 54.9923 45.6219 53.5655C45.6219 53.5655 46.0231 51.5912 44.9107 50.0536C43.7982 48.516 42.2134 48.9227 42.2134 48.9227C42.2134 48.9227 41.3347 47.6764 39.5253 47.4498C37.7162 47.2232 36.589 48.6745 36.589 48.6745C36.589 48.6745 34.1189 48.5224 33.2922 50.1346C32.4658 51.7471 33.0455 53.1236 33.0455 53.1236C33.0455 53.1236 32.2874 53.6438 32.2247 55.1875C32.1848 56.1807 32.7442 57.1617 33.2711 57.3403Z" fill="#263238"/>
<path d="M42.2939 51.7744C42.2464 52.1024 42.1793 52.4263 42.0675 52.7339C41.9713 53.0464 41.8301 53.3397 41.6656 53.6143C41.3271 54.1565 40.8183 54.5754 40.2165 54.7331C39.6195 54.9371 38.9724 54.8251 38.3514 54.7278C38.0457 54.6378 37.7312 54.5697 37.4285 54.4615C37.1268 54.3487 36.8271 54.2284 36.5195 54.1206C36.8046 54.2757 37.0977 54.4183 37.3886 54.5682C37.687 54.6995 38.0026 54.7895 38.3109 54.9022C38.9451 55.0396 39.6217 55.158 40.2777 54.9575C40.9267 54.7691 41.4908 54.3022 41.8146 53.7067C42.1369 53.1111 42.2917 52.438 42.2939 51.7744Z" fill="#263238"/>
<path d="M44.1833 54.6782C43.7028 54.3422 43.2706 53.9634 42.938 53.5049C42.7651 53.2809 42.6372 53.027 42.5288 52.7641C42.413 52.5004 42.3702 52.2136 42.3127 51.9185C42.2754 52.2132 42.2754 52.5257 42.3628 52.8204C42.4384 53.1171 42.5745 53.4001 42.7559 53.6441C42.938 53.8882 43.1523 54.1053 43.396 54.2779C43.639 54.4508 43.9004 54.5968 44.1833 54.6782Z" fill="#263238"/>
<path d="M35.0301 58.0704C35.0301 58.0704 34.0032 55.4439 32.8767 55.7685C31.7498 56.0931 32.1647 59.644 33.2358 60.3719C34.307 61.0999 34.9833 60.0957 34.9833 60.0957L35.0301 58.0704Z" fill="#F7A9A0"/>
<path d="M33.0208 56.7827C33.0023 56.7763 32.9924 56.8028 33.0071 56.8134C33.752 57.3518 34.0071 58.2375 34.1262 59.121C33.9526 58.7502 33.6583 58.4997 33.183 58.701C33.1579 58.7116 33.1708 58.7509 33.1952 58.7513C33.5488 58.7577 33.7781 58.8758 33.943 59.2068C34.0595 59.4414 34.1137 59.7153 34.1775 59.9692C34.1989 60.054 34.3408 60.0453 34.3327 59.9518C34.332 59.945 34.3309 59.9378 34.3305 59.9306C34.5953 58.8599 34.1218 57.1599 33.0208 56.7827Z" fill="#263238"/>
<path d="M28.2566 73.0845C28.143 80.7178 31.6869 95.7122 35.3942 97.7678C39.6863 100.148 56.4785 97.9759 60.0128 96.2325C61.4196 95.5386 56.3067 86.0851 54.6617 86.3722C47.766 87.5761 41.8183 87.7339 41.0923 86.9957C39.9776 85.8622 36.1589 77.2138 33.6361 71.8197C30.466 65.0423 28.3074 69.6593 28.2566 73.0845Z" fill="#F7A9A0"/>
<path d="M59.5555 96.3769C60.3078 96.2536 65.8189 93.5654 67.5575 92.1413C68.6666 91.2328 70.5782 89.6604 72.3669 86.9162C74.4311 83.7494 75.5653 81.3597 75.4233 80.1649C75.2585 78.7771 75.1818 78.5425 70.7891 83.614C68.3038 86.4834 66.4273 86.5012 64.862 86.1709C58.4467 84.8171 53.2461 86.6003 53.2461 86.6003C53.2461 86.6003 56.6643 96.851 59.5555 96.3769Z" fill="#F7A9A0"/>
<path d="M78.6121 76.3504L68.2594 85.6056C67.9722 85.858 67.4917 85.9257 67.1857 85.7521L61.7022 82.6409C61.3958 82.4672 61.3796 82.1176 61.6631 81.863L72.0158 72.6077C72.3052 72.3516 72.7835 72.2876 73.0895 72.4613L78.573 75.5725C78.879 75.7462 78.8975 76.092 78.6121 76.3504Z" fill="#37474F"/>
<path d="M78.0781 75.2925L72.5939 72.1809C72.2875 72.0073 71.8074 72.0731 71.5209 72.3292L61.169 81.5826C60.8832 81.8383 60.8994 82.1868 61.2055 82.3605L66.6897 85.472C66.9961 85.6461 67.4773 85.5795 67.7631 85.3241L78.115 76.0711C78.4018 75.8146 78.3845 75.4665 78.0781 75.2925ZM67.7365 84.8409C67.464 85.0846 67.0212 85.1554 66.7465 84.9995L61.8401 82.2156C61.565 82.0593 61.5628 81.7362 61.8353 81.4925L71.4748 72.8763C72.0297 72.3803 72.2793 72.4821 72.5544 72.6383L73.5371 73.1957C73.5943 73.2282 73.5813 73.3076 73.5076 73.3739L73.4759 73.4022C73.303 73.5566 73.4055 73.6156 73.5327 73.6879L75.8056 74.9773C75.9335 75.05 76.036 75.1075 76.209 74.9527L76.2407 74.9243C76.3144 74.8585 76.4199 74.8313 76.4781 74.8642L77.4612 75.4219C77.7355 75.5778 77.8845 75.77 77.376 76.2244L67.7365 84.8409Z" fill="#263238"/>
<path d="M75.1952 74.3158L74.5754 73.964C74.5544 73.9519 74.5529 73.9284 74.5721 73.911C74.5916 73.8936 74.6244 73.8894 74.6454 73.9012L75.2653 74.253C75.2863 74.2651 75.2878 74.2886 75.2686 74.306C75.2494 74.3234 75.2166 74.3276 75.1952 74.3158Z" fill="white"/>
<path d="M77.3769 76.224L67.737 84.8402C67.4645 85.0839 67.0217 85.1547 66.747 84.9988L61.8406 82.2149C61.5655 82.059 61.5633 81.7355 61.8358 81.4918L71.4753 72.8756C72.0302 72.3796 72.2798 72.4814 72.5549 72.6376L73.5376 73.1953C73.5948 73.2279 73.5818 73.3073 73.5081 73.3735L73.4764 73.4019C73.3035 73.5563 73.406 73.6153 73.5332 73.6876L75.8061 74.977C75.934 75.0496 76.0365 75.1071 76.2095 74.9524L76.2412 74.924C76.3149 74.8582 76.4204 74.8309 76.4786 74.8639L77.4617 75.4216C77.7364 75.5774 77.885 75.7696 77.3769 76.224Z" fill="white"/>
<path d="M77.3746 76.2241L76.6552 76.867L70.7539 73.5189L71.4733 72.8761C72.0283 72.3801 72.2779 72.4819 72.553 72.6381L73.536 73.1958C73.5932 73.2284 73.5803 73.3078 73.5065 73.3736L73.4748 73.402C73.3019 73.5564 73.4044 73.6154 73.5312 73.6873L75.8041 74.9767C75.9321 75.049 76.0349 75.1069 76.2079 74.9525L76.2396 74.9241C76.3133 74.8583 76.4192 74.8311 76.4771 74.864L77.4597 75.4217C77.7341 75.5775 77.883 75.7697 77.3746 76.2241Z" fill="#FFC727"/>
<path d="M71.7079 73.5434L71.6836 73.3107L72.0077 73.2759L72.0085 73.3145L71.7415 73.3436L71.7614 73.5351L71.7079 73.5434Z" fill="white"/>
<path d="M76.7995 76.124C76.7821 76.1395 76.7526 76.1433 76.7338 76.1327C76.715 76.1221 76.7135 76.1005 76.7309 76.085C76.7482 76.0695 76.7777 76.0657 76.7965 76.0763C76.8157 76.0869 76.8168 76.1085 76.7995 76.124Z" fill="white"/>
<path d="M76.6862 76.2241C76.6689 76.2396 76.6394 76.2434 76.6205 76.2328C76.6017 76.2222 76.6003 76.2006 76.6176 76.1851C76.6349 76.1696 76.6644 76.1658 76.6832 76.1764C76.702 76.1874 76.7035 76.2086 76.6862 76.2241Z" fill="white"/>
<path d="M76.5768 76.3237C76.5595 76.3392 76.53 76.343 76.5112 76.3324C76.4924 76.3218 76.4909 76.3002 76.5082 76.2847C76.5256 76.2692 76.555 76.2654 76.5739 76.276C76.593 76.287 76.5941 76.3082 76.5768 76.3237Z" fill="white"/>
<path d="M73.1581 73.2927C73.1522 73.2934 73.1459 73.2942 73.14 73.2949C73.1367 73.2953 73.133 73.2957 73.1297 73.2965C73.1267 73.2617 73.1087 73.2337 73.0729 73.2136C73.0375 73.1936 72.9947 73.1871 72.9464 73.1928C72.9464 73.1905 72.9464 73.1879 72.946 73.1856C72.9457 73.1814 72.9457 73.1769 72.9453 73.1727V73.1724H72.9457H72.9468C72.9542 73.1716 72.9612 73.1708 72.9685 73.1705C72.9837 73.1693 72.998 73.1701 73.0124 73.1716C73.0294 73.1735 73.0456 73.1769 73.0604 73.1822C73.0674 73.1848 73.074 73.1879 73.081 73.1905C73.0832 73.1917 73.0972 73.1996 73.0972 73.1996C73.1013 73.2023 73.105 73.2049 73.109 73.2075C73.1194 73.2151 73.1282 73.2238 73.1352 73.2333C73.1404 73.2401 73.1448 73.2473 73.1481 73.2548C73.1518 73.2628 73.1544 73.2711 73.1559 73.2798C73.1573 73.284 73.1577 73.2881 73.1581 73.2927Z" fill="white"/>
<path d="M72.9507 73.2346C72.9503 73.2278 72.95 73.221 72.9492 73.2138C72.9817 73.2096 73.0115 73.2123 73.0385 73.2232C73.0783 73.2395 73.0989 73.2656 73.1022 73.3004C73.0927 73.3016 73.0831 73.3031 73.0735 73.3042C73.0716 73.2811 73.0595 73.2622 73.0355 73.2486C73.0115 73.2353 72.9828 73.2308 72.9507 73.2346Z" fill="white"/>
<path d="M73.0418 73.3083C73.0322 73.3094 73.023 73.311 73.0134 73.3121C73.0123 73.3004 73.006 73.2905 72.9938 73.2837C72.9817 73.2769 72.9669 73.2746 72.9503 73.2765C72.95 73.2697 72.9496 73.2629 72.9492 73.2557C72.9953 73.2485 73.0399 73.2712 73.0418 73.3083Z" fill="white"/>
<path d="M72.9848 73.3123C72.9778 73.3184 72.9664 73.32 72.9591 73.3157C72.9517 73.3115 72.951 73.303 72.958 73.2969C72.9646 73.2907 72.9764 73.2892 72.9837 73.2934C72.9911 73.2976 72.9914 73.3061 72.9848 73.3123Z" fill="white"/>
<path d="M72.2051 72.7907C72.2251 72.7729 72.2586 72.7687 72.28 72.7808C72.3018 72.7929 72.3032 72.8175 72.2833 72.8349C72.2634 72.8527 72.2299 72.8572 72.2085 72.8448C72.1871 72.8327 72.1856 72.8084 72.2051 72.7907Z" fill="white"/>
<path d="M72.3304 72.8607C72.3503 72.8429 72.3839 72.8383 72.4053 72.8508C72.427 72.8629 72.4281 72.8875 72.4086 72.9049C72.3887 72.9227 72.3551 72.9269 72.3337 72.9148C72.312 72.9027 72.3105 72.8781 72.3304 72.8607Z" fill="white"/>
<path d="M72.4476 72.9303C72.4675 72.9125 72.5011 72.9084 72.5225 72.9205C72.5442 72.9326 72.5457 72.9572 72.5258 72.9746C72.5059 72.9924 72.4723 72.9965 72.4509 72.9844C72.4292 72.9723 72.4277 72.9481 72.4476 72.9303Z" fill="white"/>
<path d="M72.5765 73.0006C72.5964 72.9828 72.63 72.9787 72.6514 72.9908C72.6728 73.0029 72.6742 73.0275 72.6547 73.0449C72.6348 73.0627 72.6012 73.0668 72.5798 73.0547C72.5581 73.0426 72.5566 73.0184 72.5765 73.0006Z" fill="white"/>
<path d="M72.7015 73.0695C72.7214 73.0517 72.755 73.0475 72.7764 73.0596C72.7981 73.0717 72.7996 73.0963 72.7797 73.1137C72.7598 73.1315 72.7262 73.1361 72.7048 73.1236C72.6831 73.1115 72.6816 73.0873 72.7015 73.0695Z" fill="white"/>
<path d="M77.198 75.742L76.875 75.5589L76.8872 75.5483L77.0133 75.4355L77.3359 75.6187L77.3238 75.6293L77.198 75.742ZM76.9137 75.5547L77.1951 75.7144L77.2976 75.6228L77.0162 75.4632L76.9137 75.5547Z" fill="white"/>
<path d="M77.2243 75.5902L77.0193 75.4736L76.9297 75.5535L77.1351 75.67L77.2243 75.5902Z" fill="white"/>
<path d="M77.2585 75.7279L77.2305 75.7117L77.3027 75.647L77.3311 75.6632L77.2585 75.7279Z" fill="white"/>
<path d="M62.8275 81.9146L62.7825 81.8893L62.5937 82.058L62.5096 82.0103L62.6059 81.9244L62.4577 81.8401L62.3614 81.9263L62.2773 81.8787L62.4665 81.7099L62.4215 81.6842L62.8168 81.6274L62.8275 81.9146Z" fill="#EBEBEB"/>
<path d="M67.4655 84.3607L66.9766 84.0834L67.0407 84.0259L67.5297 84.3036L67.4655 84.3607Z" fill="#EBEBEB"/>
<path d="M67.3054 84.5023L66.8164 84.2246L66.8806 84.1675L67.3695 84.4448L67.3054 84.5023Z" fill="#EBEBEB"/>
<path d="M67.1491 84.6434L66.6602 84.3661L66.7243 84.3086L67.2133 84.5863L67.1491 84.6434Z" fill="#EBEBEB"/>
<path d="M65.0479 83.1352L64.7729 83.1776L64.7695 82.9771L64.8153 82.9722L64.8178 83.1375L65.0446 83.1023L65.0479 83.1352Z" fill="#EBEBEB"/>
<path d="M64.8207 83.5204C64.7278 83.5204 64.636 83.4988 64.5582 83.4545C64.4454 83.3906 64.3734 83.285 64.3613 83.1647C64.3484 83.0395 64.4015 82.9135 64.5069 82.8193C64.6861 82.6588 64.9712 82.624 65.1695 82.7368C65.282 82.8007 65.3535 82.9059 65.3665 83.0262C65.3794 83.1518 65.3266 83.2778 65.2208 83.372C65.112 83.4693 64.9645 83.5204 64.8207 83.5204ZM64.9225 83.0474C64.8598 83.0474 64.7905 83.0678 64.7488 83.1045C64.7927 83.156 64.9111 83.1469 64.9785 83.0868C64.9937 83.0731 64.9988 83.0625 64.9996 83.0603C64.9778 83.0512 64.9509 83.0474 64.9225 83.0474Z" fill="#EBEBEB"/>
<path d="M73.6207 74.4872C73.7 74.4172 73.836 74.4005 73.9231 74.4493C73.9614 74.4709 73.9843 74.5008 73.9924 74.5341C73.995 74.547 73.9828 74.5606 73.9651 74.5651C73.9467 74.5689 73.929 74.5613 73.926 74.5492C73.9212 74.5254 73.905 74.5053 73.8781 74.4902C73.8482 74.4732 73.8091 74.4675 73.7711 74.4717C73.7335 74.477 73.6974 74.4913 73.6705 74.5156C73.6436 74.5398 73.631 74.5689 73.6329 74.5954C73.6358 74.6226 73.6524 74.6484 73.6823 74.6654C73.7092 74.6805 73.7402 74.6873 73.7741 74.6854C73.7907 74.6851 73.8054 74.6956 73.8043 74.7089C73.8021 74.7221 73.7863 74.7339 73.7682 74.735C73.7214 74.7369 73.6753 74.7274 73.6369 74.7059C73.5499 74.6563 73.5422 74.5583 73.6207 74.4872Z" fill="white"/>
<path d="M73.8484 74.7931L74.0833 74.5831C74.0955 74.5721 74.1158 74.5695 74.1291 74.5771C74.1423 74.5846 74.1438 74.5994 74.1316 74.6104L74.0361 74.6959L74.1486 74.7598L74.2441 74.6747C74.2563 74.6637 74.2762 74.6611 74.2898 74.6686C74.3031 74.6762 74.3046 74.6909 74.2924 74.7019L74.0575 74.9119C74.0454 74.9229 74.0247 74.9251 74.0114 74.9176C73.9978 74.91 73.997 74.8956 74.0092 74.8847L74.1047 74.7991L73.9923 74.7352L73.8968 74.8207C73.8842 74.8317 73.8639 74.834 73.8507 74.8264C73.837 74.8184 73.8363 74.8041 73.8484 74.7931Z" fill="white"/>
<path d="M74.327 75.0005L74.2216 74.9408L74.1485 74.9748C74.136 74.9805 74.1216 74.9797 74.112 74.9744C74.1091 74.9725 74.1069 74.9706 74.105 74.9687C74.0969 74.9578 74.1036 74.943 74.1194 74.9351L74.4498 74.7799C74.4623 74.7743 74.4775 74.7747 74.4867 74.7803C74.497 74.7856 74.5007 74.7958 74.4959 74.8061L74.3576 75.0698C74.3502 75.0826 74.3314 75.0906 74.3145 75.0872C74.3115 75.0868 74.3082 75.0853 74.3049 75.0838C74.2953 75.0785 74.2912 75.0686 74.2968 75.0588L74.327 75.0005ZM74.3532 74.9513L74.4037 74.8549L74.2831 74.9112L74.3532 74.9513Z" fill="white"/>
<path d="M74.7634 75.0022L74.6944 74.9629L74.482 75.1528C74.4695 75.1638 74.4496 75.1664 74.4363 75.1589C74.4234 75.1513 74.4219 75.1369 74.4344 75.1256L74.6468 74.9357L74.5782 74.8967C74.5646 74.8891 74.5646 74.874 74.5764 74.8634C74.5889 74.8524 74.6089 74.8498 74.6221 74.8573L74.8072 74.9625C74.8201 74.9701 74.8216 74.9845 74.8091 74.9958C74.7976 75.0064 74.7763 75.0094 74.7634 75.0022Z" fill="white"/>
<path d="M67.375 77.4814L71.5956 79.876L72.8105 78.7897L68.59 76.3955L67.375 77.4814Z" fill="#455A64"/>
<path d="M71.9846 80.0979L71.5938 79.8762L71.9669 79.5425L71.9846 80.0979Z" fill="#455A64"/>
<path d="M72.3305 78.8608L68.5938 76.7405L68.6166 76.7197L72.3538 78.84L72.3305 78.8608Z" fill="white"/>
<path d="M71.434 78.5317L68.4727 76.8519L68.4959 76.8311L71.4572 78.5113L71.434 78.5317Z" fill="white"/>
<path d="M71.6523 79.0209L68.2227 77.075L68.2459 77.0542L71.6755 79.0001L71.6523 79.0209Z" fill="white"/>
<path d="M71.8305 79.3067L68.0938 77.1864L68.117 77.166L71.8538 79.2859L71.8305 79.3067Z" fill="white"/>
<path d="M71.7094 79.4181L67.9727 77.2982L67.9959 77.2773L71.7327 79.3976L71.7094 79.4181Z" fill="white"/>
<path d="M70.5494 78.9422L67.8477 77.4091L67.8705 77.3887L70.5726 78.9218L70.5494 78.9422Z" fill="white"/>
<path d="M64.5117 80.0462L68.7323 82.4404L69.9473 81.3545L65.7267 78.96L64.5117 80.0462Z" fill="#455A64"/>
<path d="M69.1213 82.6625L68.7305 82.4408L69.1036 82.1074L69.1213 82.6625Z" fill="#455A64"/>
<path d="M69.4715 81.4264L65.7344 79.3061L65.7576 79.2856L69.4944 81.4059L69.4715 81.4264Z" fill="white"/>
<path d="M68.5746 81.0976L65.6133 79.4173L65.6365 79.3965L68.5978 81.0767L68.5746 81.0976Z" fill="white"/>
<path d="M68.7929 81.5864L65.3633 79.6406L65.3865 79.6201L68.8161 81.5656L68.7929 81.5864Z" fill="white"/>
<path d="M68.9711 81.8722L65.2344 79.7523L65.2576 79.7314L68.9944 81.8517L68.9711 81.8722Z" fill="white"/>
<path d="M68.8501 81.9845L65.1133 79.8642L65.1361 79.8438L68.8733 81.9637L68.8501 81.9845Z" fill="white"/>
<path d="M67.69 81.5081L64.9883 79.9754L65.0111 79.9546L67.7132 81.4877L67.69 81.5081Z" fill="white"/>
<path d="M74.4077 77.9355L70.1875 75.5409L71.2126 74.6245L75.4328 77.0191L74.4077 77.9355Z" fill="#FFC727"/>
<path d="M69.8008 75.3195L70.1916 75.5412L70.5648 75.2075L69.8008 75.3195Z" fill="#FFC727"/>
<path d="M74.3621 76.7192L71.25 74.9534L71.2729 74.9326L74.3854 76.6984L74.3621 76.7192Z" fill="white"/>
<path d="M74.8621 77.1847L71.125 75.0644L71.1482 75.0439L74.885 77.1639L74.8621 77.1847Z" fill="white"/>
<path d="M74.7371 77.296L71 75.1761L71.0232 75.1553L74.76 77.2756L74.7371 77.296Z" fill="white"/>
<path d="M74.3121 77.2398L70.8711 75.2875L70.8943 75.2671L74.3354 77.2194L74.3121 77.2398Z" fill="white"/>
<path d="M74.4868 77.5191L70.75 75.3992L70.7732 75.3784L74.51 77.4987L74.4868 77.5191Z" fill="white"/>
<path d="M73.3861 77.0774L70.625 75.5107L70.6479 75.4902L73.409 77.0566L73.3861 77.0774Z" fill="white"/>
<path d="M73.4741 78.7611L69.2539 76.3665L70.0142 75.687L74.2344 78.0816L73.4741 78.7611Z" fill="#FFC727"/>
<path d="M68.8672 76.1448L69.258 76.3665L69.6312 76.0332L68.8672 76.1448Z" fill="#FFC727"/>
<path d="M73.7774 78.1335L70.0469 76.0174L70.0701 75.9966L73.8002 78.1131L73.7774 78.1335Z" fill="white"/>
<path d="M72.9884 77.8702L69.918 76.1282L69.9412 76.1074L73.0113 77.8497L72.9884 77.8702Z" fill="white"/>
<path d="M73.1756 78.1568L69.7969 76.24L69.8201 76.2192L73.1988 78.1363L73.1756 78.1568Z" fill="white"/>
<path d="M72.2781 77.8301L69.6719 76.3515L69.6951 76.3311L72.3013 77.8097L72.2781 77.8301Z" fill="white"/>
<path d="M70.6151 81.3224L66.3945 78.9282L67.4661 77.9702L71.6866 80.3648L70.6151 81.3224Z" fill="#FFC727"/>
<path d="M66.0078 78.7062L66.3987 78.9279L66.7718 78.5942L66.0078 78.7062Z" fill="#FFC727"/>
<path d="M70.6503 80.6316L67.1211 78.6293L67.1443 78.6089L70.6731 80.6111L70.6503 80.6316Z" fill="white"/>
<path d="M70.2416 80.5802L67 78.741L67.0229 78.7202L70.2648 80.5598L70.2416 80.5802Z" fill="white"/>
<path d="M70.7006 80.2935L67.375 78.4067L67.3982 78.3862L70.7239 80.2727L70.7006 80.2935Z" fill="white"/>
<path d="M71.1907 80.3895L67.5 78.2957L67.5232 78.2749L71.2135 80.3687L71.1907 80.3895Z" fill="white"/>
<path d="M70.2316 80.7576L66.875 78.853L66.8979 78.8325L70.2548 80.7371L70.2316 80.7576Z" fill="white"/>
<path d="M67.9038 83.7439L63.6836 81.3493L64.5759 80.5518L68.7965 82.946L67.9038 83.7439Z" fill="#FFC727"/>
<path d="M63.293 81.1277L63.6838 81.3494L64.057 81.0161L63.293 81.1277Z" fill="#FFC727"/>
<path d="M68.3579 82.9938L64.6211 80.8735L64.644 80.853L68.3811 82.9733L68.3579 82.9938Z" fill="white"/>
<path d="M68.2332 83.105L64.4961 80.9847L64.5193 80.9639L68.2565 83.0842L68.2332 83.105Z" fill="white"/>
<path d="M67.8082 83.0488L64.3672 81.0965L64.3904 81.0757L67.8315 83.028L67.8082 83.0488Z" fill="white"/>
<path d="M67.9832 83.3282L64.2461 81.2079L64.2693 81.1875L68.0061 83.3074L67.9832 83.3282Z" fill="white"/>
<path d="M66.8822 82.886L64.1211 81.3196L64.1443 81.2988L66.9054 82.8656L66.8822 82.886Z" fill="white"/>
<path d="M65.6546 86.2932C64.0281 86.0083 69.9128 83.639 70.3361 81.7605C70.7594 79.8816 68.8527 80.134 67.2406 80.9323C61.6446 83.7037 57.9624 82.8131 54.823 85.8838C51.6832 88.9545 65.6546 86.2932 65.6546 86.2932Z" fill="#F7A9A0"/>
<path d="M61.1728 83.0484C60.0666 83.151 58.9703 83.3031 57.9191 83.6886C56.9415 84.0473 56.1152 84.6738 55.3446 85.3749C55.3114 85.4052 55.3508 85.4631 55.3855 85.4332C57.0194 84.0106 59.1411 83.5464 61.178 83.0984C61.2082 83.092 61.2049 83.0458 61.1728 83.0484Z" fill="#263238"/>
<path d="M41.5298 86.607C42.7271 87.1987 51.9613 86.4042 51.9613 86.4042L54.677 99.5977C54.677 99.5977 38.7148 100.33 35.3737 98.379C32.0326 96.4282 28.7302 82.9154 28.2446 75.3374C27.7881 68.213 30.8464 64.204 34.3007 72.1539C34.3007 72.1539 40.904 86.2975 41.5298 86.607Z" fill="#37474F"/>
<path d="M51.7644 99.6917C50.7408 99.711 49.517 99.7299 48.1954 99.7345L45.8945 86.7858C47.0907 86.743 48.3474 86.67 49.3986 86.5996C50.1129 90.5447 50.9831 95.3369 51.7644 99.6917Z" fill="#FFC727"/>
<path d="M46.8108 99.7224C46.4332 99.7206 46.0512 99.7175 45.6655 99.7092L43.3672 86.8218C43.7123 86.8271 44.0855 86.8282 44.4782 86.8237C45.1836 90.6923 46.0372 95.4017 46.8108 99.7224Z" fill="#FFC727"/>
<path d="M35.2544 97.9656C32.5464 95.8219 30.3491 86.8867 29.9321 85.1364C29.6651 84.0158 29.4402 82.8856 29.2241 81.7536C28.7912 79.4876 28.4276 77.2092 28.1021 74.9251C28.0965 74.8861 28.0408 74.8926 28.0431 74.9319C28.1349 76.6648 28.3119 78.3976 28.5663 80.1184C28.3119 79.4475 28.1054 78.7578 27.9287 78.0613C27.9203 78.028 27.8653 78.0416 27.8716 78.0756C28.0198 78.9001 28.2838 79.6923 28.6172 80.4559C28.8838 82.1864 29.2289 83.9038 29.653 85.5954C29.7754 86.0835 32.2153 96.9792 35.3897 98.5547C36.493 99.1022 40.5255 99.5679 41.4057 99.5309C41.444 99.5293 41.461 99.4847 41.4204 99.476C40.277 99.2289 36.222 98.7318 35.2544 97.9656Z" fill="#263238"/>
<path d="M51.646 97.4832C51.5752 97.0318 51.5003 96.5812 51.424 96.1306C51.2717 95.229 50.3388 89.8681 49.8237 88.15C49.81 88.1042 49.7426 88.1242 49.7462 88.1693C49.8841 89.9698 50.9391 95.2872 51.1176 96.165C51.209 96.6141 51.3012 97.0628 51.3974 97.5108C51.4944 97.9618 51.6426 98.3992 51.7378 98.8498C51.747 98.894 51.8148 98.8884 51.8075 98.8418C51.7352 98.3927 51.7168 97.9342 51.646 97.4832Z" fill="#263238"/>
<path d="M51.9606 86.4241C51.2265 86.3178 44.3654 86.6303 42.8532 86.6882C42.4959 86.7018 42.0966 86.7597 41.7522 86.6349C41.3853 86.5017 41.1961 86.1328 41.0103 85.8093C40.64 85.1653 36.7635 77.2082 36.4516 76.7943C36.3343 76.638 36.2274 76.5915 36.3207 76.8374C36.4811 77.2589 40.2319 85.101 40.5873 85.7295C40.9177 86.314 41.219 86.9186 41.9332 87.0242C42.2477 87.0707 51.4857 86.7234 51.9554 86.6201C52.0554 86.5978 52.0757 86.4408 51.9606 86.4241Z" fill="#263238"/>
</svg>
