<svg width="44" height="34" viewBox="0 0 44 34" fill="none" xmlns="http://www.w3.org/2000/svg">
<g clip-path="url(#clip0_237_1036)">
<path d="M18.8245 29.8639L19.9039 32.0183L18.6123 34L16.1904 33.9988L15.1328 31.8071L16.4771 29.7803L18.8245 29.8639Z" fill="#265277"/>
<path d="M21.8508 25.8539L22.6126 27.7651L21.3683 29.3593L19.307 29.1841L18.5664 27.2428L19.858 25.6138L21.8508 25.8539Z" fill="#265277"/>
<path d="M24.8217 22.9751L25.2386 24.6944L23.9853 25.9034L22.2506 25.508L21.8555 23.7653L23.1531 22.5322L24.8217 22.9751Z" fill="#265277"/>
<path d="M27.6116 20.75L27.791 22.2587L26.5976 23.1638L25.1588 22.6505L25 21.1243L26.2334 20.2036L27.6116 20.75Z" fill="#265277"/>
<path d="M30.1361 19.0787L30.1852 20.3286L29.1476 20.9947L27.9997 20.4814L27.9688 19.2189L29.0409 18.5425L30.1361 19.0787Z" fill="#265277"/>
<path d="M32.5653 17.8504L32.5011 19.0179L31.4762 19.5474L30.4531 18.9703L30.5356 17.792L31.5932 17.2559L32.5653 17.8504Z" fill="#265277"/>
<path d="M34.7495 16.8559L34.6337 17.9078L33.6816 18.3369L32.7852 17.7658L32.9179 16.7049L33.8997 16.271L34.7495 16.8559Z" fill="#1A75BC"/>
<path d="M36.5842 16.1928L36.3696 17.0196L35.5593 17.2531L34.9102 16.6941L35.1393 15.8624L35.9738 15.6289L36.5842 16.1928Z" fill="#265277"/>
<path d="M38.2446 15.6266L38.0488 16.3824L37.3082 16.5954L36.7148 16.0845L36.9239 15.3245L37.687 15.1108L38.2446 15.6266Z" fill="#265277"/>
<path d="M39.4818 15.2571L39.3425 15.7939L38.8164 15.9455L38.3945 15.5827L38.5436 15.0423L39.0855 14.8906L39.4818 15.2571Z" fill="#265277"/>
<path d="M40.5994 14.8885L40.4867 15.3236L40.06 15.4463L39.7188 15.1521L39.8394 14.7146L40.2782 14.5918L40.5994 14.8885Z" fill="#265277"/>
<path d="M41.6078 14.6158L41.5127 14.9817L41.1545 15.0846L40.8672 14.8373L40.9684 14.4696L41.3375 14.3667L41.6078 14.6158Z" fill="#265277"/>
<path d="M10.0199 22.2568L10.6418 25.2278L8.42653 27.2342L5.47307 26.4621L4.89062 23.4526L7.18284 21.4077L10.0199 22.2568Z" fill="#265277"/>
<path d="M15.0004 18.327L15.3131 20.9008L13.2815 22.4492L10.8239 21.5802L10.5469 18.9769L12.6476 17.4009L15.0004 18.327Z" fill="#265277"/>
<path d="M19.5538 15.761L19.5084 17.9912L17.5895 19.0672L15.6016 18.0333L15.6816 15.7821L17.6623 14.6904L19.5538 15.761Z" fill="#1A75BC"/>
<path d="M23.6753 13.9345L23.4074 15.8319L21.6607 16.5564L20.0703 15.4732L20.3691 13.5608L22.171 12.8296L23.6753 13.9345Z" fill="#265277"/>
<path d="M27.334 12.685L26.9818 14.2677L25.4599 14.7636L24.1914 13.7454L24.5714 12.1525L26.1394 11.6548L27.334 12.685Z" fill="#265277"/>
<path d="M30.7201 11.9574L30.2443 13.4251L28.7582 13.7603L27.6484 12.6837L28.1515 11.2082L29.6812 10.876L30.7201 11.9574Z" fill="#265277"/>
<path d="M33.6384 11.4545L33.1584 12.7008L31.8583 12.9216L30.9492 11.9401L31.4529 10.6878L32.7911 10.4712L33.6384 11.4545Z" fill="#265277"/>
<path d="M36.089 11.1404L35.6356 12.1273L34.5701 12.241L33.8828 11.3985L34.3556 10.4086L35.452 10.3003L36.089 11.1404Z" fill="#265277"/>
<path d="M38.2215 11.0337L37.8058 11.8443L36.9088 11.9009L36.3633 11.1703L36.7954 10.3579L37.7185 10.3062L38.2215 11.0337Z" fill="#265277"/>
<path d="M39.9232 11.008L39.5801 11.6188L38.8892 11.6362L38.4922 11.0597L38.848 10.4483L39.5577 10.4351L39.9232 11.008Z" fill="#265277"/>
<path d="M41.3079 10.9147L41.0297 11.4099L40.4703 11.4238L40.1484 10.9568L40.4363 10.4609L41.0121 10.4507L41.3079 10.9147Z" fill="#265277"/>
<path d="M42.5215 10.9017L42.2875 11.3175L41.8172 11.3295L41.5469 10.9372L41.7893 10.5201L42.2724 10.5117L42.5215 10.9017Z" fill="#265277"/>
<path d="M13.8429 26.8183L14.7562 29.483L12.9477 31.5802L10.1397 31.2041L9.25781 28.4996L11.1336 26.3579L13.8429 26.8183Z" fill="#265277"/>
<path d="M17.9787 22.6365L18.5618 24.9702L16.8696 26.6257L14.5071 26.104L13.9531 23.7384L15.7059 22.0498L17.9787 22.6365Z" fill="#265277"/>
<path d="M21.8751 19.7588L22.089 21.8169L20.4465 23.0253L18.4974 22.2983L18.3125 20.2167L20.0101 18.9873L21.8751 19.7588Z" fill="#265277"/>
<path d="M25.4584 17.6104L25.4299 19.3874L23.9043 20.2522L22.3164 19.4344L22.3716 17.6405L23.9468 16.7637L25.4584 17.6104Z" fill="#265277"/>
<path d="M28.6857 16.0465L28.5427 17.5431L27.199 18.172L25.9141 17.3783L26.0807 15.869L27.4675 15.2329L28.6857 16.0465Z" fill="#1A75BC"/>
<path d="M31.717 14.9932L31.4479 16.3984L30.1182 16.875L28.9727 16.0096L29.2666 14.5949L30.6364 14.1152L31.717 14.9932Z" fill="#265277"/>
<path d="M34.3459 14.1995L34.0471 15.4013L32.8755 15.7521L31.9258 14.9506L32.2458 13.7416L33.4525 13.3901L34.3459 14.1995Z" fill="#265277"/>
<path d="M36.5677 13.6327L36.2641 14.5932L35.2955 14.8182L34.5664 14.1208L34.8876 13.1555L35.8846 12.9316L36.5677 13.6327Z" fill="#265277"/>
<path d="M38.5155 13.2932L38.2258 14.0869L37.4064 14.241L36.8203 13.6302L37.1252 12.8328L37.9688 12.6812L38.5155 13.2932Z" fill="#265277"/>
<path d="M40.0805 13.0774L39.835 13.6786L39.2011 13.7731L38.7695 13.2869L39.0265 12.6833L39.6787 12.5918L40.0805 13.0774Z" fill="#265277"/>
<path d="M41.3443 12.835L41.1449 13.3224L40.6316 13.3988L40.2812 13.0047L40.4897 12.516L41.0183 12.4414L41.3443 12.835Z" fill="#265277"/>
<path d="M42.4598 12.686L42.2925 13.0952L41.861 13.1596L41.5664 12.8286L41.7422 12.4176L42.1858 12.355L42.4598 12.686Z" fill="#265277"/>
<path d="M7.57526 6.98494C7.57526 6.98494 8.08074 4.49658 4.99091 4.39728C2.12534 4.31063 1.11196 7.41702 1.33864 8.5261C1.43561 9.41313 1.99867 10.9374 4.60241 12.6543C7.20615 14.3712 6.75947 17.2483 5.43941 18.7148C5.43941 18.7148 4.66181 19.8414 2.75809 19.1915C0.854376 18.5415 1.45622 16.0141 2.03927 16.1687C2.62233 16.3234 2.66051 15.8407 2.42777 15.3774C2.19504 14.914 1.15499 14.5481 0.445874 15.5705C-0.263246 16.593 -0.331128 19.3016 1.78654 20.049C3.9042 20.7964 5.92489 20.374 7.36252 18.1558C8.80016 15.9376 7.75163 12.7771 6.44976 11.8202C5.14789 10.8634 2.64112 9.53348 3.03022 7.44892C3.41933 5.36435 6.02186 4.88292 6.33278 6.465C6.33278 6.465 6.44006 7.09206 6.33278 7.49706C6.22551 7.90206 6.64371 8.23965 7.11039 7.9502C7.10918 7.9496 7.55162 7.55182 7.57526 6.98494Z" fill="#1A75BC"/>
<path d="M10.9095 11.4514C10.9095 11.4514 11.2301 10.2069 10.1519 10.757C10.1519 10.757 8.95668 12.0297 9.50094 14.364C9.50094 14.364 9.87005 15.975 11.4047 14.6439C11.4047 14.6439 12.3665 13.477 12.9108 11.6633C12.9108 11.6633 13.0926 11.5285 13.0465 11.7794C13.0005 12.0303 12.709 14.3737 11.2071 15.5315C9.70519 16.6893 8.66515 15.6085 8.47969 14.7492C8.29422 13.8898 8.28513 11.6717 9.43185 10.6156C10.5786 9.55943 11.5301 10.3147 11.5883 10.4573C11.6465 10.5999 11.8913 11.8077 11.2677 12.1549C10.644 12.5021 10.8737 11.6614 10.9095 11.4514Z" fill="#1A75BC"/>
<path d="M14.0857 7.58167C14.0857 7.58167 14.5621 7.23444 14.533 7.83261C14.5039 8.43078 14.4845 9.183 14.1833 9.66503L14.1227 12.7034C14.1227 12.7034 14.2196 13.0043 14.433 12.7034C14.6463 12.4025 15.7154 10.5527 16.1039 9.26003C16.1039 9.26003 16.2791 9.17337 16.1918 9.56874C16.1918 9.56874 15.473 12.8785 14.0251 13.5622C14.0251 13.5622 13.2675 13.6873 13.1802 13.186C13.0929 12.6848 13.1705 8.88392 13.362 8.41092C13.3669 8.41212 13.7651 7.7953 14.0857 7.58167Z" fill="#1A75BC"/>
<path d="M16.2694 8.27734C16.2694 8.27734 16.784 5.81786 18.6495 6.05858C18.6495 6.05858 19.9999 6.2036 19.2714 8.15217C19.2714 8.15217 18.8144 9.51219 17.1046 9.53145C17.1046 9.53145 16.9786 9.28051 17.1143 9.12645C17.1143 9.12645 18.6768 8.89296 18.698 7.48239C18.698 7.48239 18.795 6.32877 18.018 6.58935C18.018 6.58935 16.5222 8.07454 17.3768 10.4576C17.3768 10.4576 17.6101 11.5956 18.9526 10.853C18.9526 10.853 19.8563 10.2066 20.6527 7.8242C20.6527 7.8242 21.0121 7.03286 20.9248 8.08477C20.8375 9.13668 19.5823 11.5956 18.3483 11.9332C18.3483 11.9332 17.0755 12.367 16.4737 11.0648C15.8718 9.76253 16.2694 8.27734 16.2694 8.27734Z" fill="#1A75BC"/>
<path d="M21.0402 5.18139C21.0402 5.18139 21.3511 4.67951 21.8172 4.37079C22.2833 4.06208 22.2742 4.56396 22.2451 4.68913C22.216 4.8143 22.1378 5.5918 21.9342 6.04254L21.8954 7.4826C21.8954 7.4826 21.9051 7.68901 22.1378 7.19735C22.3705 6.7057 23.3039 4.49656 24.0421 4.48934C24.7803 4.48212 24.8094 5.14348 24.7512 5.90112C24.6931 6.65876 24.6058 8.81073 24.5373 9.22535C24.4688 9.63998 24.6834 9.68812 24.8779 9.37941C25.0725 9.0707 25.898 7.7883 26.3737 6.21585C26.3737 6.21585 26.6459 5.60805 26.6265 6.35065C26.6265 6.35065 26.384 8.3967 25.1113 9.82352C23.8385 11.2503 23.5179 9.71701 23.5276 9.46667C23.5373 9.21633 23.6057 6.46679 23.6542 5.98417C23.6542 5.98417 23.6833 5.53102 23.3821 5.87825C23.0809 6.22548 22.0899 7.84607 21.896 8.29922L21.8572 10.2285C21.8461 10.279 21.8196 10.3248 21.7813 10.3597C21.743 10.3946 21.6948 10.4169 21.6432 10.4235C21.4584 10.4506 21.0796 10.5084 20.8553 10.1996C20.6311 9.89092 20.982 5.40284 21.0402 5.18139Z" fill="#1A75BC"/>
<path d="M27.2954 0.705078C27.3099 0.680405 27.6354 -0.0471473 27.956 0.17491C27.956 0.17491 28.0433 0.0786248 28.0166 0.705078C27.99 1.33153 27.8027 3.43536 27.8348 3.52201C27.8669 3.60867 27.8639 3.79221 28.1845 3.6183C28.4997 3.43919 28.8316 3.29066 29.1755 3.17478C29.5155 3.06827 29.5446 3.30958 29.3118 3.47568C29.0791 3.64177 28.4567 4.03473 27.736 4.17013C27.736 4.17013 27.8039 7.18926 27.6584 8.36574C27.6584 8.36574 27.6972 8.64557 27.95 8.44337C28.2027 8.24118 29.1252 6.82278 29.6403 5.20218C29.6403 5.20218 30.0773 4.55587 29.8634 5.50307C29.6494 6.45028 28.9409 8.21109 27.8233 9.28406C27.8233 9.28406 26.959 9.68906 26.6966 8.89832C26.6966 8.89832 26.6093 5.15585 26.8711 4.32479C26.8711 4.32479 26.8711 4.07385 26.502 4.05459C26.1329 4.03533 26.1038 3.41851 26.2984 3.29274C26.4929 3.16696 26.8129 3.26385 26.9202 3.36013C26.9166 3.35773 27.0899 1.05893 27.2954 0.705078Z" fill="#1A75BC"/>
<path d="M30.2509 1.0828C30.2412 1.04369 30.3194 0.243318 31.0576 0.185547C31.0576 0.185547 31.4655 0.185546 31.3104 0.918515C31.1552 1.65148 30.9116 1.84466 30.4843 1.88136C30.057 1.91807 30.2509 1.0828 30.2509 1.0828Z" fill="#1A75BC"/>
<path d="M13.9531 5.88957C13.9441 5.85526 14.0138 5.14637 14.6665 5.09521C14.6665 5.09521 15.0302 5.09521 14.8902 5.74393C14.7501 6.39265 14.5374 6.56356 14.1592 6.59786C13.781 6.63216 13.9531 5.88957 13.9531 5.88957Z" fill="#1A75BC"/>
<path d="M30.0739 3.72427C30.0739 3.72427 30.7346 2.89501 30.997 3.01055C31.2594 3.1261 31.2006 3.75857 31.0358 4.27429C30.8709 4.79002 30.7727 4.92061 30.7727 4.92061C30.7727 4.92061 30.7818 7.554 30.7121 8.03602C30.6424 8.51805 30.9449 8.20031 31.0225 8.0962C31.1 7.99209 32.0528 6.57189 32.6062 4.98981C32.6062 4.98981 32.9268 4.3435 32.8486 4.98981C32.8486 4.98981 32.3637 7.24709 31.2067 8.64563C30.0497 10.0442 29.7109 8.31766 29.74 8.00894C29.7691 7.70023 29.7533 4.54449 30.0739 3.72427Z" fill="#1A75BC"/>
<path d="M32.92 4.0819C32.92 4.0819 33.5321 2.20073 34.8631 2.75798C34.8631 2.75798 35.5334 3.11484 35.1255 3.86706C35.1255 3.86706 34.8631 4.09875 34.8437 3.74189C34.8243 3.38504 34.7564 3.0685 34.1667 3.48373C34.1667 3.48373 33.4345 4.33224 34.0145 5.33541C34.1241 5.58294 34.2529 5.82158 34.4 6.04912C34.4 6.04912 35.4782 5.17172 36.1001 4.49653C36.1001 4.49653 36.6147 4.22031 36.314 4.7589C36.314 4.7589 35.2061 5.81803 34.5746 6.35783C34.5746 6.35783 35.4837 8.13308 34.0145 8.93345C34.0145 8.93345 32.889 9.36734 32.8672 8.47068C32.8454 7.57403 33.8267 6.77306 33.8267 6.77306C33.8267 6.77306 34.1667 6.71288 33.9139 7.03303C33.6612 7.35318 33.1757 8.11623 33.5545 8.4418C33.9333 8.76736 34.2358 8.1716 34.2594 7.93028C34.283 7.68897 34.2249 7.11066 33.506 6.42583C32.7872 5.74101 32.8036 4.64095 32.92 4.0819Z" fill="#1A75BC"/>
<path d="M36.2324 3.14618C36.2015 3.12271 35.4942 3.086 35.873 3.59932C36.2518 4.11263 36.5239 3.98506 36.5239 3.98506C36.5239 3.98506 36.1839 7.76665 36.3494 8.68256C36.5148 9.59847 37.5343 9.16398 37.6022 9.07792C37.67 8.99187 38.438 8.69218 39.4871 5.21028C39.4871 5.21028 39.555 4.31303 39.2247 5.21991C39.2247 5.21991 38.4289 7.60236 37.627 8.26793C37.627 8.26793 37.35 8.55738 37.35 8.03624C37.35 7.5151 37.2718 4.54592 37.4858 4.0332C37.4858 4.0332 38.4864 3.7636 39.021 3.27134C39.021 3.27134 39.2828 2.82783 38.7974 2.98189C38.7974 2.98189 37.8937 3.59932 37.5343 3.57043C37.5343 3.57043 37.6609 1.13021 37.6803 0.252213C37.6803 0.252213 37.6119 -0.374844 37.0585 0.348497C37.0585 0.348497 36.6882 1.84573 36.6142 3.17686C36.6142 3.19311 36.6142 3.20876 36.6142 3.22501C36.6112 3.2232 36.4367 3.30023 36.2324 3.14618Z" fill="#1A75BC"/>
<path d="M39.6645 2.52685C39.6645 2.52685 40.17 2.41131 40.1603 3.36573C40.1603 3.36573 40.6949 4.7065 40.8015 4.95744C40.9082 5.20839 41.0149 4.89004 41.0252 4.83227C41.0355 4.7745 41.7452 3.61006 41.8701 3.06845C41.9949 2.52685 42.6665 2.66345 42.5307 3.1172C42.3949 3.57094 42.4701 3.30977 42.2004 3.71477C41.9307 4.11976 41.1318 5.39313 41.17 5.76985C41.2082 6.14656 41.6749 7.32244 41.9858 7.62153C42.2967 7.92061 42.3495 7.62152 42.5483 7.36095C42.7471 7.10038 43.6392 5.19093 43.7156 4.58314C43.792 3.97534 44.0847 4.49648 43.9774 4.70831C43.8701 4.92013 43.3556 7.42896 42.1901 8.52841C41.0246 9.62786 40.6221 6.78325 40.6221 6.78325C40.6221 6.78325 40.016 8.63492 39.1978 8.66381C38.3796 8.6927 38.9354 7.94167 39.1493 7.73767C39.3633 7.53367 40.0288 6.68636 40.3009 6.2934C40.3009 6.2934 40.3767 6.07134 39.8324 5.26134C39.8324 5.26134 39.036 4.29849 39.1524 3.58298C39.2687 2.86746 39.2372 2.90477 39.6645 2.52685Z" fill="#1A75BC"/>
</g>
<defs>
<clipPath id="clip0_237_1036">
<rect width="44" height="34" fill="white"/>
</clipPath>
</defs>
</svg>
