<svg width="115" height="129" viewBox="0 0 115 129" fill="none" xmlns="http://www.w3.org/2000/svg">
<path d="M26.5664 16.6211L28.3907 16.2836L28.7952 14.3584L29.2025 16.2836L31.0268 16.6211L29.211 17.0662L28.7952 18.8866L28.3822 17.0662L26.5664 16.6211Z" fill="#FFC727"/>
<path d="M76.5508 53.7705L78.3723 53.4331L78.7796 51.5078L79.1869 53.4331L81.0112 53.7705L79.1953 54.2156L78.7796 56.036L78.3638 54.2156L76.5508 53.7705Z" fill="#FFC727"/>
<path d="M35.9102 47.1669L36.9284 46.9798L37.1547 45.9023L37.3838 46.9798L38.402 47.1669L37.3866 47.4165L37.1547 48.4344L36.9227 47.4165L35.9102 47.1669Z" fill="#FFC727"/>
<path d="M37.3359 11.6474L38.3542 11.4574L38.5833 10.3828L38.8095 11.4574L39.8278 11.6474L38.8152 11.8941L38.5833 12.912L38.3513 11.8941L37.3359 11.6474Z" fill="#FFC727"/>
<path d="M85.9375 19.3749L86.9557 19.1849L87.1848 18.1074L87.4111 19.1849L88.4293 19.3749L87.4168 19.6215L87.1848 20.6394L86.9529 19.6215L85.9375 19.3749Z" fill="#FFC727"/>
<path d="M58.3594 1.26459L59.3776 1.07746L59.6067 0L59.833 1.07746L60.8512 1.26459L59.8386 1.51411L59.6067 2.53203L59.3748 1.51411L58.3594 1.26459Z" fill="#FFC727"/>
<path d="M33.0378 49.6336C33.1161 49.6336 33.1913 49.6024 33.2468 49.5468C33.3022 49.4913 33.3333 49.4159 33.3333 49.3373C33.3333 49.2587 33.3022 49.1834 33.2468 49.1278C33.1913 49.0722 33.1161 49.041 33.0378 49.041C32.9594 49.041 32.8842 49.0722 32.8288 49.1278C32.7733 49.1834 32.7422 49.2587 32.7422 49.3373C32.7422 49.4159 32.7733 49.4913 32.8288 49.5468C32.8842 49.6024 32.9594 49.6336 33.0378 49.6336Z" fill="#FFC727"/>
<path d="M82.389 50.9948C82.4445 50.9948 82.4977 50.9727 82.537 50.9334C82.5762 50.894 82.5983 50.8407 82.5983 50.785C82.5983 50.7294 82.5762 50.676 82.537 50.6367C82.4977 50.5973 82.4445 50.5752 82.389 50.5752C82.3335 50.5752 82.2802 50.5973 82.241 50.6367C82.2017 50.676 82.1797 50.7294 82.1797 50.785C82.1797 50.8407 82.2017 50.894 82.241 50.9334C82.2802 50.9727 82.3335 50.9948 82.389 50.9948Z" fill="#FFC727"/>
<path d="M34.021 32.4686C34.0719 32.4626 34.1189 32.4381 34.153 32.3997C34.1871 32.3612 34.206 32.3116 34.206 32.2602C34.206 32.2087 34.1871 32.1591 34.153 32.1207C34.1189 32.0823 34.0719 32.0577 34.021 32.0518C33.97 32.0577 33.923 32.0823 33.8889 32.1207C33.8548 32.1591 33.8359 32.2087 33.8359 32.2602C33.8359 32.3116 33.8548 32.3612 33.8889 32.3997C33.923 32.4381 33.97 32.4626 34.021 32.4686Z" fill="#FFC727"/>
<path d="M81.0092 11.8553C81.0602 11.8493 81.1072 11.8248 81.1413 11.7864C81.1754 11.748 81.1942 11.6983 81.1942 11.6469C81.1942 11.5954 81.1754 11.5458 81.1413 11.5074C81.1072 11.469 81.0602 11.4444 81.0092 11.4385C80.9583 11.4444 80.9113 11.469 80.8772 11.5074C80.8431 11.5458 80.8242 11.5954 80.8242 11.6469C80.8242 11.6983 80.8431 11.748 80.8772 11.7864C80.9113 11.8248 80.9583 11.8493 81.0092 11.8553Z" fill="#FFC727"/>
<path d="M31.932 18.5407C31.9875 18.5407 32.0407 18.5186 32.08 18.4793C32.1192 18.4399 32.1413 18.3866 32.1413 18.3309C32.1413 18.2753 32.1192 18.2219 32.08 18.1825C32.0407 18.1432 31.9875 18.1211 31.932 18.1211C31.8764 18.1211 31.8232 18.1432 31.784 18.1825C31.7447 18.2219 31.7227 18.2753 31.7227 18.3309C31.7227 18.3866 31.7447 18.4399 31.784 18.4793C31.8232 18.5186 31.8764 18.5407 31.932 18.5407Z" fill="#FFC727"/>
<path d="M85.7202 32.6785C85.7711 32.6726 85.8181 32.648 85.8522 32.6096C85.8863 32.5712 85.9052 32.5216 85.9052 32.4701C85.9052 32.4187 85.8863 32.3691 85.8522 32.3306C85.8181 32.2922 85.7711 32.2677 85.7202 32.2617C85.6692 32.2677 85.6222 32.2922 85.5881 32.3306C85.554 32.3691 85.5352 32.4187 85.5352 32.4701C85.5352 32.5216 85.554 32.5712 85.5881 32.6096C85.6222 32.648 85.6692 32.6726 85.7202 32.6785Z" fill="#FFC727"/>
<path d="M66.264 2.73898C66.3195 2.73898 66.3727 2.71687 66.412 2.67752C66.4512 2.63817 66.4733 2.5848 66.4733 2.52916C66.4733 2.47351 66.4512 2.42014 66.412 2.38079C66.3727 2.34144 66.3195 2.31934 66.264 2.31934C66.2085 2.31934 66.1552 2.34144 66.116 2.38079C66.0767 2.42014 66.0547 2.47351 66.0547 2.52916C66.0547 2.5848 66.0767 2.63817 66.116 2.67752C66.1552 2.71687 66.2085 2.73898 66.264 2.73898Z" fill="#FFC727"/>
<path d="M82.3442 32.4682C83.0711 32.4682 83.0739 31.334 82.3442 31.334C81.6144 31.334 81.6144 32.4682 82.3442 32.4682Z" fill="#FFC727"/>
<path d="M73.102 12.0189C73.8289 12.0189 73.8317 10.8848 73.102 10.8848C72.3723 10.8848 72.3723 12.0189 73.102 12.0189Z" fill="#FFC727"/>
<path d="M39.3974 40.5492C40.1243 40.5492 40.1272 39.415 39.3974 39.415C38.6677 39.415 38.6507 40.5492 39.3974 40.5492Z" fill="#FFC727"/>
<path d="M57.2642 5.52904C57.046 3.89052 57.0157 2.23236 57.1737 0.586914C57.3904 2.22554 57.4207 3.88354 57.2642 5.52904Z" fill="#263238"/>
<path d="M46.0104 8.67663C45.0042 7.36708 44.1502 5.94682 43.4648 4.44336C44.4705 5.7533 45.3245 7.17349 46.0104 8.67663Z" fill="#263238"/>
<path d="M37.8328 17.0435C36.3099 16.411 34.8629 15.6082 33.5195 14.6504C35.0436 15.2805 36.4908 16.0835 37.8328 17.0435Z" fill="#263238"/>
<path d="M34.9299 28.3878C33.2952 28.6036 31.6415 28.6341 30 28.4785C31.6345 28.2598 33.2885 28.2294 34.9299 28.3878Z" fill="#263238"/>
<path d="M38.0705 39.667C36.764 40.6755 35.3473 41.5316 33.8477 42.2189C35.154 41.2102 36.5707 40.354 38.0705 39.667Z" fill="#263238"/>
<path d="M77.1602 39.2646C78.6836 39.895 80.1307 40.6969 81.4735 41.6549C79.95 41.0246 78.5029 40.2227 77.1602 39.2646Z" fill="#263238"/>
<path d="M80.0664 27.9198C81.701 27.7026 83.3549 27.6722 84.9963 27.8291C83.3617 28.0463 81.7078 28.0768 80.0664 27.9198Z" fill="#263238"/>
<path d="M76.9258 16.6378C78.2336 15.6313 79.6501 14.7753 81.1486 14.0859C79.843 15.0956 78.4261 15.9519 76.9258 16.6378Z" fill="#263238"/>
<path d="M68.5781 8.44412C69.2084 6.91706 70.0093 5.46648 70.9653 4.12012C70.3361 5.64772 69.5352 7.09843 68.5781 8.44412Z" fill="#263238"/>
<g opacity="0.5">
<path d="M77.4218 29.6245C76.4488 42.0295 66.1252 45.7609 66.1252 45.7609C65.3671 47.6464 64.38 52.4439 64.38 52.4439H50.617C50.617 52.4439 49.6299 47.6464 48.8719 45.7609C48.8719 45.7609 38.5624 42.0238 37.5753 29.6189C36.888 20.9992 43.0115 8.25967 57.425 8.25684H57.5721C71.9856 8.26534 78.1091 21.0049 77.4218 29.6245Z" fill="#FFC727"/>
</g>
<g opacity="0.7">
<path d="M75.7206 29.6863C74.8156 41.028 65.3857 44.4503 65.3857 44.4503C64.6927 46.1771 63.7905 52.449 63.7905 52.449H51.2041C51.2041 52.449 50.3018 46.1771 49.6088 44.4503C49.6088 44.4503 40.179 41.0308 39.2739 29.6863C38.646 21.8038 44.2462 10.1503 57.4294 10.1475H57.5651C70.7483 10.1503 76.3486 21.8038 75.7206 29.6863Z" fill="#FFC727"/>
</g>
<path d="M54.154 53.6236L50.1094 31.9043" stroke="white" stroke-width="3" stroke-miterlimit="10"/>
<path d="M60.8477 53.6206L64.8866 31.9014" stroke="white" stroke-width="3" stroke-miterlimit="10"/>
<path d="M50.4531 32.7324C50.4531 32.7324 51.2536 36.9855 53.174 36.9855C55.0945 36.9855 56.8962 30.6427 54.3733 30.6455C51.8504 30.6483 54.2941 38.9561 57.4958 38.9561C60.6976 38.9561 62.5389 30.6483 60.2988 30.6483C58.0587 30.6483 58.7658 37.2549 61.8459 37.2549C63.5005 37.2549 64.6743 33.0017 64.6743 33.0017" stroke="white" stroke-miterlimit="10"/>
<path d="M66.118 52.4668H48.8789V61.9768H66.118V52.4668Z" fill="#455A64"/>
<path d="M64.1634 61.9766C63.1508 63.7799 61.2077 65.3791 57.4997 65.3791C53.7916 65.3791 51.8428 63.7685 50.8359 61.9766H64.1634Z" fill="#455A64"/>
<path d="M64.163 61.9766C63.8635 62.5161 63.4872 63.009 63.0457 63.4396L51.1665 62.5266C51.043 62.3493 50.9288 62.1657 50.8242 61.9766H64.163Z" fill="#37474F"/>
<path d="M66.621 54.281L48.375 55.9737V55.1429L66.621 53.4502V54.281Z" fill="#37474F"/>
<path d="M66.621 56.7908L48.375 58.4836V57.6528L66.621 55.9629V56.7908Z" fill="#37474F"/>
<path d="M66.621 59.3025L48.375 60.9924V60.1644L66.621 58.4717V59.3025Z" fill="#37474F"/>
<g opacity="0.5">
<path d="M41.9175 26.7262C42.5511 26.8311 43.3685 23.5618 46.8757 19.7766C48.4483 18.0952 54.3455 15.9884 53.9185 14.0519C53.4914 12.1153 48.2192 14.1057 45.569 17.1878C41.301 22.1441 41.3377 26.6269 41.9175 26.7262Z" fill="white"/>
<path d="M73.0174 27.4066C74.1799 27.4066 74.1799 25.5947 73.0174 25.5947C71.855 25.5947 71.8521 27.4066 73.0174 27.4066Z" fill="white"/>
<path d="M67.3306 41.0279C67.9642 41.507 71.05 38.6716 72.4416 35.2691C73.5955 32.4337 73.7935 28.8696 73.0072 28.6626C72.2209 28.4556 71.726 33.3581 70.7926 35.1642C69.6273 37.4269 66.649 40.509 67.3306 41.0279Z" fill="white"/>
</g>
<path d="M107.302 128.867C75.392 129.04 39.6014 129.043 7.69141 128.867C39.6014 128.691 75.392 128.694 107.302 128.867Z" fill="#263238"/>
<path d="M53.1134 93.6566C53.1134 93.6566 37.4157 88.4706 36.2193 86.9593C35.0229 85.4481 30.9811 73.0233 30.8453 71.719C30.7096 70.4147 33.1081 69.6406 35.713 72.3456C38.5754 75.3171 40.6599 82.1051 41.8393 82.4482C42.2862 82.5758 49.6486 83.7582 50.3613 84.0615C51.0741 84.3649 53.1134 93.6566 53.1134 93.6566Z" fill="#D3766A"/>
<g opacity="0.1">
<path d="M53.1134 93.6566C53.1134 93.6566 37.4157 88.4706 36.2193 86.9593C35.0229 85.4481 30.9811 73.0233 30.8453 71.719C30.7096 70.4147 33.1081 69.6406 35.713 72.3456C38.5754 75.3171 40.6599 82.1051 41.8393 82.4482C42.2862 82.5758 49.6486 83.7582 50.3613 84.0615C51.0741 84.3649 53.1134 93.6566 53.1134 93.6566Z" fill="black"/>
</g>
<path d="M55.6281 99.7362C55.6281 99.7362 34.3783 85.2756 33.3431 83.6452C32.3079 82.0149 29.191 68.6941 29.1797 67.3813C29.1684 66.0685 32.4182 65.9267 34.7404 68.8784C37.2859 72.1249 39.328 78.4507 40.4679 78.9101C40.8978 79.083 47.0185 81.8107 47.6973 82.185C48.3761 82.5593 55.6281 99.7362 55.6281 99.7362Z" fill="#D3766A"/>
<path d="M42.4459 88.0511C39.9569 85.1193 34.2435 69.689 33.9607 67.7836C33.6778 65.8782 41.4135 51.1255 44.6266 47.5756C46.1002 45.9452 49.2369 49.3505 48.7843 55.0072C48.2922 61.1657 44.4427 67.0946 45.0339 68.1578C45.4496 68.9064 50.6567 80.9172 51.1291 81.5467C51.4119 81.9181 57.889 97.7227 55.6404 99.7358C55.6291 99.7358 43.2803 89.0378 42.4459 88.0511Z" fill="#D3766A"/>
<path d="M61.6797 72.5609C66.0977 72.4248 66.488 66.323 65.8686 61.9111C64.7117 53.7111 70.0461 49.7755 72.5945 50.8247C75.8754 52.1743 71.7658 61.9111 76.5005 67.9335C86.3999 80.5086 84.355 91.6178 84.355 91.6178C81.0825 90.6452 68.2472 75.9237 61.6797 72.5609Z" fill="#D3766A"/>
<path d="M51.2076 96.7019C48.5659 92.5027 48.5885 84.4813 45.0615 79.043C43.2739 76.2898 36.2736 63.1902 34.3447 59.4247C33.0125 56.8218 30.218 51.8599 31.4653 51.2502C33.482 50.2607 37.7897 50.9667 40.2956 53.6235C43.4238 56.9267 47.4345 64.313 49.8443 65.9802C68.7295 79.043 76.6689 73.684 80.0205 74.7048L84.3678 91.618L83.3722 128.867H42.4707L51.2076 96.7019Z" fill="#D3766A"/>
<path opacity="0.1" d="M50.6768 98.1084C50.1422 107.324 70.6566 107.97 84.3659 91.6182L83.3703 128.867H42.4688L50.6768 98.1084Z" fill="black"/>
<path d="M33.6133 58.0156C35.6328 61.316 37.5504 64.6873 39.4539 68.0502C40.9756 70.3412 42.9074 72.3288 44.7911 74.3334C46.3222 75.9288 47.8807 77.4987 49.4665 79.0431C48.618 78.3229 47.8062 77.58 46.9916 76.8314C44.1632 74.1718 41.2981 71.5009 39.0721 68.2968C37.1177 64.9369 35.2424 61.5457 33.6133 58.0156Z" fill="#263238"/>
<path d="M34.0234 68.1609C35.8449 72.1305 37.3298 76.2646 38.7893 80.3787C38.8194 80.4774 38.8602 80.5725 38.9109 80.6623C39.7821 82.1821 41.069 83.4778 42.2173 84.802C42.8113 85.474 43.425 86.1261 44.0303 86.7868C42.3266 85.3203 40.7424 83.7198 39.2928 82.0006C38.911 81.5588 38.5965 81.063 38.3594 80.529C36.9452 76.7182 35.3443 72.0228 34.0234 68.1553V68.1609Z" fill="#263238"/>
<path d="M40.0156 53.3428C41.2488 54.1934 42.2076 55.3786 43.076 56.5808C43.9443 57.783 46.1872 61.0863 46.7727 62.4643C44.9851 60.1052 41.9503 55.5856 40.0156 53.3428Z" fill="#263238"/>
<path d="M45.0182 114.865L84.5932 115.549L84.0219 128.867H41.0273L45.0182 114.865Z" fill="#EBEBEB"/>
<path d="M41.1817 119.439L85.6328 120.276L85.8195 128.867H39.3828L41.1817 119.439Z" fill="#FFC727"/>
<path d="M91.4288 102.713H27.7812V128.867H91.4288V102.713Z" fill="#FFC727"/>
<path opacity="0.1" d="M91.4288 102.713H27.7812V128.867H91.4288V102.713Z" fill="black"/>
<path opacity="0.2" d="M91.4278 102.716H59.6055V128.87H91.4278V102.716Z" fill="black"/>
<path d="M90.0931 127.067C87.5965 125.207 85.1226 123.34 82.6714 121.467L75.3571 115.841L68.139 110.19C65.7462 108.3 63.3769 106.41 61.0312 104.52C63.5278 106.366 66.0017 108.235 68.453 110.125L75.7644 115.751L82.9825 121.402C85.3772 123.279 87.7474 125.167 90.0931 127.067Z" fill="#FFC727"/>
<path d="M90.0902 104.517C87.7427 106.407 85.3725 108.297 82.9797 110.187L75.7616 115.838L68.4502 121.467C65.9989 123.338 63.5259 125.204 61.0312 127.064C63.3769 125.174 65.7462 123.283 68.139 121.393L75.3571 115.742L82.6685 110.125C85.1198 108.244 87.5937 106.375 90.0902 104.517Z" fill="#FFC727"/>
<path d="M33.1247 127.16H33.3086V124.574H33.1247V127.16Z" fill="white"/>
<path d="M32.6833 127.16H32.8672V124.574H32.6833V127.16Z" fill="white"/>
<path d="M32.2458 127.16H32.4297V124.574H32.2458V127.16Z" fill="white"/>
<path d="M31.8083 127.16H31.9922V124.574H31.8083V127.16Z" fill="white"/>
<path d="M30.9294 127.16H31.1133V124.574H30.9294V127.16Z" fill="white"/>
<path d="M30.4919 127.16H30.6758V124.574H30.4919V127.16Z" fill="white"/>
<path d="M30.0544 127.16H30.2383V124.574H30.0544V127.16Z" fill="white"/>
<path d="M29.613 127.16H29.7969V124.574H29.613V127.16Z" fill="white"/>
<path opacity="0.1" d="M27.7812 128.87V127.871L59.6036 125.592V128.867L27.7812 128.87Z" fill="black"/>
<path d="M52.8224 109.869H21L27.7825 102.713H59.6049L52.8224 109.869Z" fill="#FFC727"/>
<path d="M66.3851 109.869H98.2075L91.4278 102.713H59.6055L66.3851 109.869Z" fill="#FFC727"/>
<path opacity="0.1" d="M66.3851 109.869H98.2075L91.4278 102.713H59.6055L66.3851 109.869Z" fill="black"/>
</svg>
